<?xml version="1.0" encoding="utf-8"?>
<!-- Generator: Adobe Illustrator 24.2.1, SVG Export Plug-In . SVG Version: 6.00 Build 0)  -->
<svg version="1.1" id="animationLogo" xmlns="http://www.w3.org/2000/svg" xmlns:xlink="http://www.w3.org/1999/xlink" x="0px"
	 y="0px" viewBox="0 0 198.8 198.2" style="enable-background:new 0 0 198.8 198.2;" xml:space="preserve">
<style type="text/css">
	.st0{fill:#222222;}
</style>
<g>
	<path class="st0" d="M99.3,137.7v-2.3h0.9l0.1,2.3H99.3z"/>
	<path class="st0" d="M116.5,97.5c-0.7-8.1-7-14.6-15-15.6l-2-43.7l-2,43.7c-8.2,0.8-14.6,7.4-15.4,15.6l-43.9,2l44,2
		c1.1,7.8,7.4,13.9,15.3,14.8l2,44.5l2-44.6c7.7-1,13.9-7,14.9-14.7l44.3-2C160.7,99.5,116.5,97.5,116.5,97.5z M99.3,112.1
		c-7.2,0-13.1-5.9-13.1-13.1s5.9-13.1,13.1-13.1s13.1,5.9,13.1,13.1C112.4,106.3,106.6,112.1,99.3,112.1z"/>
	<path class="st0" d="M100.5,197.8h-2l-1.9-80.7c-3.7-0.6-7.2-2.3-9.9-4.9s-4.6-6.1-5.2-9.8L1.3,99.5v-2l80.1-0.9
		c1.1-8,7.3-14.3,15.3-15.5l1.9-80.9h2l1.9,80.9c7.8,1.3,13.9,7.7,15,15.5l80.4,0.9v2l-80.6,2.9c-1.4,7.5-7.3,13.3-14.8,14.6
		C102.5,117,100.5,197.8,100.5,197.8z M60.2,99.5l23,1l0.1,0.8c1,7.4,7,13.1,14.4,13.9l0.8,0.1l1,23.2l1-23.3l0.8-0.1
		c7.3-0.9,13.1-6.6,14.1-13.9l0.1-0.8l23.2-1l-23.1-1l-0.1-0.9c-0.7-7.6-6.6-13.7-14.2-14.7l-0.8-0.1l-1-22.8l-1,22.8l-0.8,0.1
		c-7.7,0.8-13.8,7-14.5,14.7l-0.1,0.9C83.1,98.4,60.2,99.5,60.2,99.5z M99.3,113.1c-7.7,0-14.1-6.3-14.1-14.1
		c0-7.7,6.3-14.1,14.1-14.1c7.7,0,14.1,6.3,14.1,14.1S107.1,113.1,99.3,113.1z M99.3,87c-6.7,0-12.1,5.4-12.1,12.1
		s5.4,12.1,12.1,12.1s12.1-5.4,12.1-12.1S106,87,99.3,87z"/>
</g>
<g>
	<polygon class="st0" points="43,45.7 30.3,30.2 45.7,42.9 	"/>
	<polygon class="st0" points="30.3,168.7 43.3,152.9 46.1,155.7 	"/>
	<polygon class="st0" points="155.5,152.7 168.8,168.7 152.8,155.5 	"/>
	<polygon class="st0" points="154.6,42.6 170.7,30.2 157.3,45.5 	"/>
	<path class="st0" d="M99.7,178.2c-10.3,0-20.3-1.9-29.8-5.8c-9.8-4-18.6-9.8-26.2-17.4s-13.4-16.4-17.4-26.2
		c-3.8-9.5-5.8-19.5-5.8-29.8s1.9-20.3,5.8-29.8c4-9.8,9.8-18.6,17.4-26.2s16.4-13.4,26.2-17.4c9.5-3.8,19.5-5.8,29.8-5.8
		s20.3,1.9,29.8,5.8c9.8,4,18.6,9.8,26.2,17.4s13.4,16.4,17.4,26.2c3.8,9.5,5.8,19.5,5.8,29.8s-1.9,20.3-5.8,29.8
		c-4,9.8-9.8,18.6-17.4,26.2l-1.2-1.2l1.2,1.2c-7.6,7.6-16.4,13.4-26.2,17.4C120,176.3,110,178.2,99.7,178.2z M99.7,28.2
		c-18.9,0-36.8,7.4-50.2,20.8S28.7,80.2,28.7,99.1s7.4,36.8,20.8,50.1C62.9,162.6,80.8,170,99.7,170s36.8-7.4,50.2-20.8
		c13.4-13.4,20.8-31.2,20.8-50.1s-7.4-36.8-20.8-50.1C136.5,35.6,118.6,28.2,99.7,28.2L99.7,28.2z"/>
</g>
<g>
	<path class="st0" d="M99.3,144.3c-6.1,0-11.9-1.1-17.5-3.4c-5.8-2.4-10.9-5.8-15.4-10.2s-7.9-9.6-10.2-15.4
		c-2.2-5.6-3.4-11.5-3.4-17.5s1.1-11.9,3.4-17.5c2.4-5.8,5.8-10.9,10.2-15.4c4.5-4.5,9.6-7.9,15.4-10.2c5.6-2.2,11.5-3.4,17.5-3.4
		s11.9,1.1,17.5,3.4c5.8,2.4,10.9,5.8,15.4,10.2c4.5,4.5,7.9,9.6,10.2,15.4c2.2,5.6,3.4,11.5,3.4,17.5s-1.1,11.9-3.4,17.5
		c-2.4,5.8-5.8,10.9-10.2,15.4l-0.7-0.7l0.7,0.7c-4.5,4.5-9.6,7.9-15.4,10.2C111.2,143.2,105.3,144.3,99.3,144.3z M99.3,56
		c-11.1,0-21.7,4.3-29.5,12.2S57.5,86.6,57.5,97.8s4.4,21.6,12.2,29.5s18.4,12.2,29.5,12.2s21.7-4.3,29.5-12.2S141,108.9,141,97.8
		s-4.4-21.6-12.2-29.5S110.4,56,99.3,56L99.3,56z"/>
</g>
</svg>
