<?xml version="1.0" encoding="utf-8"?>
<!-- Generator: Adobe Illustrator 24.2.1, SVG Export Plug-In . SVG Version: 6.00 Build 0)  -->
<svg version="1.1" id="Layer_1" xmlns="http://www.w3.org/2000/svg" xmlns:xlink="http://www.w3.org/1999/xlink" x="0px" y="0px"
	 viewBox="0 0 28.1 15.1" style="enable-background:new 0 0 28.1 15.1;" xml:space="preserve">
<style type="text/css">
	.st0{fill:#FFFFFF;}
</style>
<desc>Created with Sketch.</desc>
<g id="Login">
	<g id="Group-3" transform="translate(-960.000000, -540.000000)">
		<g transform="translate(960.000000, 540.000000)">
			<g id="Path-2">
				<path class="st0" d="M7.6,15.1c-0.1,0-0.3,0-0.4-0.1L0.1,7.9C0,7.7,0,7.4,0.1,7.2l7.1-7.1C7.4,0,7.7,0,7.9,0.1s0.2,0.5,0,0.7
					L1.2,7.6l6.7,6.7c0.2,0.2,0.2,0.5,0,0.7C7.8,15.1,7.7,15.1,7.6,15.1z"/>
			</g>
			<g id="Path-3">
				<path class="st0" d="M27.6,8.2H1.6C1.3,8.2,1.1,8,1.1,7.7s0.2-0.5,0.5-0.5h25.6V0.6c0-0.3,0.2-0.5,0.5-0.5s0.5,0.2,0.5,0.5v7.1
					C28.1,8,27.9,8.2,27.6,8.2z"/>
			</g>
		</g>
	</g>
</g>
</svg>
