<?xml version="1.0" encoding="UTF-8"?>
<svg width="17px" height="13px" viewBox="0 0 17 13" version="1.1" xmlns="http://www.w3.org/2000/svg" xmlns:xlink="http://www.w3.org/1999/xlink">
    <!-- Generator: Sketch 60 (88103) - https://sketch.com -->
    <title>Shape</title>
    <desc>Created with Sketch.</desc>
    <g id="CheckIns--Manager" stroke="none" stroke-width="1" fill="none" fill-rule="evenodd">
        <g id="Manager_MyTeam" transform="translate(-1206.000000, -300.000000)" fill="#928FA0">
            <path d="M1207.63855,300 C1206.71687,300 1206,300.728258 1206,301.624878 C1206,302.522476 1206.71687,303.249755 1207.63855,303.249755 C1208.66265,303.249755 1209.37952,302.522476 1209.37952,301.624878 C1209.37952,300.728258 1208.66265,300 1207.63855,300 Z M1211.93976,300.812439 C1211.42771,300.812439 1211.12048,301.176568 1211.12048,301.624878 C1211.12048,302.074166 1211.42771,302.437316 1211.93976,302.437316 L1222.07831,302.437316 C1222.59036,302.437316 1223,302.074166 1223,301.624878 C1223,301.176568 1222.59036,300.812439 1222.07831,300.812439 L1211.93976,300.812439 Z M1211.12048,306.500489 C1211.12048,306.051201 1211.42771,305.688051 1211.93976,305.688051 L1222.07831,305.688051 C1222.59036,305.688051 1223,306.051201 1223,306.500489 C1223,306.948799 1222.59036,307.312928 1222.07831,307.312928 L1211.93976,307.312928 C1211.42771,307.312928 1211.12048,306.948799 1211.12048,306.500489 Z M1207.63855,304.875612 C1206.71687,304.875612 1206,305.602891 1206,306.500489 C1206,307.397109 1206.71687,308.125367 1207.63855,308.125367 C1208.66265,308.125367 1209.37952,307.397109 1209.37952,306.500489 C1209.37952,305.602891 1208.66265,304.875612 1207.63855,304.875612 Z M1211.12048,311.375122 C1211.12048,310.925834 1211.42771,310.562684 1211.93976,310.562684 L1222.07831,310.562684 C1222.59036,310.562684 1223,310.925834 1223,311.375122 C1223,311.823432 1222.59036,312.187561 1222.07831,312.187561 L1211.93976,312.187561 C1211.42771,312.187561 1211.12048,311.823432 1211.12048,311.375122 Z M1207.63855,309.750245 C1206.71687,309.750245 1206,310.477524 1206,311.375122 C1206,312.27272 1206.71687,313 1207.63855,313 C1208.66265,313 1209.37952,312.27272 1209.37952,311.375122 C1209.37952,310.477524 1208.66265,309.750245 1207.63855,309.750245 Z" id="Shape"></path>
        </g>
    </g>
</svg>