<?xml version="1.0" encoding="utf-8"?>
<!-- Generator: Adobe Illustrator 24.0.3, SVG Export Plug-In . SVG Version: 6.00 Build 0)  -->
<svg version="1.1" id="Layer_1" xmlns="http://www.w3.org/2000/svg" xmlns:xlink="http://www.w3.org/1999/xlink" x="0px" y="0px"
	 viewBox="0 0 16 20" style="enable-background:new 0 0 16 20;" xml:space="preserve">
<style type="text/css">
	.st0{fill-rule:evenodd;clip-rule:evenodd;fill:#B4B0C8;}
</style>
<title>Combined Shape</title>
<desc>Created with Sketch.</desc>
<g id="Persona-1--Operational-I">
	<g id="Operational-1---Dashboard" transform="translate(-1268.000000, -35.000000)">
		<g id="Header">
			<path id="Combined-Shape" class="st0" d="M1276,35c1.1,0,2,0.9,2,2l0,0v0.3c2.3,0.8,4,3,4,5.7l0,0v3.6l1.6,2.2
				c0.5,0.6,0.6,1.4,0.2,2.1c-0.4,0.7-1.1,1.1-1.8,1.1l0,0h-3c0,1.7-1.3,3-3,3c-1.6,0-3-1.3-3-3l0,0h-3c-0.7,0-1.3-0.4-1.7-1.1
				c-0.4-0.7-0.4-1.5,0.1-2.1l0,0l1.6-2.2V43c0-2.6,1.7-4.8,4.1-5.7l0,0V37C1274,35.9,1274.9,35,1276,35z M1277,52h-2
				c0,0.6,0.5,1,1,1C1276.6,53,1277,52.6,1277,52L1277,52z M1276,39c-2.2,0-4,1.8-4,4l0,0v3.6c0,0.4-0.1,0.8-0.4,1.2l0,0l-0.1,0.2
				l-1.6,2h12l-1.4-2l-0.1-0.2c-0.2-0.3-0.5-0.8-0.5-1.2l0,0V43C1279.9,40.8,1278.3,39,1276,39z"/>
		</g>
	</g>
</g>
</svg>
