<?xml version="1.0" encoding="UTF-8"?>
<svg width="15px" height="4px" viewBox="0 0 15 4" version="1.1" xmlns="http://www.w3.org/2000/svg" xmlns:xlink="http://www.w3.org/1999/xlink">
    <!-- Generator: Sketch 62 (91390) - https://sketch.com -->
    <title>Shape</title>
    <desc>Created with Sketch.</desc>
    <g id="Persona-1--Operational-I" stroke="none" stroke-width="1" fill="none" fill-rule="evenodd">
        <g id="Operational-1---Dashboard" transform="translate(-1370.000000, -233.000000)" fill="#8E8D8D">
            <g id="Overall-Projects-Health" transform="translate(91.000000, 196.000000)">
                <path d="M1280.7,37 C1279.8,37 1279,37.743 1279,38.66 C1279,39.577 1279.8,40.32 1280.7,40.32 C1281.6,40.32 1282.3,39.577 1282.3,38.66 C1282.3,37.743 1281.6,37 1280.7,37 Z M1286.5,37 C1285.6,37 1284.8,37.743 1284.8,38.66 C1284.8,39.577 1285.6,40.32 1286.5,40.32 C1287.4,40.32 1288.1,39.577 1288.1,38.66 C1288.1,37.743 1287.4,37 1286.5,37 Z M1290.6,38.66 C1290.6,37.743 1291.4,37 1292.3,37 C1293.2,37 1294,37.743 1294,38.66 C1294,39.577 1293.2,40.32 1292.3,40.32 C1291.4,40.32 1290.6,39.577 1290.6,38.66 Z" id="Shape"></path>
            </g>
        </g>
    </g>
</svg>