<svg id="animationLogo" class="animationLogo animationLogoBegin" enable-background="new 0 0 198.8 198.2" version="1.1" viewBox="0 0 198.8 198.2" xml:space="preserve" xmlns="http://www.w3.org/2000/svg">
  <style type="text/css">
    .st0 {
      fill: #2D7EAB;
    }

    .st1 {
      opacity: 0.7;
      fill: #76cdd5;
      //fill: url(#SVGID_1_);
      enable-background: new;
    }

    .st2 {
      fill: #76cdd5;
      //fill: url(#SVGID_2_);
    }

    .st3 {
      opacity: 0.2;
      fill: #76cdd5;
      //fill: url(#SVGID_3_);
      enable-background: new;
    }

    .st4 {
      opacity: 0.5;
      fill: #76cdd5;
      //fill: url(#SVGID_4_);
      enable-background: new;
    }

    .st5 {
      fill: #67FBFB;
    }

    .st6 {
      opacity: 0.3;
    }

    .arcDash1 {
      fill: #76cdd5;
    }

    .arcDash2 {
      fill: #76cdd5;
    }

    .arcDash3 {
      fill: #76cdd5;
    }

    .arcDash4 {
      fill: #76cdd5;
    }

    .arcDash5 {
      fill: #76cdd5;
    }

    .arcDash6 {
      fill: #76cdd5;
    }

    .arcDash7 {
      fill: #76cdd5;
    }

    .arcDash8 {
      fill: #76cdd5;
    }

    .outerCircle {
      fill: #76cdd5;
      //fill: url(#SVGID_outerCircle);
    }
  </style>
  <g class="innerRounds">
    
      <path class="st0" d="m99.3 137.7v-2.3h0.9l0.1 2.3h-1zm10.8-1.5-0.6-2.2c1-0.3 2.1-0.6 3.1-1l0.8 2.2c-1.1 0.3-2.2 0.7-3.3 1zm11.9-5.9-1.4-1.9c0.9-0.6 1.7-1.3 2.5-2l1.5 1.8c-0.7 0.7-1.7 1.5-2.6 2.1zm9.3-9.5-1.9-1.3c0.6-0.9 1.2-1.8 1.7-2.7l2 1.1c-0.6 0.9-1.2 1.9-1.8 2.9zm5.5-12.2-2.3-0.6c0.3-1 0.5-2.1 0.7-3.2l2.3 0.4c-0.2 1.2-0.4 2.3-0.7 3.4z"/>
    
    
      
      <path class="st1" d="m97.3 133.9 0.2 5.2c-10-0.4-19.4-4.6-26.5-11.7-7-7-11.1-16.1-11.7-26l5.2 0.2c1.3 17.4 15.4 31.3 32.8 32.3z"/>
    
    

      
      <path class="st2" d="m97.7 57.1-0.1 1.9-0.2 5.2-0.1 1.9c-16.6 1-29.9 14.4-30.8 31.1l-1.9 0.1-5.2 0.2-1.9 0.1c0.4-10.7 4.7-20.7 12.3-28.2 7.4-7.5 17.3-11.9 27.9-12.3z"/>
    
    

      
      <path class="st3" d="m137.9 97.5-2.3-0.1c-0.2-5-1.5-9.7-3.5-14-5.5-11.6-17-19.8-30.5-20.6l-0.1-2.3c9.5 0.5 18.4 4.5 25.1 11.3 3.2 3.2 5.7 6.8 7.6 10.7 2.3 4.6 3.5 9.7 3.7 15z"/>
    
    

      
      <path class="st4" d="m135.7 81.7-1.5 0.7-2.1 1-1.5 0.7c-5.4-11.3-16.6-18.8-28.9-19.6l-0.1-1.7-0.1-2.3-0.1-1.7c7 0.4 13.8 2.5 19.7 6.3 6.3 4.1 11.4 9.8 14.6 16.6z"/>
    
    
      
        <path class="st5" d="m116.5 97.5c-0.7-8.1-7-14.6-15-15.6l-2-43.7-2 43.7c-8.2 0.8-14.6 7.4-15.4 15.6l-43.9 2 44 2c1.1 7.8 7.4 13.9 15.3 14.8l2 44.5 2-44.6c7.7-1 13.9-7 14.9-14.7l44.3-2-44.2-2zm-17.2 14.6c-7.2 0-13.1-5.9-13.1-13.1s5.9-13.1 13.1-13.1 13.1 5.9 13.1 13.1c0 7.3-5.8 13.1-13.1 13.1z"/>
      
      
        
          <path class="st5" d="m100.5 160.8h-2l-1.9-43.7c-3.7-0.6-7.2-2.3-9.9-4.9s-4.6-6.1-5.2-9.8l-43.2-1.9v-2l43.1-1.9c1.1-8 7.3-14.3 15.3-15.5l1.9-42.9h2l1.9 42.9c7.8 1.3 13.9 7.7 15 15.5l43.4 1.9v2l-43.6 1.9c-1.4 7.5-7.3 13.3-14.8 14.6l-2 43.8zm-40.3-61.3 23 1 0.1 0.8c1 7.4 7 13.1 14.4 13.9l0.8 0.1 1 23.2 1-23.3 0.8-0.1c7.3-0.9 13.1-6.6 14.1-13.9l0.1-0.8 23.2-1-23.1-1-0.1-0.9c-0.7-7.6-6.6-13.7-14.2-14.7l-0.8-0.1-1-22.8-1 22.8-0.8 0.1c-7.7 0.8-13.8 7-14.5 14.7l-0.1 0.9-22.9 1.1zm39.1 13.6c-7.7 0-14.1-6.3-14.1-14.1 0-7.7 6.3-14.1 14.1-14.1 7.7 0 14.1 6.3 14.1 14.1s-6.3 14.1-14.1 14.1zm0-26.1c-6.7 0-12.1 5.4-12.1 12.1s5.4 12.1 12.1 12.1 12.1-5.4 12.1-12.1-5.4-12.1-12.1-12.1z"/>
        
      
    
    <g class="st6">
      <path class="st5" d="m99.7 166.6c-8.8 0-17.3-1.7-25.4-4.9-8.4-3.4-15.9-8.4-22.3-14.8s-11.4-14-14.8-22.3c-3.3-8.1-4.9-16.6-4.9-25.4s1.7-17.3 4.9-25.4c3.4-8.4 8.4-15.9 14.8-22.3s14-11.4 22.3-14.8c8.1-3.3 16.6-4.9 25.4-4.9s17.3 1.7 25.4 4.9c8.4 3.4 15.9 8.4 22.3 14.8s11.4 14 14.8 22.3c3.3 8.1 4.9 16.6 4.9 25.4s-1.7 17.3-4.9 25.4c-3.4 8.4-8.4 15.9-14.8 22.3s-14 11.4-22.3 14.8c-8.1 3.2-16.6 4.9-25.4 4.9zm0-134c-17 0-34.1 6.5-47.1 19.5-12.6 12.6-19.5 29.3-19.5 47.1s6.9 34.5 19.5 47.1 29.3 19.5 47.1 19.5 34.5-6.9 47.1-19.5 19.5-29.3 19.5-47.1-6.9-34.5-19.5-47.1c-13-13.1-30.1-19.5-47.1-19.5z"/>
    </g>
  </g>
  <g class="outerRounds">
    <polygon class="arcDash1" points="97.7 20.1 100.4 0 101.7 20.2"/>
    <polygon class="arcDash2" points="43 45.7 30.3 30.2 45.7 42.9"/>
    <polygon class="arcDash3" points="21.1 101.1 1 98.4 21.3 97.1"/>
    <polygon class="arcDash4" points="30.3 168.7 43.3 152.9 46.1 155.7"/>
    <polygon class="arcDash5" points="101.7 178.1 99 198.2 97.7 177.9"/>
    <polygon class="arcDash6" points="155.5 152.7 168.8 168.7 152.8 155.5"/>
    <polygon class="arcDash7" points="178.7 97.1 198.8 99.8 178.5 101.1"/>
    <polygon class="arcDash8" points="154.6 42.6 170.7 30.2 157.3 45.5"/>
    

      
      <path class="outerCircle" d="m99.7 178.2c-10.3 0-20.3-1.9-29.8-5.8-9.8-4-18.6-9.8-26.2-17.4s-13.4-16.4-17.4-26.2c-3.8-9.5-5.8-19.5-5.8-29.8s1.9-20.3 5.8-29.8c4-9.8 9.8-18.6 17.4-26.2s16.4-13.4 26.2-17.4c9.5-3.8 19.5-5.8 29.8-5.8s20.3 1.9 29.8 5.8c9.8 4 18.6 9.8 26.2 17.4s13.4 16.4 17.4 26.2c3.8 9.5 5.8 19.5 5.8 29.8s-1.9 20.3-5.8 29.8c-4 9.8-9.8 18.6-17.4 26.2l-1.2-1.2 1.2 1.2c-7.6 7.6-16.4 13.4-26.2 17.4-9.5 3.9-19.5 5.8-29.8 5.8zm0-154.9c-20.2 0-39.3 7.9-53.6 22.2s-22.2 33.4-22.2 53.6 7.9 39.3 22.2 53.6 33.4 22.2 53.6 22.2 39.3-7.9 53.6-22.2 22.2-33.4 22.2-53.6-7.9-39.3-22.2-53.6-33.4-22.2-53.6-22.2z"/>
    
  </g>
</svg>
