<?xml version="1.0" encoding="utf-8"?>
<!-- Generator: Adobe Illustrator 24.1.3, SVG Export Plug-In . SVG Version: 6.00 Build 0)  -->
<svg version="1.1" id="Layer_1" xmlns="http://www.w3.org/2000/svg" xmlns:xlink="http://www.w3.org/1999/xlink" x="0px" y="0px"
	 viewBox="0 0 413.5 95" style="enable-background:new 0 0 413.5 95;" xml:space="preserve">
<style type="text/css">
	.st0{fill:#FFFFFF;}
	.st1{fill:#EA7200;}
	.st2{fill:#555759;}
</style>
<path class="st0" d="M95,47.5C95,73.7,73.7,95,47.5,95C21.3,95,0,73.7,0,47.5S21.3,0,47.5,0C73.7,0,95,21.3,95,47.5"/>
<path class="st1" d="M67,63.6c1.7,0.7,3.7,0.7,5.4-0.1c1.7-0.7,3.1-2.1,3.8-3.9c0.7-1.7,0.7-3.7-0.1-5.4c-0.7-1.7-2.1-3.1-3.9-3.8
	c-0.8-0.3-1.7-0.5-2.6-0.5c-0.9,0-1.9,0.2-2.8,0.6c-1.7,0.7-3.1,2.1-3.8,3.9h0c-0.7,1.7-0.7,3.7,0.1,5.4
	C63.9,61.6,65.3,62.9,67,63.6"/>
<path class="st1" d="M82.8,15.7L34.2,36.6c0.6,1.9,0.6,4-0.2,6c-0.9,2.2-2.5,3.9-4.7,4.8c-1.1,0.5-2.3,0.7-3.5,0.7
	c-1.1,0-2.2-0.2-3.3-0.6c-2.2-0.9-3.9-2.5-4.8-4.7c-0.9-2.2-1-4.6-0.1-6.8c0.9-2.2,2.5-3.9,4.7-4.8c2.2-0.9,4.6-1,6.8-0.1
	c1.9,0.8,3.5,2.2,4.5,3.9l48-20.6C77,9.8,71.5,6,65.1,3.4c-24.3-9.7-52,2.1-61.7,26.5c-7.1,17.9-2.6,37.5,9.9,50.5l48-20.6
	c-0.6-1.9-0.6-4,0.2-6c0.9-2.2,2.5-3.9,4.7-4.8c2.2-0.9,4.6-1,6.8-0.1c2.2,0.9,3.9,2.5,4.8,4.7c0.9,2.2,1,4.6,0.1,6.8
	c-0.9,2.2-2.5,3.9-4.7,4.8c-1.1,0.5-2.3,0.7-3.5,0.7c-1.1,0-2.2-0.2-3.3-0.6c-1.9-0.8-3.5-2.2-4.5-3.9L14.5,81.7
	c4.3,4.1,9.5,7.6,15.3,9.9c24.3,9.7,52-2.1,61.7-26.5C98.5,47.7,94.5,28.8,82.8,15.7"/>
<path class="st1" d="M28.4,32.7c-0.8-0.3-1.7-0.5-2.6-0.5c-0.9,0-1.9,0.2-2.8,0.6c-1.7,0.7-3.1,2.1-3.8,3.9
	c-0.7,1.7-0.7,3.7,0.1,5.4s2.1,3.1,3.9,3.8c1.7,0.7,3.7,0.7,5.4-0.1c1.7-0.7,3.1-2.1,3.8-3.9c0.7-1.7,0.7-3.7-0.1-5.4
	C31.5,34.8,30.2,33.4,28.4,32.7"/>
<g>
	<path class="st2" d="M124.2,38.9c0-1.5,0.8-2.3,2.2-2.3h1.9c1.5,0,2.2,0.8,2.2,2.3v3.1c0,1-0.2,2-0.2,2h0.1c1.3-3,5.4-8.2,12.8-8.2
		c8,0,11.6,4.5,11.6,13.4v20.1c0,1.5-0.7,2.3-2.2,2.3h-2.1c-1.4,0-2.2-0.8-2.2-2.3V50.8c0-4.9-0.9-8.8-6.4-8.8
		c-6.6,0-11.3,5.7-11.3,12.9v14.4c0,1.5-0.7,2.3-2.2,2.3h-2.1c-1.4,0-2.2-0.8-2.2-2.3L124.2,38.9L124.2,38.9z"/>
	<path class="st2" d="M163.6,42.5h-2.1c-1.4,0-2.2-0.8-2.2-2.3v-0.9c0-1.5,0.8-2.3,2.2-2.3h2.1v-1.7c0-11.1,8.8-12.9,12.2-12.9h0.8
		c1.5,0,2.2,0.8,2.2,2.3v1.3c0,1.5-0.8,2.1-2.3,2.3c-2.5,0.1-6.4,0.8-6.4,7.3V37h5.8c1.4,0,2.2,0.8,2.2,2.3v0.9
		c0,1.5-0.8,2.3-2.2,2.3h-5.8v26.9c0,1.5-0.7,2.3-2.2,2.3h-2.1c-1.4,0-2.2-0.8-2.2-2.3V42.5z"/>
	<path class="st2" d="M197.5,35.8c10.1,0,18.3,7.7,18.3,18.2c0,10.6-8.2,18.4-18.3,18.4s-18.2-7.7-18.2-18.4
		C179.3,43.5,187.4,35.8,197.5,35.8 M197.5,66.7c6.4,0,11.6-5.3,11.6-12.6c0-7.3-5.2-12.4-11.6-12.4c-6.4,0-11.6,5.2-11.6,12.4
		C185.8,61.4,191.1,66.7,197.5,66.7"/>
	<path class="st2" d="M219.8,65.5l0.7-1c0.9-1.2,1.7-1.2,3.1-0.5c1.5,1,4.3,2.8,8.3,2.8c3.3,0,5.8-1.7,5.8-4.6
		c0-6.8-17.5-4.6-17.5-16.4c0-6.6,5.6-10.1,12.2-10.1c4.7,0,7.8,1.7,9.4,2.7c1.2,0.6,1.4,1.8,0.7,3l-0.6,1c-0.7,1.2-1.7,1.4-2.9,0.8
		c-1.4-0.8-3.7-2-6.9-2c-3.2,0-5.7,1.5-5.7,4.4c0,7,17.5,4.5,17.5,16.4c0,5.9-4.9,10.3-12.2,10.3c-5.6,0-9.5-2.3-11.4-3.8
		C219.1,67.9,219,66.7,219.8,65.5"/>
	<path class="st2" d="M251.2,42.5h-2.3c-1.4,0-2.1-0.8-2.1-2.3v-0.9c0-1.5,0.7-2.3,2.2-2.3h2.4v-7.7c0-1.5,0.8-2.3,2.2-2.3h1.9
		c1.5,0,2.2,0.8,2.2,2.3V37h5.9c1.5,0,2.2,0.8,2.2,2.3v0.9c0,1.5-0.7,2.3-2.1,2.3h-6V58c0,6.6,3.9,7.7,6.4,7.9
		c1.7,0.1,2.3,0.7,2.3,2.3v1.5c0,1.6-0.9,2.3-2.7,2.3c-6.7,0-12.6-4-12.6-12.9L251.2,42.5L251.2,42.5z"/>
	<path class="st2" d="M271.1,38.9c0-1.5,0.8-2.3,2.2-2.3h1.9c1.5,0,2.2,0.8,2.2,2.3v4c0,1.5-0.2,2.6-0.2,2.6h0.1
		c1.5-4.6,5.3-9.2,10.4-9.2c1.5,0,2.1,0.8,2.1,2.3v1.9c0,1.5-0.9,2.3-2.4,2.3c-6.6,0-9.8,7.4-9.8,14.3v12.2c0,1.5-0.7,2.3-2.2,2.3
		h-2.1c-1.4,0-2.2-0.8-2.2-2.3L271.1,38.9L271.1,38.9z"/>
	<path class="st2" d="M307.3,35.8c9.4,0,14.6,6.9,14.6,16.7c0,1.2-0.9,2.3-2.3,2.3H297c0.4,7.6,5.7,11.8,11.7,11.8
		c3.7,0,6.6-1.6,8.1-2.8c1.3-0.7,2.3-0.6,3,0.8l0.6,1c0.7,1.2,0.5,2.3-0.7,3c-2,1.5-6,3.7-11.4,3.7c-10.6,0-17.9-7.9-17.9-18.3
		C290.4,43,297.7,35.8,307.3,35.8 M315.4,50.4c-0.2-6.2-3.7-9.3-8.2-9.3c-4.9,0-9,3.5-9.9,9.3H315.4z"/>
	<path class="st2" d="M329.1,42.5h-2.3c-1.4,0-2.1-0.8-2.1-2.3v-0.9c0-1.5,0.7-2.3,2.2-2.3h2.4v-7.7c0-1.5,0.8-2.3,2.2-2.3h1.9
		c1.5,0,2.2,0.8,2.2,2.3V37h5.9c1.5,0,2.2,0.8,2.2,2.3v0.9c0,1.5-0.7,2.3-2.1,2.3h-6V58c0,6.6,3.9,7.7,6.4,7.9
		c1.7,0.1,2.3,0.7,2.3,2.3v1.5c0,1.6-0.9,2.3-2.7,2.3c-6.7,0-12.6-4-12.6-12.9L329.1,42.5L329.1,42.5z"/>
	<path class="st2" d="M364.5,35.8c5.7,0,9.4,2.3,11.2,3.7c1.1,0.8,1.2,1.9,0.4,3.1l-0.7,1c-0.8,1.2-1.7,1.3-3,0.6
		c-1.4-1-4-2.6-7.6-2.6c-6.8,0-11.8,5.3-11.8,12.4c0,7.1,5,12.6,11.9,12.6c4.1,0,7-1.9,8.6-3.2c1.2-0.8,2.2-0.7,3,0.6l0.5,1
		c0.7,1.2,0.5,2.3-0.6,3c-1.9,1.6-6,4.3-12,4.3c-10.6,0-18.1-7.8-18.1-18.3C346.5,43.8,354,35.8,364.5,35.8"/>
	<path class="st2" d="M382.9,25.1c0-1.5,0.7-2.3,2.2-2.3h2.1c1.4,0,2.1,0.8,2.1,2.3v15.8c0,1.7-0.2,2.9-0.2,2.9h0.1
		c1.5-3.4,5.9-8,12.6-8c8,0,11.6,4.5,11.6,13.4v20.1c0,1.5-0.8,2.3-2.2,2.3h-2.1c-1.5,0-2.2-0.8-2.2-2.3V50.8c0-4.9-1-8.8-6.4-8.8
		c-6.5,0-11.3,5.5-11.3,13.1v14.3c0,1.5-0.7,2.3-2.1,2.3h-2.1c-1.5,0-2.2-0.8-2.2-2.3L382.9,25.1L382.9,25.1z"/>
	<path class="st2" d="M109.7,38.8c0-1.5,0.8-2.3,2.2-2.3h2.1c1.5,0,2.2,0.8,2.2,2.3v30.4c0,1.5-0.7,2.3-2.2,2.3h-2.1
		c-1.4,0-2.2-0.8-2.2-2.3V38.8z M109.6,27.3V25c0-1.5,0.7-2.3,2.2-2.3h2.3c1.4,0,2.2,0.8,2.2,2.3v2.3c0,1.5-0.8,2.3-2.2,2.3h-2.3
		C110.3,29.5,109.6,28.7,109.6,27.3"/>
</g>
</svg>
