<?xml version="1.0" encoding="utf-8"?>
<!-- Generator: Adobe Illustrator 24.1.0, SVG Export Plug-In . SVG Version: 6.00 Build 0)  -->
<svg version="1.1" id="Layer_1" xmlns="http://www.w3.org/2000/svg" xmlns:xlink="http://www.w3.org/1999/xlink" x="0px" y="0px"
	 viewBox="0 0 34.3 54.4" style="enable-background:new 0 0 34.3 54.4;" xml:space="preserve">
<style type="text/css">
	.st0{fill:#00C1FF;}
</style>
<g>
	<path class="st0" d="M6.4,54.4c2.3-4.6,4.6-9.2,6.9-13.7c1.2-2.3,2.4-4.6,3.6-6.8l3.6-6.8v0.4l-3.6-6.8c-1.2-2.3-2.4-4.5-3.6-6.8
		l-3.5-7C8.7,4.6,7.5,2.3,6.4,0c1.3,2.2,2.5,4.5,3.8,6.7l3.7,6.7c1.2,2.2,2.4,4.5,3.7,6.8l3.6,6.8l0.1,0.2l-0.1,0.2l-3.6,6.8
		c-1.2,2.3-2.4,4.5-3.7,6.8C11.4,45.4,9,49.9,6.4,54.4z"/>
	<polygon class="st0" points="34.3,27.2 33.9,27.6 33,28.5 13.1,48.4 24.4,27.2 13.1,5.9 	"/>
	<polygon class="st0" points="0,27.2 1.5,27.1 1.5,27.3 	"/>
	<polygon class="st0" points="5.1,27 8,26.9 8,27.6 5.1,27.5 	"/>
	<polygon class="st0" points="11.6,26.8 14.5,26.7 14.5,27.8 11.6,27.7 	"/>
</g>
</svg>
