<?xml version="1.0" encoding="utf-8"?>
<!-- Generator: Adobe Illustrator 24.1.0, SVG Export Plug-In . SVG Version: 6.00 Build 0)  -->
<svg version="1.1" id="Layer_1" xmlns="http://www.w3.org/2000/svg" xmlns:xlink="http://www.w3.org/1999/xlink" x="0px" y="0px"
	 viewBox="0 0 34.3 54.4" style="enable-background:new 0 0 34.3 54.4;" xml:space="preserve">
<style type="text/css">
	.st0{fill:#00C1FF;}
</style>
<g>
	<path class="st0" d="M27.9,0c-2.3,4.6-4.6,9.2-6.9,13.7c-1.2,2.3-2.4,4.6-3.6,6.8l-3.6,6.8v-0.4l3.6,6.8c1.2,2.3,2.4,4.5,3.6,6.8
		l3.5,7c1.1,2.3,2.3,4.6,3.4,6.9c-1.3-2.2-2.5-4.5-3.8-6.7L20.4,41c-1.2-2.2-2.4-4.5-3.7-6.8l-3.6-6.8L13,27.2l0.1-0.2l3.6-6.8
		c1.2-2.3,2.4-4.5,3.7-6.8C22.9,9,25.3,4.5,27.9,0z"/>
	<polygon class="st0" points="0,27.2 0.4,26.8 1.3,25.9 21.2,6 9.9,27.2 21.2,48.5 	"/>
	<polygon class="st0" points="34.3,27.2 32.8,27.3 32.8,27.1 	"/>
	<polygon class="st0" points="29.2,27.4 26.3,27.5 26.3,26.8 29.2,26.9 	"/>
	<polygon class="st0" points="22.7,27.6 19.8,27.7 19.8,26.6 22.7,26.7 	"/>
</g>
</svg>
