<?xml version="1.0" encoding="utf-8"?>
<!-- Generator: Adobe Illustrator 24.3.0, SVG Export Plug-In . SVG Version: 6.00 Build 0)  -->
<svg version="1.1" id="Layer_1" xmlns="http://www.w3.org/2000/svg" xmlns:xlink="http://www.w3.org/1999/xlink" x="0px" y="0px"
	 viewBox="0 0 31 34" style="enable-background:new 0 0 31 34;" xml:space="preserve">
<style type="text/css">
	.st0{fill:#FFFFFF;}
</style>
<g>
	<path class="st0" d="M8.7,34H3.2c-0.3,0-0.5-0.2-0.5-0.5L2,22.8H1.9c-0.5,0-1-0.2-1.4-0.6c-0.4-0.5-0.6-1.1-0.5-1.7l0.9-8.2
		C1.1,10.4,2.6,9,4.3,9h3.3c1.7,0,3.2,1.4,3.4,3.2l0.9,8.2c0.1,0.6-0.1,1.3-0.5,1.7c-0.4,0.4-0.9,0.6-1.4,0.6H10L9.2,33.5
		C9.2,33.8,9,34,8.7,34z M3.7,33h4.6l0.8-10.7c0-0.3,0.2-0.5,0.5-0.5h0.5c0.2,0,0.5-0.1,0.6-0.3c0.2-0.2,0.3-0.6,0.3-0.9l-0.9-8.2
		C9.9,11,8.9,10,7.6,10H4.3c-1.2,0-2.3,1-2.4,2.4L1,20.6c0,0.4,0.1,0.7,0.3,0.9c0.2,0.2,0.4,0.3,0.6,0.3h0.5c0.3,0,0.5,0.2,0.5,0.5
		L3.7,33z M6,8C3.8,8,2,6.2,2,4s1.8-4,4-4s4,1.8,4,4S8.2,8,6,8z M6,1C4.3,1,3,2.3,3,4s1.3,3,3,3s3-1.3,3-3S7.7,1,6,1z"/>
</g>
<g>
	<path class="st0" d="M30.5,21h-5c-0.3,0-0.5-0.2-0.5-0.5v-13C25,7.2,25.2,7,25.5,7h5C30.8,7,31,7.2,31,7.5v13
		C31,20.8,30.8,21,30.5,21z M26,20h4V8h-4V20z"/>
</g>
<g>
	<path class="st0" d="M23.5,21h-5c-0.3,0-0.5-0.2-0.5-0.5v-11C18,9.2,18.2,9,18.5,9h5C23.8,9,24,9.2,24,9.5v11
		C24,20.8,23.8,21,23.5,21z M19,20h4V10h-4V20z"/>
</g>
<g>
	<path class="st0" d="M16.5,21H15c-0.3,0-0.5-0.2-0.5-0.5S14.8,20,15,20H16v-5h-1.5c-0.3,0-0.5-0.2-0.5-0.5s0.2-0.5,0.5-0.5h2
		c0.3,0,0.5,0.2,0.5,0.5v6C17,20.8,16.8,21,16.5,21z"/>
</g>
</svg>
