<?xml version="1.0" encoding="utf-8"?>
<!-- Generator: Adobe Illustrator 24.1.2, SVG Export Plug-In . SVG Version: 6.00 Build 0)  -->
<svg version="1.1" id="Layer_1" xmlns="http://www.w3.org/2000/svg" xmlns:xlink="http://www.w3.org/1999/xlink" x="0px" y="0px"
	 viewBox="0 0 65 90" style="enable-background:new 0 0 65 90;" xml:space="preserve">
<g>
	<path style="fill:#24FF00;" d="M20.4,81.3c0,1.3-0.2,2.5-0.6,3.5s-1,2-1.7,2.7s-1.6,1.3-2.7,1.7s-2.2,0.7-3.5,0.7H5.4V72.7h6.4
		c1.3,0,2.4,0.2,3.5,0.6s1.9,1,2.7,1.8s1.3,1.7,1.7,2.7C20.1,78.9,20.4,80.1,20.4,81.3L20.4,81.3z M18,81.3c0-1.1-0.1-2-0.4-2.8
		s-0.7-1.5-1.2-2.1s-1.2-1-1.9-1.3c-0.8-0.3-1.6-0.5-2.5-0.5H7.8V88h4.1c0.9,0,1.8-0.2,2.5-0.5c0.8-0.3,1.4-0.7,1.9-1.3
		s0.9-1.3,1.2-2.1S18,82.4,18,81.3z"/>
	<path style="fill:#24FF00;" d="M28,77.6c0.9,0,1.7,0.1,2.4,0.4s1.3,0.7,1.8,1.3c0.5,0.6,0.9,1.2,1.2,2s0.4,1.6,0.4,2.6
		s-0.1,1.8-0.4,2.6s-0.7,1.4-1.2,2c-0.5,0.6-1.1,1-1.8,1.3s-1.5,0.4-2.4,0.4s-1.7-0.1-2.4-0.4s-1.3-0.7-1.8-1.3
		c-0.5-0.5-0.9-1.2-1.2-2s-0.4-1.6-0.4-2.6s0.1-1.8,0.4-2.6s0.7-1.4,1.2-2c0.5-0.5,1.1-1,1.8-1.3S27.1,77.6,28,77.6z M28,88.4
		c1.2,0,2.1-0.4,2.7-1.2s0.9-1.9,0.9-3.4c0-1.4-0.3-2.6-0.9-3.4s-1.5-1.2-2.7-1.2c-0.6,0-1.1,0.1-1.6,0.3s-0.8,0.5-1.1,0.9
		s-0.5,0.9-0.7,1.4c-0.1,0.6-0.2,1.2-0.2,1.9s0.1,1.4,0.2,1.9c0.1,0.6,0.4,1,0.7,1.4s0.7,0.7,1.1,0.9S27.4,88.4,28,88.4L28,88.4z"/>
	<path style="fill:#24FF00;" d="M36.5,89.9V77.8h1.3c0.3,0,0.5,0.1,0.6,0.4l0.2,1.3c0.5-0.6,1.1-1.1,1.8-1.4
		c0.7-0.4,1.4-0.5,2.3-0.5c0.7,0,1.2,0.1,1.8,0.3c0.5,0.2,0.9,0.5,1.3,0.9s0.6,0.9,0.8,1.5s0.3,1.2,0.3,1.9v7.7h-2.1v-7.7
		c0-0.9-0.2-1.6-0.6-2.1s-1.1-0.8-1.9-0.8c-0.6,0-1.2,0.2-1.8,0.5C40,80.1,39.4,80.5,39,81v9h-2.5L36.5,89.9z"/>
	<path style="fill:#24FF00;" d="M54.6,77.6c0.7,0,1.4,0.1,2,0.4s1.1,0.6,1.6,1.1s0.8,1,1,1.7c0.3,0.7,0.4,1.4,0.4,2.3
		c0,0.3,0,0.6-0.1,0.7s-0.2,0.1-0.4,0.1h-8c0,0.8,0.1,1.4,0.3,2s0.5,1,0.8,1.4s0.7,0.7,1.2,0.9s1,0.3,1.6,0.3c0.5,0,1-0.1,1.4-0.2
		s0.7-0.3,1-0.4s0.5-0.3,0.7-0.4s0.3-0.2,0.5-0.2s0.3,0.1,0.4,0.2l0.6,0.8c-0.3,0.3-0.6,0.6-0.9,0.8s-0.8,0.4-1.2,0.6
		s-1,0.2-1.4,0.3s-0.9,0.1-1.3,0.1c-0.8,0-1.6-0.1-2.3-0.4s-1.3-0.7-1.8-1.2s-0.9-1.2-1.2-2s-0.4-1.7-0.4-2.8c0-0.8,0.1-1.6,0.4-2.4
		c0.3-0.7,0.6-1.4,1.1-1.9s1.1-1,1.8-1.3C52.9,77.7,53.7,77.6,54.6,77.6z M54.7,79.2c-1,0-1.8,0.3-2.4,0.9s-1,1.4-1.1,2.5h6.6
		c0-0.5-0.1-1-0.2-1.4s-0.3-0.8-0.6-1.1s-0.6-0.5-1-0.7S55.2,79.2,54.7,79.2z"/>
</g>
<path style="fill:#24FF00;" d="M32.5,64.6c-17.6,0-31.9-14.3-31.9-31.8S14.9,0.9,32.5,0.9s31.9,14.3,31.9,31.9S50.1,64.6,32.5,64.6z
	 M32.5,2.9C16,2.9,2.6,16.3,2.6,32.8S16,62.7,32.5,62.7s29.9-13.4,29.9-29.9S48.9,2.9,32.5,2.9z"/>
<path style="fill:#24FF00;" d="M24.8,47.5l-10.7-7.6l1.2-1.6l8.8,6.2C33,27.6,42.8,21.3,47.6,18.2c0.9-0.6,1.7-1.1,2.2-1.5l1.2,1.6
	c-0.6,0.5-1.4,1-2.3,1.6c-5.1,3.3-14.5,9.3-23.3,26.5C25.4,46.4,24.8,47.5,24.8,47.5z"/>
</svg>
