<?xml version="1.0" encoding="utf-8"?>
<!-- Generator: Adobe Illustrator 24.2.0, SVG Export Plug-In . SVG Version: 6.00 Build 0)  -->
<svg version="1.1" id="Layer_1" xmlns="http://www.w3.org/2000/svg" xmlns:xlink="http://www.w3.org/1999/xlink" x="0px" y="0px"
	 viewBox="0 0 109.3 85.2" style="enable-background:new 0 0 109.3 85.2;" xml:space="preserve">
<style type="text/css">
	.st0{enable-background:new    ;}
	.st1{fill:#FFBB15;}
</style>
<g>
	<g class="st0">
		<path class="st1" d="M13.9,75.4c0,1-0.2,1.9-0.5,2.7c-0.3,0.8-0.8,1.5-1.3,2.1c-0.6,0.6-1.3,1-2.1,1.4C9.2,81.8,8.3,82,7.4,82
			s-1.9-0.2-2.7-0.5c-0.8-0.3-1.5-0.8-2.1-1.4c-0.6-0.6-1-1.3-1.3-2.1c-0.3-0.8-0.5-1.7-0.5-2.7c0-1,0.2-1.9,0.5-2.7
			c0.3-0.8,0.8-1.5,1.3-2.1c0.6-0.6,1.3-1,2.1-1.4s1.7-0.5,2.7-0.5S9.2,69,10,69.3s1.5,0.8,2.1,1.4c0.6,0.6,1,1.3,1.3,2.1
			C13.8,73.6,13.9,74.5,13.9,75.4z M12.1,75.4c0-0.8-0.1-1.5-0.3-2.1c-0.2-0.6-0.5-1.2-0.9-1.6s-0.9-0.8-1.5-1s-1.2-0.4-1.9-0.4
			c-0.7,0-1.4,0.1-1.9,0.4c-0.6,0.2-1.1,0.6-1.5,1s-0.7,1-0.9,1.6c-0.2,0.6-0.3,1.3-0.3,2.1s0.1,1.5,0.3,2.1s0.5,1.2,0.9,1.6
			c0.4,0.4,0.9,0.8,1.5,1c0.6,0.2,1.2,0.3,1.9,0.3c0.7,0,1.4-0.1,1.9-0.3c0.6-0.2,1.1-0.6,1.5-1c0.4-0.4,0.7-1,0.9-1.6
			C12,76.9,12.1,76.2,12.1,75.4z"/>
		<path class="st1" d="M16.2,81.9V68.6h1.7v5.5c0.4-0.4,0.8-0.8,1.3-1.1c0.5-0.3,1.1-0.4,1.7-0.4c0.5,0,1,0.1,1.5,0.3
			c0.4,0.2,0.8,0.5,1.1,0.9c0.3,0.4,0.5,0.9,0.7,1.5c0.2,0.6,0.2,1.2,0.2,2c0,0.7-0.1,1.3-0.3,1.9c-0.2,0.6-0.5,1.1-0.8,1.5
			c-0.3,0.4-0.8,0.8-1.3,1C21.6,81.9,21,82,20.4,82c-0.6,0-1.1-0.1-1.5-0.3c-0.4-0.2-0.8-0.5-1.1-1l-0.1,0.8c0,0.2-0.2,0.3-0.4,0.3
			H16.2z M20.3,73.9c-0.5,0-1,0.1-1.4,0.4c-0.4,0.2-0.8,0.6-1.1,1v4.4c0.3,0.4,0.6,0.7,1,0.8c0.4,0.2,0.8,0.2,1.2,0.2
			c0.9,0,1.5-0.3,2-0.9s0.7-1.5,0.7-2.6c0-0.6-0.1-1.1-0.2-1.5s-0.3-0.8-0.5-1c-0.2-0.3-0.5-0.5-0.7-0.6
			C21,73.9,20.7,73.9,20.3,73.9z"/>
		<path class="st1" d="M31.8,74.3c-0.1,0.1-0.2,0.2-0.3,0.2c-0.1,0-0.2,0-0.3-0.1c-0.1-0.1-0.3-0.1-0.4-0.2
			c-0.2-0.1-0.4-0.2-0.6-0.2c-0.2-0.1-0.5-0.1-0.8-0.1c-0.3,0-0.5,0-0.7,0.1s-0.4,0.2-0.6,0.3c-0.2,0.1-0.3,0.3-0.4,0.4
			c-0.1,0.2-0.1,0.3-0.1,0.5c0,0.2,0.1,0.4,0.2,0.6c0.1,0.2,0.3,0.3,0.5,0.4c0.2,0.1,0.5,0.2,0.8,0.3c0.3,0.1,0.6,0.2,0.9,0.3
			s0.6,0.2,0.9,0.3c0.3,0.1,0.5,0.3,0.8,0.5c0.2,0.2,0.4,0.4,0.5,0.7c0.1,0.3,0.2,0.6,0.2,0.9c0,0.4-0.1,0.8-0.2,1.2
			c-0.2,0.4-0.4,0.7-0.7,0.9c-0.3,0.3-0.7,0.5-1.1,0.6c-0.4,0.1-0.9,0.2-1.5,0.2c-0.7,0-1.2-0.1-1.8-0.3c-0.5-0.2-1-0.5-1.3-0.8
			l0.4-0.6c0-0.1,0.1-0.1,0.2-0.2c0.1,0,0.2-0.1,0.3-0.1s0.2,0,0.4,0.1c0.1,0.1,0.3,0.2,0.4,0.3c0.2,0.1,0.4,0.2,0.6,0.3
			s0.6,0.1,0.9,0.1c0.3,0,0.6,0,0.8-0.1s0.4-0.2,0.6-0.3c0.2-0.1,0.3-0.3,0.4-0.5s0.1-0.4,0.1-0.6c0-0.3-0.1-0.5-0.2-0.6
			c-0.1-0.2-0.3-0.3-0.6-0.4s-0.5-0.2-0.8-0.3c-0.3-0.1-0.6-0.2-0.9-0.3c-0.3-0.1-0.6-0.2-0.9-0.3c-0.3-0.1-0.6-0.3-0.8-0.5
			s-0.4-0.4-0.5-0.7c-0.1-0.3-0.2-0.6-0.2-1c0-0.3,0.1-0.7,0.2-1s0.4-0.6,0.6-0.8s0.6-0.4,1-0.6c0.4-0.1,0.9-0.2,1.4-0.2
			c0.6,0,1.2,0.1,1.7,0.3c0.5,0.2,0.9,0.4,1.3,0.8L31.8,74.3z"/>
		<path class="st1" d="M38.2,72.6c0.6,0,1.1,0.1,1.6,0.3c0.5,0.2,0.9,0.4,1.2,0.8c0.3,0.3,0.6,0.8,0.8,1.3c0.2,0.5,0.3,1.1,0.3,1.7
			c0,0.3,0,0.4-0.1,0.5c-0.1,0.1-0.2,0.1-0.3,0.1h-6.2c0,0.6,0.1,1.1,0.2,1.5c0.1,0.4,0.4,0.8,0.6,1.1s0.6,0.5,0.9,0.6
			c0.4,0.1,0.8,0.2,1.2,0.2c0.4,0,0.8,0,1.1-0.1c0.3-0.1,0.6-0.2,0.8-0.3c0.2-0.1,0.4-0.2,0.5-0.3s0.3-0.1,0.4-0.1
			c0.1,0,0.2,0.1,0.3,0.2l0.5,0.6c-0.2,0.2-0.4,0.4-0.7,0.6c-0.3,0.2-0.6,0.3-0.9,0.4c-0.3,0.1-0.7,0.2-1,0.3s-0.7,0.1-1,0.1
			c-0.6,0-1.2-0.1-1.8-0.3s-1-0.5-1.4-0.9s-0.7-0.9-0.9-1.5c-0.2-0.6-0.3-1.3-0.3-2.1c0-0.6,0.1-1.2,0.3-1.8s0.5-1,0.9-1.4
			s0.8-0.7,1.4-1C36.9,72.7,37.5,72.6,38.2,72.6z M38.2,73.8c-0.8,0-1.4,0.2-1.9,0.7c-0.5,0.4-0.7,1.1-0.9,1.9h5.1
			c0-0.4-0.1-0.7-0.2-1c-0.1-0.3-0.3-0.6-0.5-0.8c-0.2-0.2-0.5-0.4-0.7-0.5S38.6,73.8,38.2,73.8z"/>
		<path class="st1" d="M44.1,81.9v-9.1h0.9c0.2,0,0.3,0,0.4,0.1c0.1,0.1,0.1,0.2,0.1,0.3l0.1,1.4c0.3-0.6,0.7-1.1,1.2-1.5
			c0.5-0.4,1-0.5,1.7-0.5c0.3,0,0.5,0,0.7,0.1c0.2,0.1,0.4,0.1,0.6,0.2l-0.2,1.2c0,0.2-0.1,0.2-0.3,0.2c-0.1,0-0.2,0-0.4-0.1
			c-0.2-0.1-0.4-0.1-0.7-0.1c-0.6,0-1.1,0.2-1.4,0.5c-0.4,0.3-0.7,0.8-1,1.4v5.8H44.1z"/>
		<path class="st1" d="M50.4,72.8h1.3c0.1,0,0.2,0,0.3,0.1s0.1,0.1,0.2,0.2l2.4,5.9c0.1,0.2,0.2,0.4,0.2,0.6c0,0.2,0.1,0.4,0.1,0.6
			c0-0.2,0.1-0.4,0.2-0.6c0.1-0.2,0.1-0.4,0.2-0.6l2.4-5.9c0-0.1,0.1-0.2,0.2-0.2c0.1-0.1,0.2-0.1,0.3-0.1h1.3l-3.8,9.1h-1.5
			L50.4,72.8z"/>
		<path class="st1" d="M67.9,81.9h-0.7c-0.2,0-0.3,0-0.4-0.1c-0.1,0-0.2-0.1-0.2-0.3l-0.2-0.8c-0.2,0.2-0.5,0.4-0.7,0.6
			c-0.2,0.2-0.5,0.3-0.7,0.4s-0.5,0.2-0.8,0.3c-0.3,0.1-0.6,0.1-1,0.1c-0.4,0-0.7,0-1-0.1c-0.3-0.1-0.6-0.2-0.8-0.4
			c-0.2-0.2-0.4-0.5-0.6-0.8c-0.1-0.3-0.2-0.7-0.2-1.1c0-0.4,0.1-0.7,0.3-1c0.2-0.3,0.5-0.6,1-0.9c0.5-0.3,1-0.5,1.8-0.6
			c0.7-0.2,1.6-0.2,2.7-0.2V76c0-0.7-0.2-1.3-0.5-1.6c-0.3-0.4-0.8-0.5-1.4-0.5c-0.4,0-0.7,0-1,0.1c-0.3,0.1-0.5,0.2-0.7,0.3
			s-0.4,0.2-0.5,0.3c-0.1,0.1-0.3,0.1-0.4,0.1c-0.1,0-0.2,0-0.3-0.1c-0.1-0.1-0.1-0.1-0.2-0.2L61,74c0.5-0.5,1.1-0.8,1.7-1.1
			s1.3-0.4,2-0.4c0.5,0,1,0.1,1.4,0.3s0.7,0.4,1,0.7c0.3,0.3,0.5,0.7,0.6,1.1c0.1,0.4,0.2,0.9,0.2,1.4V81.9z M63.7,80.9
			c0.3,0,0.6,0,0.8-0.1c0.2-0.1,0.5-0.1,0.7-0.2c0.2-0.1,0.4-0.2,0.6-0.4c0.2-0.2,0.4-0.3,0.6-0.5v-1.9c-0.8,0-1.4,0-1.9,0.1
			s-1,0.2-1.3,0.4c-0.3,0.2-0.6,0.3-0.7,0.5s-0.2,0.4-0.2,0.7c0,0.2,0,0.5,0.1,0.6c0.1,0.2,0.2,0.3,0.3,0.4c0.1,0.1,0.3,0.2,0.5,0.2
			C63.2,80.9,63.4,80.9,63.7,80.9z"/>
		<path class="st1" d="M73.3,82c-0.7,0-1.3-0.2-1.7-0.6c-0.4-0.4-0.6-1-0.6-1.7v-5.6h-1.1c-0.1,0-0.2,0-0.2-0.1
			c-0.1-0.1-0.1-0.1-0.1-0.3v-0.6l1.5-0.2l0.4-2.8c0-0.1,0.1-0.2,0.1-0.2c0.1-0.1,0.2-0.1,0.3-0.1h0.8v3.1h2.7v1.2h-2.7v5.5
			c0,0.4,0.1,0.7,0.3,0.9c0.2,0.2,0.4,0.3,0.7,0.3c0.2,0,0.3,0,0.4-0.1c0.1,0,0.2-0.1,0.3-0.1c0.1-0.1,0.2-0.1,0.2-0.1
			c0.1,0,0.1-0.1,0.2-0.1c0.1,0,0.2,0.1,0.2,0.2l0.5,0.8c-0.3,0.3-0.6,0.5-1,0.6C74.1,81.9,73.7,82,73.3,82z"/>
		<path class="st1" d="M79.5,69.9c0,0.2,0,0.3-0.1,0.4c-0.1,0.1-0.2,0.3-0.3,0.4c-0.1,0.1-0.2,0.2-0.4,0.2C78.7,71,78.5,71,78.3,71
			s-0.3,0-0.4-0.1s-0.3-0.1-0.4-0.2c-0.1-0.1-0.2-0.2-0.3-0.4c-0.1-0.1-0.1-0.3-0.1-0.4s0-0.3,0.1-0.4c0.1-0.1,0.1-0.3,0.3-0.4
			c0.1-0.1,0.2-0.2,0.4-0.2c0.1-0.1,0.3-0.1,0.4-0.1s0.3,0,0.5,0.1c0.1,0.1,0.3,0.1,0.4,0.2c0.1,0.1,0.2,0.2,0.3,0.4
			C79.5,69.6,79.5,69.7,79.5,69.9z M79.2,72.8v9.1h-1.6v-9.1H79.2z"/>
		<path class="st1" d="M85.8,72.6c0.7,0,1.3,0.1,1.9,0.3c0.6,0.2,1,0.5,1.4,0.9s0.7,0.9,0.9,1.5s0.3,1.2,0.3,1.9
			c0,0.7-0.1,1.4-0.3,1.9c-0.2,0.6-0.5,1.1-0.9,1.5s-0.9,0.7-1.4,0.9c-0.6,0.2-1.2,0.3-1.9,0.3s-1.3-0.1-1.9-0.3
			c-0.6-0.2-1-0.5-1.4-0.9s-0.7-0.9-0.9-1.5c-0.2-0.6-0.3-1.2-0.3-1.9c0-0.7,0.1-1.4,0.3-1.9c0.2-0.6,0.5-1.1,0.9-1.5
			s0.9-0.7,1.4-0.9C84.5,72.7,85.2,72.6,85.8,72.6z M85.8,80.7c0.9,0,1.6-0.3,2.1-0.9c0.5-0.6,0.7-1.4,0.7-2.5
			c0-1.1-0.2-1.9-0.7-2.5c-0.5-0.6-1.1-0.9-2.1-0.9c-0.5,0-0.9,0.1-1.2,0.2c-0.3,0.2-0.6,0.4-0.9,0.7c-0.2,0.3-0.4,0.7-0.5,1.1
			c-0.1,0.4-0.2,0.9-0.2,1.5s0.1,1,0.2,1.4c0.1,0.4,0.3,0.8,0.5,1.1c0.2,0.3,0.5,0.5,0.9,0.7C85,80.7,85.4,80.7,85.8,80.7z"/>
		<path class="st1" d="M92.3,81.9v-9.1h1c0.2,0,0.4,0.1,0.4,0.3l0.1,1c0.4-0.4,0.9-0.8,1.4-1.1s1.1-0.4,1.7-0.4c0.5,0,1,0.1,1.4,0.2
			c0.4,0.2,0.7,0.4,1,0.7s0.5,0.7,0.6,1.1c0.1,0.4,0.2,0.9,0.2,1.4v5.8h-1.6v-5.8c0-0.7-0.2-1.2-0.5-1.6c-0.3-0.4-0.8-0.6-1.5-0.6
			c-0.5,0-0.9,0.1-1.4,0.3s-0.8,0.5-1.2,0.9v6.7H92.3z"/>
		<path class="st1" d="M108,74.3c-0.1,0.1-0.2,0.2-0.3,0.2c-0.1,0-0.2,0-0.3-0.1c-0.1-0.1-0.3-0.1-0.4-0.2c-0.2-0.1-0.4-0.2-0.6-0.2
			s-0.5-0.1-0.8-0.1c-0.3,0-0.5,0-0.7,0.1s-0.4,0.2-0.6,0.3c-0.2,0.1-0.3,0.3-0.4,0.4c-0.1,0.2-0.1,0.3-0.1,0.5
			c0,0.2,0.1,0.4,0.2,0.6c0.1,0.2,0.3,0.3,0.5,0.4c0.2,0.1,0.5,0.2,0.8,0.3c0.3,0.1,0.6,0.2,0.9,0.3c0.3,0.1,0.6,0.2,0.9,0.3
			c0.3,0.1,0.5,0.3,0.8,0.5c0.2,0.2,0.4,0.4,0.5,0.7c0.1,0.3,0.2,0.6,0.2,0.9c0,0.4-0.1,0.8-0.2,1.2c-0.2,0.4-0.4,0.7-0.7,0.9
			c-0.3,0.3-0.7,0.5-1.1,0.6c-0.4,0.1-0.9,0.2-1.5,0.2c-0.7,0-1.2-0.1-1.8-0.3c-0.5-0.2-1-0.5-1.3-0.8l0.4-0.6
			c0-0.1,0.1-0.1,0.2-0.2c0.1,0,0.2-0.1,0.3-0.1c0.1,0,0.2,0,0.4,0.1c0.1,0.1,0.3,0.2,0.4,0.3c0.2,0.1,0.4,0.2,0.6,0.3
			c0.2,0.1,0.6,0.1,0.9,0.1c0.3,0,0.6,0,0.8-0.1s0.4-0.2,0.6-0.3c0.2-0.1,0.3-0.3,0.4-0.5s0.1-0.4,0.1-0.6c0-0.3-0.1-0.5-0.2-0.6
			c-0.1-0.2-0.3-0.3-0.5-0.4s-0.5-0.2-0.8-0.3c-0.3-0.1-0.6-0.2-0.9-0.3c-0.3-0.1-0.6-0.2-0.9-0.3c-0.3-0.1-0.6-0.3-0.8-0.5
			c-0.2-0.2-0.4-0.4-0.6-0.7c-0.1-0.3-0.2-0.6-0.2-1c0-0.3,0.1-0.7,0.2-1c0.1-0.3,0.4-0.6,0.6-0.8s0.6-0.4,1-0.6
			c0.4-0.1,0.9-0.2,1.4-0.2c0.6,0,1.2,0.1,1.7,0.3c0.5,0.2,0.9,0.4,1.3,0.8L108,74.3z"/>
	</g>
</g>
<g>
	<g>
		<g>
			<path class="st1" d="M77.2,54c-1.7,0-3.5-1-4.6-2L57.2,34.8c-3,2.3-6.2,3.2-10.5,3.2c-10.2,0-18.5-8.3-18.5-18.5S36.5,1,46.7,1
				s18.5,8.3,18.5,18.5c0,4.4-1,7.6-3.2,10.5l17.1,15.4l0,0c1.7,1.7,3.1,5.2,0.9,7.4C79.2,53.7,78.2,54,77.2,54z M57.3,32.8
				c0.2,0,0.5,0.1,0.6,0.3l15.9,17.7c1.2,1.2,3.6,2.2,5,0.9c1.3-1.3,0.3-3.8-0.9-5L60.3,30.8c-0.3-0.3-0.4-0.8-0.1-1.2
				c2.3-2.8,3.3-5.8,3.3-10.1c0-9.3-7.6-16.9-16.9-16.9s-16.9,7.6-16.9,16.9s7.6,16.9,16.9,16.9c4.3,0,7.3-1,10.1-3.3
				C56.9,32.9,57.1,32.8,57.3,32.8z"/>
		</g>
	</g>
	<g>
		<path class="st1" d="M54.8,14.2H38.5c-0.5,0-0.8-0.4-0.8-0.8s0.4-0.8,0.8-0.8h16.3c0.5,0,0.8,0.4,0.8,0.8S55.3,14.2,54.8,14.2z"/>
	</g>
	<g>
		<path class="st1" d="M54.5,19.8H38.2c-0.5,0-0.8-0.4-0.8-0.8c0-0.5,0.4-0.8,0.8-0.8h16.3c0.5,0,0.8,0.4,0.8,0.8
			C55.3,19.5,55,19.8,54.5,19.8z"/>
	</g>
	<g>
		<path class="st1" d="M54.7,25.9H38.4c-0.5,0-0.8-0.4-0.8-0.8c0-0.5,0.4-0.8,0.8-0.8h16.3c0.5,0,0.8,0.4,0.8,0.8
			C55.5,25.6,55.1,25.9,54.7,25.9z"/>
	</g>
</g>
</svg>
