<?xml version="1.0" encoding="utf-8"?>
<!-- Generator: Adobe Illustrator 24.2.0, SVG Export Plug-In . SVG Version: 6.00 Build 0)  -->
<svg version="1.1" id="Layer_1" xmlns="http://www.w3.org/2000/svg" xmlns:xlink="http://www.w3.org/1999/xlink" x="0px" y="0px"
	 viewBox="0 0 65 90" style="enable-background:new 0 0 65 90;" xml:space="preserve">
<style type="text/css">
	.st0{enable-background:new    ;}
	.st1{fill:#00D2FF;}
</style>
<g>
	<g class="st0">
		<path class="st1" d="M2.9,82v4.8H1.1V74H5c0.8,0,1.5,0.1,2.2,0.3c0.6,0.2,1.1,0.5,1.5,0.8c0.4,0.3,0.7,0.8,0.9,1.2
			c0.2,0.5,0.3,1,0.3,1.6c0,0.6-0.1,1.1-0.3,1.6c-0.2,0.5-0.5,0.9-0.9,1.3c-0.4,0.4-0.9,0.6-1.5,0.8S5.8,82,5,82H2.9z M2.9,80.6H5
			c0.5,0,1-0.1,1.3-0.2c0.4-0.1,0.7-0.3,1-0.5c0.3-0.2,0.5-0.5,0.6-0.8c0.1-0.3,0.2-0.7,0.2-1.1c0-0.8-0.3-1.4-0.8-1.9
			C6.8,75.6,6,75.4,5,75.4H2.9V80.6z"/>
		<path class="st1" d="M15.3,77.6c0.6,0,1.1,0.1,1.5,0.3s0.9,0.4,1.2,0.8s0.6,0.8,0.8,1.3c0.2,0.5,0.3,1.1,0.3,1.7
			c0,0.2,0,0.4-0.1,0.5c-0.1,0.1-0.2,0.1-0.3,0.1h-6.2c0,0.6,0.1,1.1,0.2,1.5c0.1,0.4,0.3,0.8,0.6,1.1s0.6,0.5,0.9,0.6
			c0.4,0.1,0.7,0.2,1.2,0.2c0.4,0,0.8,0,1.1-0.1c0.3-0.1,0.5-0.2,0.8-0.3s0.4-0.2,0.5-0.3c0.1-0.1,0.3-0.1,0.4-0.1
			c0.1,0,0.2,0,0.3,0.2l0.5,0.6c-0.2,0.2-0.4,0.4-0.7,0.6c-0.3,0.2-0.6,0.3-0.9,0.4c-0.3,0.1-0.7,0.2-1,0.3s-0.7,0.1-1,0.1
			c-0.6,0-1.2-0.1-1.8-0.3c-0.5-0.2-1-0.5-1.4-0.9c-0.4-0.4-0.7-0.9-0.9-1.5c-0.2-0.6-0.3-1.3-0.3-2.1c0-0.6,0.1-1.2,0.3-1.8
			c0.2-0.5,0.5-1,0.9-1.4s0.8-0.7,1.4-0.9C14,77.7,14.6,77.6,15.3,77.6z M15.3,78.8c-0.8,0-1.4,0.2-1.9,0.7s-0.7,1.1-0.8,1.8h5
			c0-0.4-0.1-0.7-0.2-1c-0.1-0.3-0.3-0.6-0.5-0.8s-0.4-0.4-0.7-0.5S15.7,78.8,15.3,78.8z"/>
		<path class="st1" d="M21.2,86.8v-9h1c0.2,0,0.4,0.1,0.4,0.3l0.1,1c0.4-0.4,0.9-0.8,1.3-1.1s1.1-0.4,1.7-0.4c0.5,0,1,0.1,1.3,0.2
			c0.4,0.2,0.7,0.4,1,0.7c0.3,0.3,0.5,0.7,0.6,1.1c0.1,0.4,0.2,0.9,0.2,1.4v5.7h-1.6V81c0-0.7-0.2-1.2-0.5-1.6
			c-0.3-0.4-0.8-0.6-1.5-0.6c-0.5,0-0.9,0.1-1.3,0.3c-0.4,0.2-0.8,0.5-1.2,0.9v6.6H21.2z"/>
		<path class="st1" d="M37.8,86.8c-0.2,0-0.4-0.1-0.4-0.3l-0.1-1.1c-0.4,0.5-0.8,0.8-1.4,1.1c-0.5,0.3-1.1,0.4-1.8,0.4
			c-0.5,0-1-0.1-1.4-0.3c-0.4-0.2-0.8-0.5-1.1-0.9c-0.3-0.4-0.5-0.9-0.7-1.4s-0.2-1.2-0.2-2c0-0.7,0.1-1.3,0.3-1.9
			c0.2-0.6,0.4-1.1,0.8-1.5s0.8-0.8,1.3-1s1.1-0.4,1.7-0.4c0.6,0,1.1,0.1,1.5,0.3s0.8,0.4,1.1,0.8v-5h1.6v13.1H37.8z M34.7,85.6
			c0.5,0,1-0.1,1.4-0.4c0.4-0.2,0.8-0.6,1.1-1v-4.4c-0.3-0.4-0.6-0.7-1-0.8c-0.4-0.2-0.8-0.2-1.2-0.2c-0.9,0-1.5,0.3-2,0.9
			c-0.5,0.6-0.7,1.5-0.7,2.6c0,0.6,0.1,1.1,0.2,1.5c0.1,0.4,0.3,0.8,0.5,1c0.2,0.3,0.4,0.5,0.7,0.6C34,85.5,34.3,85.6,34.7,85.6z"/>
		<path class="st1" d="M43.7,74.9c0,0.2,0,0.3-0.1,0.4c-0.1,0.1-0.1,0.3-0.3,0.4s-0.2,0.2-0.4,0.2C42.9,76,42.7,76,42.6,76
			c-0.2,0-0.3,0-0.4-0.1c-0.1-0.1-0.3-0.1-0.4-0.2s-0.2-0.2-0.3-0.4c-0.1-0.1-0.1-0.3-0.1-0.4s0-0.3,0.1-0.4
			c0.1-0.1,0.1-0.3,0.3-0.4c0.1-0.1,0.2-0.2,0.4-0.2c0.1-0.1,0.3-0.1,0.4-0.1c0.2,0,0.3,0,0.4,0.1c0.1,0.1,0.3,0.1,0.4,0.2
			c0.1,0.1,0.2,0.2,0.3,0.4C43.7,74.6,43.7,74.8,43.7,74.9z M43.4,77.7v9h-1.6v-9H43.4z"/>
		<path class="st1" d="M46.2,86.8v-9h1c0.2,0,0.4,0.1,0.4,0.3l0.1,1c0.4-0.4,0.9-0.8,1.3-1.1c0.5-0.3,1.1-0.4,1.7-0.4
			c0.5,0,1,0.1,1.3,0.2c0.4,0.2,0.7,0.4,1,0.7c0.3,0.3,0.5,0.7,0.6,1.1c0.1,0.4,0.2,0.9,0.2,1.4v5.7h-1.6V81c0-0.7-0.2-1.2-0.5-1.6
			c-0.3-0.4-0.8-0.6-1.5-0.6c-0.5,0-0.9,0.1-1.3,0.3c-0.4,0.2-0.8,0.5-1.2,0.9v6.6H46.2z"/>
		<path class="st1" d="M59.5,77.6c0.4,0,0.8,0,1.1,0.1c0.3,0.1,0.7,0.2,1,0.4h2.5v0.6c0,0.2-0.1,0.3-0.4,0.4l-1.1,0.1
			c0.2,0.4,0.3,0.8,0.3,1.3c0,0.4-0.1,0.8-0.3,1.2s-0.4,0.7-0.7,0.9c-0.3,0.3-0.7,0.5-1.1,0.6c-0.4,0.1-0.9,0.2-1.4,0.2
			c-0.4,0-0.8-0.1-1.2-0.2c-0.2,0.1-0.3,0.3-0.4,0.4c-0.1,0.1-0.2,0.3-0.2,0.4c0,0.2,0.1,0.4,0.3,0.5c0.2,0.1,0.4,0.2,0.7,0.2
			s0.6,0.1,1,0.1c0.4,0,0.8,0,1.1,0c0.4,0,0.8,0,1.1,0.1c0.4,0.1,0.7,0.2,1,0.3c0.3,0.2,0.5,0.4,0.7,0.6c0.2,0.3,0.3,0.6,0.3,1
			c0,0.4-0.1,0.8-0.3,1.1c-0.2,0.4-0.5,0.7-0.9,1c-0.4,0.3-0.8,0.5-1.4,0.7c-0.5,0.2-1.1,0.3-1.8,0.3c-0.7,0-1.3-0.1-1.8-0.2
			s-0.9-0.3-1.3-0.5c-0.3-0.2-0.6-0.5-0.8-0.8c-0.2-0.3-0.3-0.6-0.3-0.9c0-0.4,0.1-0.8,0.4-1.1c0.3-0.3,0.7-0.6,1.2-0.7
			c-0.3-0.1-0.5-0.3-0.6-0.5c-0.2-0.2-0.2-0.5-0.2-0.8c0-0.1,0-0.3,0.1-0.4s0.1-0.3,0.2-0.4c0.1-0.1,0.2-0.3,0.4-0.4
			c0.1-0.1,0.3-0.2,0.5-0.3c-0.5-0.2-0.8-0.6-1.1-1C56.1,81.5,56,81,56,80.5c0-0.4,0.1-0.8,0.3-1.2c0.2-0.4,0.4-0.7,0.7-0.9
			s0.7-0.4,1.1-0.6C58.5,77.7,59,77.6,59.5,77.6z M62.4,87.2c0-0.2-0.1-0.4-0.2-0.6c-0.1-0.1-0.3-0.2-0.5-0.3
			c-0.2-0.1-0.5-0.1-0.8-0.2c-0.3,0-0.6-0.1-0.9-0.1s-0.6,0-1,0c-0.3,0-0.6,0-0.9-0.1c-0.3,0.2-0.6,0.4-0.8,0.6
			c-0.2,0.2-0.3,0.5-0.3,0.8c0,0.2,0.1,0.4,0.2,0.6s0.3,0.3,0.5,0.5c0.2,0.1,0.5,0.2,0.8,0.3c0.3,0.1,0.7,0.1,1.2,0.1
			c0.4,0,0.8,0,1.2-0.1c0.3-0.1,0.6-0.2,0.9-0.3c0.2-0.1,0.4-0.3,0.6-0.5S62.4,87.5,62.4,87.2z M59.5,82.3c0.3,0,0.6,0,0.9-0.1
			c0.3-0.1,0.5-0.2,0.6-0.4c0.2-0.2,0.3-0.4,0.4-0.6c0.1-0.2,0.1-0.5,0.1-0.7c0-0.6-0.2-1-0.5-1.3c-0.3-0.3-0.8-0.5-1.5-0.5
			c-0.7,0-1.2,0.2-1.5,0.5s-0.5,0.8-0.5,1.3c0,0.3,0,0.5,0.1,0.7s0.2,0.4,0.4,0.6c0.2,0.2,0.4,0.3,0.6,0.4
			C58.9,82.3,59.2,82.3,59.5,82.3z"/>
	</g>
</g>
<g>
	<g id="XMLID_18_">
		<path class="st1" d="M28.8,57.6c-15.4,0-28-12.5-28-28s12.5-28,28-28s28,12.5,28,28v3.3c0,0.4-0.3,0.7-0.7,0.7s-0.7-0.3-0.7-0.7
			v-3.3C55.4,15,43.5,3.1,28.8,3.1S2.2,15,2.2,29.6s11.9,26.6,26.6,26.6c7,0,13.6-2.7,18.6-7.6c0.3-0.3,0.7-0.3,1,0s0.3,0.7,0,1
			C43.1,54.8,36.2,57.6,28.8,57.6z"/>
	</g>
	<g id="XMLID_123_">
		<path class="st1" d="M56.1,33.6c-0.2,0-0.4-0.1-0.5-0.2l-8.7-8.7c-0.3-0.3-0.3-0.7,0-1s0.7-0.3,1,0l8.2,8.2l7.1-8.2
			c0.3-0.3,0.7-0.3,1-0.1c0.3,0.3,0.3,0.7,0.1,1l-7.6,8.7C56.5,33.5,56.3,33.6,56.1,33.6L56.1,33.6z"/>
	</g>
	<g>
		<path class="st1" d="M40.8,37.2H24c-0.4,0-0.7-0.3-0.7-0.7v-24c0-0.4,0.3-0.7,0.7-0.7c0.4,0,0.7,0.3,0.7,0.7v23.3h16.1
			c0.4,0,0.7,0.3,0.7,0.7C41.5,36.9,41.2,37.2,40.8,37.2z"/>
	</g>
</g>
</svg>
