<?xml version="1.0" encoding="utf-8"?>
<!-- Generator: Adobe Illustrator 24.2.0, SVG Export Plug-In . SVG Version: 6.00 Build 0)  -->
<svg version="1.1" id="Layer_1" xmlns="http://www.w3.org/2000/svg" xmlns:xlink="http://www.w3.org/1999/xlink" x="0px" y="0px"
	 viewBox="0 0 164.1 85.3" style="enable-background:new 0 0 164.1 85.3;" xml:space="preserve">
<style type="text/css">
	.st0{enable-background:new    ;}
	.st1{fill:#E00E2C;}
</style>
<g>
	<g class="st0">
		<path class="st1" d="M2.9,69.1c0.1,0,0.2,0.1,0.3,0.2l7.7,9.7c0-0.2,0-0.3,0-0.5c0-0.1,0-0.3,0-0.4v-9.1h1.6V82h-0.9
			c-0.1,0-0.3,0-0.4-0.1c-0.1,0-0.2-0.1-0.3-0.2l-7.7-9.7c0,0.1,0,0.3,0,0.4c0,0.1,0,0.3,0,0.4V82H1.6V69.1h0.9
			C2.7,69.1,2.8,69.1,2.9,69.1z"/>
		<path class="st1" d="M24.9,79.3c0.1,0,0.2,0,0.3,0.1l0.7,0.7c-0.5,0.6-1.2,1.1-2,1.4c-0.8,0.3-1.7,0.5-2.8,0.5
			c-1,0-1.8-0.2-2.6-0.5c-0.8-0.3-1.4-0.8-2-1.3c-0.5-0.6-1-1.3-1.3-2.1c-0.3-0.8-0.5-1.7-0.5-2.7c0-1,0.2-1.9,0.5-2.7
			c0.3-0.8,0.8-1.5,1.4-2.1c0.6-0.6,1.3-1,2.1-1.4s1.7-0.5,2.7-0.5c1,0,1.8,0.1,2.5,0.4c0.7,0.3,1.3,0.7,1.9,1.2l-0.6,0.8
			c0,0.1-0.1,0.1-0.1,0.1c-0.1,0-0.1,0.1-0.2,0.1c-0.1,0-0.2,0-0.3-0.1s-0.2-0.1-0.3-0.2c-0.1-0.1-0.3-0.2-0.4-0.3
			c-0.2-0.1-0.4-0.2-0.6-0.3s-0.5-0.2-0.8-0.2s-0.6-0.1-1-0.1c-0.7,0-1.4,0.1-1.9,0.4c-0.6,0.2-1.1,0.6-1.5,1c-0.4,0.4-0.8,1-1,1.6
			c-0.2,0.6-0.4,1.3-0.4,2.1c0,0.8,0.1,1.5,0.4,2.2c0.2,0.6,0.6,1.2,1,1.6s0.9,0.8,1.5,1c0.6,0.2,1.2,0.3,1.8,0.3
			c0.4,0,0.7,0,1.1-0.1c0.3,0,0.6-0.1,0.9-0.2c0.3-0.1,0.5-0.2,0.7-0.4c0.2-0.1,0.5-0.3,0.7-0.5C24.7,79.3,24.8,79.3,24.9,79.3z"/>
		<path class="st1" d="M33.3,74.4c-0.1,0.1-0.2,0.2-0.3,0.2c-0.1,0-0.2,0-0.3-0.1c-0.1-0.1-0.3-0.1-0.4-0.2
			c-0.2-0.1-0.4-0.2-0.6-0.2c-0.2-0.1-0.5-0.1-0.8-0.1c-0.3,0-0.5,0-0.7,0.1c-0.2,0.1-0.4,0.2-0.6,0.3c-0.2,0.1-0.3,0.3-0.4,0.4
			C29.1,74.9,29,75,29,75.2c0,0.2,0.1,0.4,0.2,0.6s0.3,0.3,0.5,0.4s0.5,0.2,0.8,0.3c0.3,0.1,0.6,0.2,0.9,0.3
			c0.3,0.1,0.6,0.2,0.9,0.3c0.3,0.1,0.5,0.3,0.8,0.4c0.2,0.2,0.4,0.4,0.5,0.7c0.1,0.3,0.2,0.6,0.2,0.9c0,0.4-0.1,0.8-0.2,1.2
			c-0.2,0.4-0.4,0.7-0.7,0.9c-0.3,0.3-0.7,0.5-1.1,0.6s-0.9,0.2-1.5,0.2c-0.7,0-1.2-0.1-1.8-0.3c-0.5-0.2-1-0.5-1.3-0.8l0.4-0.6
			c0-0.1,0.1-0.1,0.2-0.2s0.2-0.1,0.3-0.1s0.2,0,0.4,0.1c0.1,0.1,0.3,0.2,0.4,0.3c0.2,0.1,0.4,0.2,0.6,0.3S30,81,30.4,81
			c0.3,0,0.6,0,0.8-0.1c0.2-0.1,0.4-0.2,0.6-0.3s0.3-0.3,0.4-0.5c0.1-0.2,0.1-0.4,0.1-0.6c0-0.3-0.1-0.5-0.2-0.6
			c-0.1-0.2-0.3-0.3-0.6-0.4c-0.2-0.1-0.5-0.2-0.8-0.3c-0.3-0.1-0.6-0.2-0.9-0.3c-0.3-0.1-0.6-0.2-0.9-0.3c-0.3-0.1-0.6-0.3-0.8-0.5
			s-0.4-0.4-0.5-0.7c-0.1-0.3-0.2-0.6-0.2-1c0-0.3,0.1-0.7,0.2-1c0.1-0.3,0.4-0.6,0.6-0.8c0.3-0.2,0.6-0.4,1-0.6
			c0.4-0.1,0.9-0.2,1.4-0.2c0.6,0,1.2,0.1,1.7,0.3c0.5,0.2,0.9,0.4,1.3,0.8L33.3,74.4z"/>
		<path class="st1" d="M44.3,68.9c0.5,0,0.9,0.1,1.3,0.2c0.4,0.2,0.7,0.4,1,0.6s0.5,0.5,0.7,0.9c0.2,0.3,0.3,0.7,0.3,1l-1,0.2
			c0,0-0.1,0-0.1,0c-0.1,0-0.2,0-0.2-0.1c-0.1,0-0.1-0.1-0.2-0.2c0-0.2-0.1-0.3-0.2-0.5c-0.1-0.2-0.2-0.3-0.4-0.5
			c-0.2-0.1-0.3-0.3-0.5-0.3c-0.2-0.1-0.5-0.1-0.7-0.1c-0.3,0-0.6,0-0.8,0.1c-0.2,0.1-0.5,0.2-0.6,0.4c-0.2,0.2-0.3,0.4-0.4,0.6
			c-0.1,0.2-0.1,0.5-0.1,0.8c0,0.2,0,0.4,0.1,0.6c0.1,0.2,0.1,0.4,0.2,0.6c0.1,0.2,0.2,0.4,0.4,0.6c0.2,0.2,0.4,0.4,0.6,0.7l3.8,3.8
			c0.2-0.4,0.4-0.8,0.6-1.3s0.2-0.9,0.3-1.3c0-0.1,0-0.2,0.1-0.3c0.1-0.1,0.1-0.1,0.3-0.1h1c0,0.7-0.1,1.4-0.3,2
			c-0.2,0.7-0.5,1.3-0.9,1.9l2.8,2.7h-1.6c-0.2,0-0.3,0-0.4-0.1c-0.1,0-0.2-0.1-0.4-0.3l-1.3-1.3c-0.6,0.5-1.2,1-2,1.3
			c-0.8,0.3-1.6,0.5-2.5,0.5c-0.5,0-1-0.1-1.5-0.2s-0.9-0.4-1.3-0.7c-0.4-0.3-0.7-0.7-0.9-1.1c-0.2-0.4-0.3-0.9-0.3-1.5
			c0-0.4,0.1-0.8,0.2-1.2c0.1-0.4,0.3-0.7,0.6-1c0.3-0.3,0.6-0.6,0.9-0.9s0.7-0.5,1.2-0.6c-0.4-0.5-0.7-0.9-0.8-1.4
			c-0.2-0.4-0.3-0.9-0.3-1.4c0-0.4,0.1-0.8,0.2-1.2c0.2-0.4,0.4-0.7,0.7-1c0.3-0.3,0.7-0.5,1.1-0.7C43.3,69,43.8,68.9,44.3,68.9z
			 M40.7,78.4c0,0.4,0.1,0.7,0.2,1s0.3,0.5,0.6,0.8c0.2,0.2,0.5,0.4,0.8,0.5s0.6,0.2,0.9,0.2c0.7,0,1.3-0.1,1.9-0.4
			c0.5-0.2,1-0.6,1.5-1l-3.9-3.8c-0.7,0.3-1.1,0.8-1.5,1.2C40.8,77.3,40.7,77.8,40.7,78.4z"/>
		<path class="st1" d="M68.7,75.5c0,1-0.2,1.9-0.5,2.7c-0.3,0.8-0.8,1.5-1.3,2.1s-1.3,1-2.1,1.4s-1.7,0.5-2.7,0.5s-1.9-0.2-2.7-0.5
			s-1.5-0.8-2.1-1.4c-0.6-0.6-1-1.3-1.3-2.1c-0.3-0.8-0.5-1.7-0.5-2.7c0-1,0.2-1.9,0.5-2.7s0.8-1.5,1.3-2.1c0.6-0.6,1.3-1,2.1-1.4
			s1.7-0.5,2.7-0.5s1.9,0.2,2.7,0.5s1.5,0.8,2.1,1.4s1,1.3,1.3,2.1C68.5,73.7,68.7,74.6,68.7,75.5z M66.9,75.5
			c0-0.8-0.1-1.5-0.3-2.1c-0.2-0.6-0.5-1.2-0.9-1.6c-0.4-0.4-0.9-0.8-1.5-1s-1.2-0.4-1.9-0.4c-0.7,0-1.4,0.1-1.9,0.4
			c-0.6,0.2-1.1,0.6-1.5,1c-0.4,0.4-0.7,1-0.9,1.6s-0.3,1.3-0.3,2.1c0,0.8,0.1,1.5,0.3,2.1s0.5,1.2,0.9,1.6c0.4,0.4,0.9,0.8,1.5,1
			c0.6,0.2,1.2,0.3,1.9,0.3c0.7,0,1.4-0.1,1.9-0.3s1.1-0.6,1.5-1c0.4-0.4,0.7-1,0.9-1.6C66.8,77,66.9,76.3,66.9,75.5z"/>
		<path class="st1" d="M70.9,82V68.7h1.7v5.5c0.4-0.4,0.8-0.8,1.3-1.1c0.5-0.3,1.1-0.4,1.7-0.4c0.5,0,1,0.1,1.5,0.3s0.8,0.5,1.1,0.9
			c0.3,0.4,0.5,0.9,0.7,1.5c0.2,0.6,0.2,1.2,0.2,2c0,0.7-0.1,1.3-0.3,1.9c-0.2,0.6-0.5,1.1-0.8,1.5s-0.8,0.8-1.3,1
			c-0.5,0.2-1.1,0.4-1.7,0.4c-0.6,0-1.1-0.1-1.5-0.3c-0.4-0.2-0.8-0.5-1.1-1l-0.1,0.8c0,0.2-0.2,0.3-0.4,0.3H70.9z M75.1,74
			c-0.5,0-1,0.1-1.4,0.4c-0.4,0.2-0.8,0.6-1.1,1v4.4c0.3,0.4,0.6,0.7,1,0.8c0.4,0.2,0.8,0.2,1.2,0.2c0.9,0,1.5-0.3,2-0.9
			c0.5-0.6,0.7-1.5,0.7-2.6c0-0.6-0.1-1.1-0.2-1.5s-0.3-0.8-0.5-1c-0.2-0.3-0.5-0.5-0.7-0.6S75.5,74,75.1,74z"/>
		<path class="st1" d="M86.6,74.4c-0.1,0.1-0.2,0.2-0.3,0.2c-0.1,0-0.2,0-0.3-0.1c-0.1-0.1-0.3-0.1-0.4-0.2
			c-0.2-0.1-0.4-0.2-0.6-0.2c-0.2-0.1-0.5-0.1-0.8-0.1c-0.3,0-0.5,0-0.7,0.1c-0.2,0.1-0.4,0.2-0.6,0.3c-0.2,0.1-0.3,0.3-0.4,0.4
			c-0.1,0.2-0.1,0.3-0.1,0.5c0,0.2,0.1,0.4,0.2,0.6s0.3,0.3,0.6,0.4c0.2,0.1,0.5,0.2,0.8,0.3c0.3,0.1,0.6,0.2,0.9,0.3
			c0.3,0.1,0.6,0.2,0.9,0.3c0.3,0.1,0.5,0.3,0.8,0.4c0.2,0.2,0.4,0.4,0.6,0.7c0.1,0.3,0.2,0.6,0.2,0.9c0,0.4-0.1,0.8-0.2,1.2
			c-0.2,0.4-0.4,0.7-0.7,0.9c-0.3,0.3-0.7,0.5-1.1,0.6s-0.9,0.2-1.5,0.2c-0.7,0-1.2-0.1-1.8-0.3c-0.5-0.2-1-0.5-1.3-0.8l0.4-0.6
			c0-0.1,0.1-0.1,0.2-0.2s0.2-0.1,0.3-0.1s0.2,0,0.4,0.1c0.1,0.1,0.3,0.2,0.4,0.3c0.2,0.1,0.4,0.2,0.6,0.3s0.6,0.1,0.9,0.1
			c0.3,0,0.6,0,0.8-0.1c0.2-0.1,0.4-0.2,0.6-0.3s0.3-0.3,0.4-0.5c0.1-0.2,0.1-0.4,0.1-0.6c0-0.3-0.1-0.5-0.2-0.6
			c-0.1-0.2-0.3-0.3-0.5-0.4c-0.2-0.1-0.5-0.2-0.8-0.3c-0.3-0.1-0.6-0.2-0.9-0.3c-0.3-0.1-0.6-0.2-0.9-0.3c-0.3-0.1-0.6-0.3-0.8-0.5
			s-0.4-0.4-0.5-0.7c-0.1-0.3-0.2-0.6-0.2-1c0-0.3,0.1-0.7,0.2-1c0.1-0.3,0.4-0.6,0.6-0.8c0.3-0.2,0.6-0.4,1-0.6
			c0.4-0.1,0.9-0.2,1.4-0.2c0.6,0,1.2,0.1,1.7,0.3s0.9,0.4,1.3,0.8L86.6,74.4z"/>
		<path class="st1" d="M93,72.7c0.6,0,1.1,0.1,1.6,0.3s0.9,0.4,1.2,0.8c0.3,0.3,0.6,0.8,0.8,1.3c0.2,0.5,0.3,1.1,0.3,1.7
			c0,0.3,0,0.4-0.1,0.5c-0.1,0.1-0.2,0.1-0.3,0.1h-6.2c0,0.6,0.1,1.1,0.2,1.5s0.4,0.8,0.6,1.1c0.3,0.3,0.6,0.5,0.9,0.6
			s0.8,0.2,1.2,0.2c0.4,0,0.8,0,1.1-0.1c0.3-0.1,0.6-0.2,0.8-0.3c0.2-0.1,0.4-0.2,0.5-0.3c0.1-0.1,0.3-0.1,0.4-0.1
			c0.1,0,0.2,0.1,0.3,0.2l0.5,0.6c-0.2,0.2-0.4,0.4-0.7,0.6c-0.3,0.2-0.6,0.3-0.9,0.4c-0.3,0.1-0.7,0.2-1,0.3
			c-0.3,0.1-0.7,0.1-1,0.1c-0.6,0-1.2-0.1-1.8-0.3s-1-0.5-1.4-0.9c-0.4-0.4-0.7-0.9-0.9-1.5c-0.2-0.6-0.3-1.3-0.3-2.1
			c0-0.6,0.1-1.2,0.3-1.8c0.2-0.6,0.5-1,0.9-1.4c0.4-0.4,0.8-0.7,1.4-1C91.7,72.8,92.3,72.7,93,72.7z M93,73.9
			c-0.8,0-1.4,0.2-1.9,0.7c-0.5,0.4-0.7,1.1-0.8,1.9h5.1c0-0.4-0.1-0.7-0.2-1c-0.1-0.3-0.3-0.6-0.5-0.8c-0.2-0.2-0.5-0.4-0.7-0.5
			C93.7,73.9,93.4,73.9,93,73.9z"/>
		<path class="st1" d="M98.9,82v-9.1h0.9c0.2,0,0.3,0,0.4,0.1c0.1,0.1,0.1,0.2,0.1,0.3l0.1,1.4c0.3-0.6,0.7-1.1,1.2-1.5
			c0.5-0.4,1-0.5,1.7-0.5c0.3,0,0.5,0,0.7,0.1c0.2,0.1,0.4,0.1,0.6,0.2l-0.2,1.2c0,0.2-0.1,0.2-0.3,0.2c-0.1,0-0.2,0-0.4-0.1
			c-0.2-0.1-0.4-0.1-0.7-0.1c-0.6,0-1.1,0.2-1.4,0.5c-0.4,0.3-0.7,0.8-1,1.4V82H98.9z"/>
		<path class="st1" d="M105.2,72.8h1.3c0.1,0,0.2,0,0.3,0.1c0.1,0.1,0.1,0.1,0.2,0.2l2.4,5.9c0.1,0.2,0.2,0.4,0.2,0.6
			c0,0.2,0.1,0.4,0.1,0.6c0-0.2,0.1-0.4,0.2-0.6c0.1-0.2,0.1-0.4,0.2-0.6l2.4-5.9c0-0.1,0.1-0.2,0.2-0.2c0.1-0.1,0.2-0.1,0.3-0.1
			h1.3l-3.8,9.1H109L105.2,72.8z"/>
		<path class="st1" d="M122.7,82H122c-0.2,0-0.3,0-0.4-0.1c-0.1,0-0.2-0.1-0.2-0.3l-0.2-0.8c-0.2,0.2-0.5,0.4-0.7,0.6
			s-0.5,0.3-0.7,0.4c-0.3,0.1-0.5,0.2-0.8,0.3c-0.3,0.1-0.6,0.1-1,0.1c-0.4,0-0.7-0.1-1-0.1c-0.3-0.1-0.6-0.2-0.8-0.4
			s-0.4-0.5-0.6-0.8s-0.2-0.7-0.2-1.1c0-0.4,0.1-0.7,0.3-1c0.2-0.3,0.5-0.6,1-0.9c0.5-0.3,1-0.5,1.8-0.6s1.6-0.2,2.7-0.2v-0.7
			c0-0.7-0.2-1.3-0.5-1.6c-0.3-0.4-0.8-0.5-1.4-0.5c-0.4,0-0.7,0-1,0.1c-0.3,0.1-0.5,0.2-0.7,0.3s-0.4,0.2-0.5,0.3
			c-0.1,0.1-0.3,0.1-0.4,0.1c-0.1,0-0.2,0-0.3-0.1s-0.1-0.1-0.2-0.2l-0.3-0.5c0.5-0.5,1.1-0.8,1.7-1.1c0.6-0.2,1.3-0.4,2-0.4
			c0.5,0,1,0.1,1.4,0.3s0.7,0.4,1,0.7s0.5,0.7,0.6,1.1s0.2,0.9,0.2,1.4V82z M118.5,81c0.3,0,0.6,0,0.8-0.1s0.5-0.1,0.7-0.2
			c0.2-0.1,0.4-0.2,0.6-0.4c0.2-0.2,0.4-0.3,0.6-0.5v-1.9c-0.8,0-1.4,0-1.9,0.1s-1,0.2-1.3,0.4c-0.3,0.2-0.6,0.3-0.7,0.5
			s-0.2,0.4-0.2,0.7c0,0.2,0,0.5,0.1,0.6c0.1,0.2,0.2,0.3,0.3,0.4c0.1,0.1,0.3,0.2,0.5,0.2C118,81,118.2,81,118.5,81z"/>
		<path class="st1" d="M128.1,82.1c-0.7,0-1.3-0.2-1.7-0.6c-0.4-0.4-0.6-1-0.6-1.7v-5.6h-1.1c-0.1,0-0.2,0-0.2-0.1
			c-0.1-0.1-0.1-0.1-0.1-0.3v-0.6l1.5-0.2l0.4-2.8c0-0.1,0.1-0.2,0.1-0.2c0.1-0.1,0.2-0.1,0.3-0.1h0.8V73h2.7v1.2h-2.7v5.5
			c0,0.4,0.1,0.7,0.3,0.9s0.4,0.3,0.7,0.3c0.2,0,0.3,0,0.4-0.1c0.1,0,0.2-0.1,0.3-0.1c0.1-0.1,0.2-0.1,0.2-0.1
			c0.1,0,0.1-0.1,0.2-0.1c0.1,0,0.2,0.1,0.2,0.2l0.5,0.8c-0.3,0.3-0.6,0.5-1,0.6C128.9,82,128.5,82.1,128.1,82.1z"/>
		<path class="st1" d="M134.3,70c0,0.2,0,0.3-0.1,0.4c-0.1,0.1-0.2,0.3-0.3,0.4c-0.1,0.1-0.2,0.2-0.4,0.2c-0.1,0.1-0.3,0.1-0.5,0.1
			s-0.3,0-0.4-0.1c-0.1-0.1-0.3-0.1-0.4-0.2c-0.1-0.1-0.2-0.2-0.3-0.4c-0.1-0.1-0.1-0.3-0.1-0.4s0-0.3,0.1-0.4
			c0.1-0.1,0.1-0.3,0.3-0.4c0.1-0.1,0.2-0.2,0.4-0.2s0.3-0.1,0.4-0.1s0.3,0,0.5,0.1c0.1,0.1,0.3,0.1,0.4,0.2
			c0.1,0.1,0.2,0.2,0.3,0.4C134.3,69.7,134.3,69.8,134.3,70z M133.9,72.8V82h-1.6v-9.1H133.9z"/>
		<path class="st1" d="M140.6,72.7c0.7,0,1.3,0.1,1.9,0.3c0.6,0.2,1,0.5,1.4,0.9s0.7,0.9,0.9,1.5c0.2,0.6,0.3,1.2,0.3,1.9
			c0,0.7-0.1,1.4-0.3,1.9s-0.5,1.1-0.9,1.5s-0.9,0.7-1.4,0.9c-0.6,0.2-1.2,0.3-1.9,0.3s-1.3-0.1-1.9-0.3c-0.6-0.2-1-0.5-1.4-0.9
			s-0.7-0.9-0.9-1.5c-0.2-0.6-0.3-1.2-0.3-1.9c0-0.7,0.1-1.4,0.3-1.9c0.2-0.6,0.5-1.1,0.9-1.5s0.9-0.7,1.4-0.9
			C139.3,72.8,140,72.7,140.6,72.7z M140.6,80.8c0.9,0,1.6-0.3,2.1-0.9s0.7-1.4,0.7-2.5c0-1.1-0.2-1.9-0.7-2.5s-1.1-0.9-2.1-0.9
			c-0.5,0-0.9,0.1-1.2,0.2c-0.3,0.2-0.6,0.4-0.9,0.7c-0.2,0.3-0.4,0.7-0.5,1.1c-0.1,0.4-0.2,0.9-0.2,1.5c0,0.5,0.1,1,0.2,1.4
			c0.1,0.4,0.3,0.8,0.5,1.1c0.2,0.3,0.5,0.5,0.9,0.7C139.8,80.8,140.2,80.8,140.6,80.8z"/>
		<path class="st1" d="M147.1,82v-9.1h1c0.2,0,0.4,0.1,0.4,0.3l0.1,1c0.4-0.4,0.9-0.8,1.4-1.1c0.5-0.3,1.1-0.4,1.7-0.4
			c0.5,0,1,0.1,1.4,0.2c0.4,0.2,0.7,0.4,1,0.7c0.3,0.3,0.5,0.7,0.6,1.1c0.1,0.4,0.2,0.9,0.2,1.4V82h-1.6v-5.8c0-0.7-0.2-1.2-0.5-1.6
			c-0.3-0.4-0.8-0.6-1.5-0.6c-0.5,0-0.9,0.1-1.4,0.3c-0.4,0.2-0.8,0.5-1.2,0.9V82H147.1z"/>
		<path class="st1" d="M162.8,74.4c-0.1,0.1-0.2,0.2-0.3,0.2c-0.1,0-0.2,0-0.3-0.1c-0.1-0.1-0.3-0.1-0.4-0.2
			c-0.2-0.1-0.4-0.2-0.6-0.2c-0.2-0.1-0.5-0.1-0.8-0.1c-0.3,0-0.5,0-0.7,0.1c-0.2,0.1-0.4,0.2-0.6,0.3c-0.2,0.1-0.3,0.3-0.4,0.4
			c-0.1,0.2-0.1,0.3-0.1,0.5c0,0.2,0.1,0.4,0.2,0.6s0.3,0.3,0.6,0.4c0.2,0.1,0.5,0.2,0.8,0.3c0.3,0.1,0.6,0.2,0.9,0.3
			c0.3,0.1,0.6,0.2,0.9,0.3c0.3,0.1,0.5,0.3,0.8,0.4c0.2,0.2,0.4,0.4,0.6,0.7c0.1,0.3,0.2,0.6,0.2,0.9c0,0.4-0.1,0.8-0.2,1.2
			c-0.2,0.4-0.4,0.7-0.7,0.9c-0.3,0.3-0.7,0.5-1.1,0.6s-0.9,0.2-1.5,0.2c-0.7,0-1.2-0.1-1.8-0.3c-0.5-0.2-1-0.5-1.3-0.8l0.4-0.6
			c0-0.1,0.1-0.1,0.2-0.2c0.1,0,0.2-0.1,0.3-0.1s0.2,0,0.4,0.1s0.3,0.2,0.4,0.3c0.2,0.1,0.4,0.2,0.6,0.3s0.6,0.1,0.9,0.1
			c0.3,0,0.6,0,0.8-0.1c0.2-0.1,0.4-0.2,0.6-0.3s0.3-0.3,0.4-0.5c0.1-0.2,0.1-0.4,0.1-0.6c0-0.3-0.1-0.5-0.2-0.6
			c-0.1-0.2-0.3-0.3-0.5-0.4c-0.2-0.1-0.5-0.2-0.8-0.3c-0.3-0.1-0.6-0.2-0.9-0.3c-0.3-0.1-0.6-0.2-0.9-0.3s-0.6-0.3-0.8-0.5
			s-0.4-0.4-0.5-0.7c-0.1-0.3-0.2-0.6-0.2-1c0-0.3,0.1-0.7,0.2-1c0.1-0.3,0.4-0.6,0.6-0.8c0.3-0.2,0.6-0.4,1-0.6s0.9-0.2,1.4-0.2
			c0.6,0,1.2,0.1,1.7,0.3s0.9,0.4,1.3,0.8L162.8,74.4z"/>
	</g>
</g>
<g>
	<g>
		<g>
			<path class="st1" d="M82,53.4c-0.1,0-0.1,0-0.2,0C73.5,50.9,58,42.1,58,32.4V7.8c0-0.3,0.2-0.5,0.4-0.6L81.8,0c0.1,0,0.3,0,0.4,0
				l23.4,7.2c0.3,0.1,0.4,0.3,0.4,0.6v24.5c0,9.8-15.5,18.5-23.8,21C82.2,53.4,82.1,53.4,82,53.4z M59.3,8.3v24.1
				c0,8.2,13.4,16.9,22.7,19.7c9.4-2.9,22.7-11.5,22.7-19.7V8.3L82,1.3L59.3,8.3z"/>
		</g>
		<g>
			<path class="st1" d="M89.2,33.6c-0.2,0-0.3-0.1-0.4-0.2L74.4,19.1c-0.2-0.2-0.2-0.6,0-0.9c0.2-0.2,0.6-0.2,0.9,0l14.4,14.4
				c0.2,0.2,0.2,0.6,0,0.9C89.6,33.6,89.4,33.6,89.2,33.6z"/>
		</g>
		<g>
			<path class="st1" d="M82,37.2c-6.3,0-11.4-5.1-11.4-11.4S75.7,14.4,82,14.4s11.4,5.1,11.4,11.4S88.3,37.2,82,37.2z M82,15.7
				c-5.6,0-10.2,4.6-10.2,10.2S76.4,36,82,36s10.2-4.6,10.2-10.2S87.6,15.7,82,15.7z"/>
		</g>
	</g>
</g>
</svg>
