<?xml version="1.0" encoding="utf-8"?>
<!-- Generator: Adobe Illustrator 24.2.0, SVG Export Plug-In . SVG Version: 6.00 Build 0)  -->
<svg version="1.1" id="Layer_1" xmlns="http://www.w3.org/2000/svg" xmlns:xlink="http://www.w3.org/1999/xlink" x="0px" y="0px"
	 viewBox="0 0 54 86.9" style="enable-background:new 0 0 54 86.9;" xml:space="preserve">
<style type="text/css">
	.st0{enable-background:new    ;}
	.st1{fill:#E00E2C;}
</style>
<g>
	<g class="st0">
		<path class="st1" d="M12.6,70.8c0.1,0,0.2,0.1,0.3,0.2l7.7,9.7c0-0.2,0-0.3,0-0.5c0-0.1,0-0.3,0-0.4v-9.1H22v12.9h-0.9
			c-0.1,0-0.3,0-0.4-0.1s-0.2-0.1-0.3-0.2l-7.7-9.7c0,0.2,0,0.3,0,0.4c0,0.1,0,0.3,0,0.4v9.2h-1.6V70.7h0.9
			C12.4,70.7,12.5,70.8,12.6,70.8z"/>
		<path class="st1" d="M34.6,81c0.1,0,0.2,0,0.3,0.1l0.7,0.7c-0.5,0.6-1.2,1.1-2,1.4c-0.8,0.3-1.7,0.5-2.8,0.5c-1,0-1.8-0.2-2.6-0.5
			s-1.4-0.8-2-1.4c-0.5-0.6-1-1.3-1.3-2.1s-0.5-1.7-0.5-2.7c0-1,0.2-1.9,0.5-2.7c0.3-0.8,0.8-1.5,1.4-2.1c0.6-0.6,1.3-1,2.1-1.4
			c0.8-0.3,1.7-0.5,2.7-0.5c1,0,1.8,0.1,2.5,0.4s1.3,0.7,1.9,1.2L35,73c0,0.1-0.1,0.1-0.1,0.1c-0.1,0-0.1,0.1-0.2,0.1
			c-0.1,0-0.2,0-0.3-0.1c-0.1-0.1-0.2-0.1-0.3-0.2c-0.1-0.1-0.3-0.2-0.4-0.3c-0.2-0.1-0.4-0.2-0.6-0.3s-0.5-0.2-0.8-0.2
			c-0.3-0.1-0.7-0.1-1-0.1c-0.7,0-1.4,0.1-1.9,0.4s-1.1,0.6-1.5,1c-0.4,0.4-0.8,1-1,1.6c-0.2,0.6-0.4,1.3-0.4,2.1
			c0,0.8,0.1,1.5,0.4,2.2c0.2,0.6,0.6,1.2,1,1.6c0.4,0.4,0.9,0.8,1.5,1c0.6,0.2,1.2,0.3,1.8,0.3c0.4,0,0.7,0,1.1-0.1
			s0.6-0.1,0.9-0.2c0.3-0.1,0.5-0.2,0.7-0.4s0.5-0.3,0.7-0.5C34.4,81,34.5,81,34.6,81z"/>
		<path class="st1" d="M43,76c-0.1,0.1-0.2,0.2-0.3,0.2c-0.1,0-0.2,0-0.3-0.1c-0.1-0.1-0.3-0.1-0.4-0.2c-0.2-0.1-0.4-0.2-0.6-0.2
			c-0.2-0.1-0.5-0.1-0.8-0.1c-0.3,0-0.5,0-0.7,0.1s-0.4,0.2-0.6,0.3c-0.2,0.1-0.3,0.3-0.4,0.4c-0.1,0.2-0.1,0.3-0.1,0.5
			c0,0.2,0.1,0.4,0.2,0.6c0.1,0.2,0.3,0.3,0.5,0.4c0.2,0.1,0.5,0.2,0.8,0.3c0.3,0.1,0.6,0.2,0.9,0.3c0.3,0.1,0.6,0.2,0.9,0.3
			c0.3,0.1,0.5,0.3,0.8,0.5c0.2,0.2,0.4,0.4,0.5,0.7c0.1,0.3,0.2,0.6,0.2,0.9c0,0.4-0.1,0.8-0.2,1.2s-0.4,0.7-0.7,0.9
			c-0.3,0.3-0.7,0.5-1.1,0.6c-0.4,0.1-0.9,0.2-1.5,0.2c-0.7,0-1.2-0.1-1.8-0.3c-0.5-0.2-1-0.5-1.3-0.8l0.4-0.6
			c0-0.1,0.1-0.1,0.2-0.2c0.1,0,0.2-0.1,0.3-0.1c0.1,0,0.2,0,0.4,0.1s0.3,0.2,0.4,0.3c0.2,0.1,0.4,0.2,0.6,0.3
			c0.2,0.1,0.6,0.1,0.9,0.1c0.3,0,0.6,0,0.8-0.1s0.4-0.2,0.6-0.3c0.2-0.1,0.3-0.3,0.4-0.5s0.1-0.4,0.1-0.6c0-0.3-0.1-0.5-0.2-0.6
			c-0.1-0.2-0.3-0.3-0.6-0.4s-0.5-0.2-0.8-0.3c-0.3-0.1-0.6-0.2-0.9-0.3c-0.3-0.1-0.6-0.2-0.9-0.3s-0.6-0.3-0.8-0.5
			c-0.2-0.2-0.4-0.4-0.5-0.7c-0.1-0.3-0.2-0.6-0.2-1c0-0.3,0.1-0.7,0.2-1c0.1-0.3,0.4-0.6,0.6-0.8s0.6-0.4,1-0.6
			c0.4-0.1,0.9-0.2,1.4-0.2c0.6,0,1.2,0.1,1.7,0.3c0.5,0.2,0.9,0.4,1.3,0.8L43,76z"/>
	</g>
</g>
<g>
	<g>
		<g>
			<g>
				<path class="st1" d="M27.9,48.5H0.5C0.2,48.5,0,48.3,0,48V15.1c0-0.1,0.1-0.3,0.1-0.4L14.8,0.1C14.9,0.1,15,0,15.1,0h23.8
					c0.3,0,0.5,0.2,0.5,0.5v27.4c0,0.3-0.2,0.5-0.5,0.5s-0.5-0.2-0.5-0.5V1H15.3L1,15.3v32.2h26.9c0.3,0,0.5,0.2,0.5,0.5
					S28.2,48.5,27.9,48.5z"/>
			</g>
			<g>
				<path class="st1" d="M15.1,15.6H0.5c-0.3,0-0.5-0.2-0.5-0.5s0.2-0.5,0.5-0.5h14.1V0.5c0-0.3,0.2-0.5,0.5-0.5s0.5,0.2,0.5,0.5
					v14.6C15.6,15.4,15.4,15.6,15.1,15.6z"/>
			</g>
		</g>
	</g>
	<g>
		<path class="st1" d="M38.9,46.7c-0.1,0-0.3,0-0.4-0.1c-0.2-0.2-0.2-0.5,0-0.7l7.3-7.3c0.2-0.2,0.5-0.2,0.7,0s0.2,0.5,0,0.7
			l-7.3,7.3C39.1,46.6,39,46.7,38.9,46.7z"/>
	</g>
	<g>
		<path class="st1" d="M46.2,46.7c-0.1,0-0.3,0-0.4-0.1l-7.3-7.3c-0.2-0.2-0.2-0.5,0-0.7s0.5-0.2,0.7,0l7.3,7.3
			c0.2,0.2,0.2,0.5,0,0.7C46.4,46.6,46.3,46.7,46.2,46.7z"/>
	</g>
	<g>
		<path class="st1" d="M42.5,54C36.2,54,31,48.9,31,42.5S36.1,31,42.5,31C48.8,31,54,36.1,54,42.5S48.9,54,42.5,54z M42.5,32.1
			c-5.8,0-10.5,4.7-10.5,10.5s4.7,10.5,10.5,10.5S53,48.3,53,42.5C53,36.8,48.3,32.1,42.5,32.1z"/>
	</g>
</g>
</svg>
