<?xml version="1.0" encoding="utf-8"?>
<!-- Generator: Adobe Illustrator 24.2.3, SVG Export Plug-In . SVG Version: 6.00 Build 0)  -->
<svg version="1.1" id="Layer_1" xmlns="http://www.w3.org/2000/svg" xmlns:xlink="http://www.w3.org/1999/xlink" x="0px" y="0px"
	 viewBox="0 0 22 11" style="enable-background:new 0 0 22 11;" xml:space="preserve">
<style type="text/css">
	.st0{clip-path:url(#SVGID_4_);enable-background:new    ;}
	.st1{clip-path:url(#SVGID_6_);}
	
		.st2{clip-path:url(#SVGID_8_);fill:none;stroke:#B4B0C8;stroke-width:3;stroke-linecap:round;stroke-linejoin:round;stroke-miterlimit:10;}
	.st3{opacity:0.5402;}
	.st4{fill:#FFFFFF;}
</style>
<desc>Created with Sketch.</desc>
<g>
	<g>
		<g>
			<defs>
				<rect id="SVGID_1_" x="684" y="-544.4" width="32" height="21"/>
			</defs>
			<clipPath id="SVGID_2_">
				<use xlink:href="#SVGID_1_"  style="overflow:visible;"/>
			</clipPath>
		</g>
	</g>
</g>
<g>
	<g>
		<g>
			<defs>
				<rect id="SVGID_3_" x="-705" y="-578.4" width="1440" height="1175"/>
			</defs>
			<clipPath id="SVGID_4_">
				<use xlink:href="#SVGID_3_"  style="overflow:visible;"/>
			</clipPath>
			<g class="st0">
				<g>
					<g>
						<g>
							<defs>
								<rect id="SVGID_5_" x="688" y="-542.4" width="24" height="13"/>
							</defs>
							<clipPath id="SVGID_6_">
								<use xlink:href="#SVGID_5_"  style="overflow:visible;"/>
							</clipPath>
							<g class="st1">
								<g>
									<g>
										<defs>
											<rect id="SVGID_7_" x="681" y="-549.4" width="38" height="31"/>
										</defs>
										<clipPath id="SVGID_8_">
											<use xlink:href="#SVGID_7_"  style="overflow:visible;"/>
										</clipPath>
										<polyline class="st2" points="691,-539.4 700,-532.4 709,-539.4 										"/>
									</g>
								</g>
							</g>
						</g>
					</g>
				</g>
			</g>
		</g>
	</g>
</g>
<g id="Path-Copy-6" class="st3">
	<path class="st4" d="M11,10.5c-0.3,0-0.6-0.1-0.9-0.3l-9-7C0.4,2.7,0.3,1.7,0.8,1.1c0.5-0.7,1.5-0.8,2.1-0.3L11,7.1l8.1-6.3
		c0.7-0.5,1.6-0.4,2.1,0.3s0.4,1.6-0.3,2.1l-9,7C11.7,10.4,11.3,10.5,11,10.5z"/>
</g>
</svg>
