<?xml version="1.0" encoding="utf-8"?>
<!-- Generator: Adobe Illustrator 24.2.3, SVG Export Plug-In . SVG Version: 6.00 Build 0)  -->
<svg version="1.1" id="Layer_1" xmlns="http://www.w3.org/2000/svg" xmlns:xlink="http://www.w3.org/1999/xlink" x="0px" y="0px"
	 viewBox="0 0 16 16" style="enable-background:new 0 0 16 16;" xml:space="preserve">
<style type="text/css">
	.st0{fill:#64B8FB;}
</style>
<g id="Stroke-1968">
	<path class="st0" d="M9.1,7.3c-0.1,0-0.2,0-0.3-0.1C8.6,7,8.6,6.8,8.8,6.6l4.1-4c0.2-0.2,0.4-0.2,0.6,0c0.2,0.2,0.2,0.4,0,0.6
		l-4.1,4C9.3,7.3,9.2,7.3,9.1,7.3z"/>
</g>
<g id="Stroke-1969">
	<path class="st0" d="M13.4,6.4C13.2,6.4,13,6.2,13,6V2.8c0-0.2,0.2-0.4,0.4-0.4s0.4,0.2,0.4,0.4V6C13.8,6.2,13.7,6.4,13.4,6.4z"/>
</g>
<g id="Stroke-1970">
	<path class="st0" d="M13.3,3.2h-3.2C9.9,3.2,9.7,3,9.7,2.8s0.2-0.4,0.4-0.4h3.3c0.2,0,0.4,0.2,0.4,0.4S13.6,3.2,13.3,3.2z"/>
</g>
<g id="Stroke-1971">
	<path class="st0" d="M2.8,13.6c-0.1,0-0.2,0-0.3-0.1c-0.2-0.2-0.2-0.4,0-0.6l4.1-4c0.2-0.2,0.4-0.2,0.6,0s0.2,0.4,0,0.6l-4.1,4
		C3,13.6,2.9,13.6,2.8,13.6z"/>
</g>
<g id="Stroke-1972">
	<path class="st0" d="M2.7,13.6c-0.2,0-0.4-0.2-0.4-0.4V10c0-0.2,0.2-0.4,0.4-0.4S3.1,9.8,3.1,10v3.2C3.1,13.4,3,13.6,2.7,13.6z"/>
</g>
<g id="Stroke-1973">
	<path class="st0" d="M6,13.6H2.7c-0.2,0-0.4-0.2-0.4-0.4s0.2-0.4,0.4-0.4H6c0.2,0,0.4,0.2,0.4,0.4S6.2,13.6,6,13.6z"/>
</g>
<g id="Stroke-1974">
	<path class="st0" d="M15,16H1c-0.5,0-1-0.4-1-0.9V0.9C0,0.4,0.4,0,1,0h14c0.5,0,1,0.4,1,0.9V15C16,15.6,15.6,16,15,16z M1,0.8
		c-0.1,0-0.2,0.1-0.2,0.1V15c0,0.1,0.1,0.1,0.2,0.1h14c0.1,0,0.2-0.1,0.2-0.1V0.9c0-0.1-0.1-0.1-0.2-0.1H1z"/>
</g>
</svg>
