<?xml version="1.0" encoding="UTF-8"?>
<svg width="13px" height="13px" viewBox="0 0 13 13" version="1.1" xmlns="http://www.w3.org/2000/svg" xmlns:xlink="http://www.w3.org/1999/xlink">
    <title></title>
    <g id="client_velocity" stroke="none" stroke-width="1" fill="none" fill-rule="evenodd">
        <g id="Velocity-Trends_full-view_hover" transform="translate(-398.000000, -217.000000)" fill="#FFFFFF" fill-rule="nonzero">
            <g id="Group-19" transform="translate(121.000000, 40.000000)">
                <g id="Group-11" transform="translate(55.000000, 147.000000)">
                    <path d="M228.5,43 C229.6875,43 230.786458,42.703125 231.796875,42.109375 C232.776042,41.546875 233.546875,40.7760417 234.109375,39.796875 C234.703125,38.7864583 235,37.6875 235,36.5 C235,35.3125 234.703125,34.2135417 234.109375,33.203125 C233.546875,32.2239583 232.776042,31.453125 231.796875,30.890625 C230.786458,30.296875 229.6875,30 228.5,30 C227.322917,30 226.229167,30.296875 225.21875,30.890625 C224.239583,31.4635417 223.463542,32.2395833 222.890625,33.21875 C222.296875,34.2291667 222,35.3229167 222,36.5 C222,37.6770833 222.296875,38.7708333 222.890625,39.78125 C223.453125,40.7604167 224.223958,41.5364583 225.203125,42.109375 C226.213542,42.703125 227.3125,43 228.5,43 Z M228.5,41.71875 C227.5625,41.71875 226.6875,41.4791667 225.875,41 C225.083333,40.5416667 224.458333,39.9166667 224,39.125 C223.520833,38.3125 223.28125,37.4375 223.28125,36.5 C223.28125,35.5625 223.520833,34.6875 224,33.875 C224.458333,33.0833333 225.083333,32.4583333 225.875,32 C226.6875,31.5208333 227.5625,31.28125 228.5,31.28125 C229.4375,31.28125 230.3125,31.5208333 231.125,32 C231.916667,32.4583333 232.541667,33.0833333 233,33.875 C233.479167,34.6875 233.71875,35.5625 233.71875,36.5 C233.71875,37.4375 233.479167,38.3125 233,39.125 C232.541667,39.9166667 231.916667,40.5416667 231.125,41 C230.3125,41.4791667 229.4375,41.71875 228.5,41.71875 Z M229.140625,34.546875 L229.140625,33.234375 L227.859375,33.234375 L227.859375,34.546875 L229.140625,34.546875 Z M229.140625,39.765625 L229.140625,35.859375 L227.859375,35.859375 L227.859375,39.765625 L229.140625,39.765625 Z" id=""></path>
                </g>
            </g>
        </g>
    </g>
</svg>