<?xml version="1.0" encoding="utf-8"?>
<!-- Generator: Adobe Illustrator 24.2.1, SVG Export Plug-In . SVG Version: 6.00 Build 0)  -->
<svg version="1.1" id="Layer_1" xmlns="http://www.w3.org/2000/svg" xmlns:xlink="http://www.w3.org/1999/xlink" x="0px" y="0px"
	 viewBox="0 0 34.8 30" style="enable-background:new 0 0 34.8 30;" xml:space="preserve">
<style type="text/css">
	.st0{fill:#FFFFFF;}
	.st1{fill-rule:evenodd;clip-rule:evenodd;fill:#FFFFFF;}
</style>
<g>
	<path class="st0" d="M34.3,28H0.5C0.2,28,0,27.8,0,27.5S0.2,27,0.5,27h33.8c0.3,0,0.5,0.2,0.5,0.5S34.6,28,34.3,28z"/>
</g>
<g>
	<path class="st0" d="M2.5,30C2.2,30,2,29.8,2,29.5v-29C2,0.2,2.2,0,2.5,0S3,0.2,3,0.5v29C3,29.8,2.8,30,2.5,30z"/>
</g>
<g>
	<path class="st0" d="M8.3,26.9c-0.3,0-0.5-0.2-0.5-0.5V1.9c0-0.3,0.2-0.5,0.5-0.5s0.5,0.2,0.5,0.5v24.5C8.8,26.6,8.6,26.9,8.3,26.9
		z"/>
</g>
<g>
	<path class="st0" d="M13.4,26.9c-0.3,0-0.5-0.2-0.5-0.5V7.7c0-0.3,0.2-0.5,0.5-0.5s0.5,0.2,0.5,0.5v18.7
		C13.9,26.6,13.6,26.9,13.4,26.9z"/>
</g>
<g>
	<path class="st0" d="M18.7,26.9c-0.3,0-0.5-0.2-0.5-0.5v-20c0-0.3,0.2-0.5,0.5-0.5s0.5,0.2,0.5,0.5v20C19.2,26.6,19,26.9,18.7,26.9
		z"/>
</g>
<g>
	<path class="st0" d="M23.7,26.9c-0.3,0-0.5-0.2-0.5-0.5L22.8,4.7c0-0.3,0.2-0.5,0.5-0.5c0.3,0,0.5,0.2,0.5,0.5l0.4,21.6
		C24.2,26.6,24,26.9,23.7,26.9C23.7,26.9,23.7,26.9,23.7,26.9z"/>
</g>
<g>
	<path class="st0" d="M28.7,26.9c-0.3,0-0.5-0.2-0.5-0.5v-18c0-0.3,0.2-0.5,0.5-0.5s0.5,0.2,0.5,0.5v18C29.2,26.6,29,26.9,28.7,26.9
		z"/>
</g>
<g>
	<g id="_x32_a4vhzodic">
		<path class="st1" d="M4.8,6.3h25"/>
	</g>
</g>
<g id="_x32_a4vhzodic_1_">
	<path class="st0" d="M30.3,6.8h-2v-1h2V6.8z M27.3,6.8h-2v-1h2V6.8z M24.3,6.8h-2v-1h2V6.8z M21.3,6.8h-2v-1h2V6.8z M18.3,6.8h-2
		v-1h2V6.8z M15.3,6.8h-2v-1h2V6.8z M12.3,6.8h-2v-1h2V6.8z M9.3,6.8h-2v-1h2V6.8z M6.3,6.8h-2v-1h2V6.8z"/>
</g>
</svg>
