<?xml version="1.0" encoding="utf-8"?>
<!-- Generator: Adobe Illustrator 24.1.2, SVG Export Plug-In . SVG Version: 6.00 Build 0)  -->
<svg version="1.1" id="Layer_1" xmlns="http://www.w3.org/2000/svg" xmlns:xlink="http://www.w3.org/1999/xlink" x="0px" y="0px"
	 viewBox="0 0 29 29" style="enable-background:new 0 0 29 29;" xml:space="preserve">
<polygon style="fill:#FFFFFF;" points="2,14.2 1.2,13.5 7.5,5.6 13.9,11 21.6,0.4 22.4,1 14.1,12.4 7.6,7 "/>
<g>
	<rect x="3.1" y="27.6" style="fill:#FFFFFF;" width="24.7" height="1"/>
</g>
<g>
	<polygon style="fill:#FFFFFF;" points="18.1,28.1 17.1,28.1 17.1,15.7 13.8,15.7 13.8,28.1 12.8,28.1 12.8,14.7 18.1,14.7 	"/>
</g>
<g>
	<polygon style="fill:#FFFFFF;" points="25.6,28.1 24.6,28.1 24.6,7.1 21.3,7.1 21.3,28.1 20.3,28.1 20.3,6.1 25.6,6.1 	"/>
</g>
<g>
	<polygon style="fill:#FFFFFF;" points="10.5,28.1 9.5,28.1 9.5,21.1 6.2,21.1 6.2,28.1 5.2,28.1 5.2,20.1 10.5,20.1 	"/>
</g>
</svg>
