<?xml version="1.0" encoding="utf-8"?>
<!-- Generator: Adobe Illustrator 24.1.0, SVG Export Plug-In . SVG Version: 6.00 Build 0)  -->
<svg version="1.1" id="Layer_1" xmlns="http://www.w3.org/2000/svg" xmlns:xlink="http://www.w3.org/1999/xlink" x="0px" y="0px"
	 viewBox="0 0 101.9 25.1" style="enable-background:new 0 0 101.9 25.1;" xml:space="preserve">
<style type="text/css">
	.st0{opacity:0.2;fill:#2D7EAB;}
</style>
<path class="st0" d="M0,25.1c0,0,0.3-0.4,0.8-1c0.5-0.7,1.2-1.7,2.3-2.8c1-1.2,2.4-2.6,4-4.1c0.8-0.7,1.7-1.5,2.6-2.3
	c1-0.8,2-1.6,3.1-2.4C17.3,9.2,22.9,6,29.5,3.7c3.3-1.1,6.7-2.1,10.3-2.7c3.6-0.6,7.3-0.9,11-1c2,0,3.6,0,5.5,0.2
	c1.9,0.1,3.7,0.4,5.5,0.6c3.6,0.6,7.1,1.4,10.4,2.5c3.3,1.1,6.4,2.4,9.2,3.9c2.8,1.4,5.3,3,7.6,4.6c1.1,0.8,2.2,1.6,3.1,2.4
	c0.9,0.8,1.8,1.6,2.7,2.3c1.6,1.5,3,2.9,4,4.1c1.1,1.1,1.8,2.2,2.4,2.8c0.5,0.7,0.8,1,0.8,1s-0.3-0.3-1-0.8
	c-0.6-0.5-1.6-1.4-2.8-2.3c-1.2-1-2.7-2.1-4.5-3.4c-1.8-1.2-3.8-2.5-6.1-3.8c-2.3-1.3-4.8-2.6-7.6-3.7C77.1,9.1,74.1,8,71,7.1
	c-3.1-0.9-6.5-1.5-9.8-2c-1.7-0.2-3.4-0.4-5.1-0.5c-1.6-0.1-3.6-0.1-5.2-0.1c-3.5,0-6.9,0.3-10.3,0.8c-3.4,0.6-6.7,1.2-9.8,2.2
	c-3.1,1-6.1,2-8.8,3.3c-2.8,1.2-5.3,2.6-7.6,3.8c-1.1,0.7-2.2,1.4-3.2,2c-1,0.7-2,1.3-2.8,1.9c-1.7,1.3-3.3,2.4-4.4,3.4
	c-1.2,1-2.1,1.8-2.8,2.4C0.3,24.8,0,25.1,0,25.1z"/>
</svg>
