<?xml version="1.0" encoding="utf-8"?>
<!-- Generator: Adobe Illustrator 24.3.0, SVG Export Plug-In . SVG Version: 6.00 Build 0)  -->
<svg version="1.1" id="Layer_1" xmlns="http://www.w3.org/2000/svg" xmlns:xlink="http://www.w3.org/1999/xlink" x="0px" y="0px"
	 viewBox="0 0 20 20" style="enable-background:new 0 0 20 20;" xml:space="preserve">
<style type="text/css">
	.st0{fill:#FFFFFF;}
</style>
<path class="st0" d="M5,0C2.3,0,0,2.3,0,5v10c0,2.7,2.3,5,5,5h10c2.7,0,5-2.3,5-5V5c0-2.7-2.3-5-5-5H5z M5,2h10c1.7,0,3,1.3,3,3v10
	c0,1.7-1.3,3-3,3H5c-1.7,0-3-1.3-3-3V5C2,3.3,3.3,2,5,2z M4.5,7C4.2,7,4,7.2,4,7.5S4.2,8,4.5,8S5,7.8,5,7.5S4.8,7,4.5,7z M8.6,7.2
	c-1.5,0-2.5,1.1-2.5,2.8c0,1.7,0.9,2.8,2.5,2.8c1.5,0,2.4-1.1,2.4-2.8C11.1,8.2,10.1,7.2,8.6,7.2z M13.6,7.2
	c-0.9,0.1-1.5,0.7-1.5,1.5c0,0.8,0.4,1.2,1.4,1.5l0.7,0.2c0.7,0.2,1,0.4,1,0.8c0,0.5-0.5,0.8-1.1,0.8c-0.7,0-1.2-0.3-1.2-0.8H12
	c0.1,0.9,0.8,1.5,2,1.5c1.2,0,2-0.6,2-1.6c0-0.8-0.5-1.2-1.5-1.5l-0.6-0.1c-0.7-0.2-1-0.4-1-0.8c0-0.5,0.4-0.8,1.1-0.8
	c0.6,0,1,0.3,1.1,0.8h0.8c0-0.9-0.8-1.5-1.9-1.5C13.8,7.2,13.7,7.1,13.6,7.2z M8.6,7.9c1,0,1.6,0.8,1.6,2c0,1.2-0.6,2-1.6,2
	c-1,0-1.6-0.8-1.6-2C7,8.7,7.6,7.9,8.6,7.9z M4,9v3.7h0.9V9H4z"/>
</svg>
