<?xml version="1.0" encoding="utf-8"?>
<!-- Generator: Adobe Illustrator 24.0.3, SVG Export Plug-In . SVG Version: 6.00 Build 0)  -->
<svg version="1.1" id="Layer_1" xmlns="http://www.w3.org/2000/svg" xmlns:xlink="http://www.w3.org/1999/xlink" x="0px" y="0px"
	 viewBox="0 0 1966 1966" style="enable-background:new 0 0 1966 1966;" xml:space="preserve">
<style type="text/css">
	.st0{fill:#404137;}
	.st1{fill:#83CD29;}
</style>
<path class="st0" d="M1323.1,1100.6c-1.8,0-3.7,0.5-5.3,1.4c-3.2,1.9-5.3,5.4-5.3,9.1v268.8c0,2.6-1.2,5-3.5,6.3
	c-2.3,1.3-5.1,1.3-7.4,0l-43.9-25.3c-6.5-3.8-14.6-3.8-21.1,0l-175.3,101.2c-6.6,3.8-10.5,11.1-10.5,18.6v202.4
	c0,7.6,4,14.5,10.5,18.3l175.3,101.2c6.5,3.8,14.6,3.8,21.1,0l175.3-101.2c6.5-3.8,10.6-10.7,10.5-18.3v-504.5
	c0-7.7-4.2-14.8-10.9-18.6l-104.3-58.3C1326.7,1100.7,1324.9,1100.6,1323.1,1100.6L1323.1,1100.6z M195.3,1353.2
	c-3.3,0.1-6.5,0.7-9.5,2.5L10.5,1456.8C4,1460.6,0,1467.6,0,1475.1l0.4,271.6c0,3.8,1.9,7.3,5.3,9.1c3.2,1.9,7.3,1.9,10.5,0
	l104-59.7c6.6-3.9,10.9-10.7,10.9-18.3V1551c0-7.6,4-14.5,10.5-18.3l44.3-25.6c3.2-1.9,6.8-2.8,10.5-2.8c3.6,0,7.3,0.9,10.5,2.8
	l44.3,25.6c6.5,3.8,10.6,10.7,10.5,18.3v126.8c0,7.5,4.3,14.4,10.9,18.3l104,59.7c3.2,1.9,7.3,1.9,10.5,0c3.3-1.9,5.3-5.4,5.3-9.1
	l0.3-271.6c0-7.5-4-14.5-10.5-18.3l-175.3-101.2c-3-1.7-6.1-2.3-9.5-2.5H195.3z M1770.6,1355.7c-3.7,0-7.3,0.9-10.5,2.8
	l-175.3,101.2c-6.5,3.8-10.6,10.7-10.5,18.3v202.4c0,7.6,4.3,14.5,10.9,18.3l173.9,99.1c6.4,3.7,14.3,3.9,20.7,0.3l105.4-58.7
	c3.3-1.9,5.6-5.3,5.6-9.1c0-3.8-2-7.3-5.3-9.1l-176.4-101.2c-3.3-1.9-5.6-5.7-5.6-9.5v-63.2c0-3.8,2.3-7.3,5.6-9.1l54.8-31.6
	c3.3-1.9,7.3-1.9,10.5,0l54.8,31.6c3.3,1.9,5.3,5.4,5.3,9.1v49.9c0,3.8,2,7.3,5.3,9.1c3.3,1.9,7.3,1.9,10.5,0l105-61.1
	c6.5-3.8,10.5-10.7,10.5-18.3v-48.8c0-7.5-4-14.5-10.5-18.3l-174.3-101.2C1778,1356.6,1774.3,1355.6,1770.6,1355.7L1770.6,1355.7z
	 M1246.5,1506.7c0.9,0,2,0.2,2.8,0.7l60.1,34.8c1.6,0.9,2.8,2.7,2.8,4.6v69.6c0,1.9-1.2,3.6-2.8,4.6l-60.1,34.8
	c-1.6,0.9-3.6,0.9-5.3,0l-60.1-34.8c-1.6-0.9-2.8-2.7-2.8-4.6v-69.6c0-1.9,1.2-3.6,2.8-4.6l60.1-34.8
	C1244.7,1507,1245.6,1506.7,1246.5,1506.7L1246.5,1506.7L1246.5,1506.7z"/>
<path class="st1" d="M722,1354.6c-3.7,0-7.3,0.9-10.5,2.8l-175.3,100.8c-6.6,3.8-10.5,11.1-10.5,18.6v202.4c0,7.6,4,14.5,10.5,18.3
	l175.3,101.2c6.5,3.8,14.6,3.8,21.1,0l175.3-101.2c6.5-3.8,10.6-10.7,10.5-18.3v-202.4c0-7.6-4-14.8-10.5-18.6l-175.3-100.8
	C729.3,1355.6,725.7,1354.6,722,1354.6L722,1354.6z M1770.3,1535.2c-0.7,0-1.5,0-2.1,0.4l-33.7,19.7c-1.3,0.7-2.1,2.1-2.1,3.5v38.6
	c0,1.5,0.8,2.8,2.1,3.5l33.7,19.3c1.3,0.7,2.6,0.7,3.9,0l33.7-19.3c1.3-0.7,2.1-2,2.1-3.5v-38.6c0-1.5-0.8-2.8-2.1-3.5l-33.7-19.7
	C1771.4,1535.2,1771,1535.2,1770.3,1535.2L1770.3,1535.2z"/>
</svg>
