<?xml version="1.0" encoding="utf-8"?>
<!-- Generator: Adobe Illustrator 24.0.3, SVG Export Plug-In . SVG Version: 6.00 Build 0)  -->
<svg version="1.1" id="Layer_2_1_" xmlns="http://www.w3.org/2000/svg" xmlns:xlink="http://www.w3.org/1999/xlink" x="0px" y="0px"
	 viewBox="0 0 300 300" style="enable-background:new 0 0 300 300;" xml:space="preserve">
<style type="text/css">
	.st0{fill:#61DAFB;}
</style>
<g>
	<path class="st0" d="M299,152c0-19.7-24.7-38.4-62.6-50c8.7-38.6,4.9-69.3-12.3-79.1c-3.9-2.3-8.6-3.4-13.6-3.4V33
		c2.8,0,5,0.5,6.9,1.6c8.3,4.7,11.8,22.8,9,45.9c-0.7,5.7-1.8,11.7-3.1,17.8c-11.9-2.9-24.9-5.2-38.5-6.6
		c-8.2-11.2-16.7-21.4-25.2-30.3c19.8-18.4,38.3-28.5,51-28.5V19.4l0,0c-16.7,0-38.5,11.9-60.6,32.5C128,31.4,106.1,19.7,89.4,19.7
		v13.5c12.6,0,31.2,10,51,28.3c-8.5,8.9-17,19.1-25.1,30.3c-13.7,1.5-26.7,3.7-38.6,6.7c-1.4-6.1-2.4-12-3.2-17.6
		c-2.9-23.2,0.7-41.2,8.9-46c1.8-1.1,4.2-1.6,7-1.6V19.7l0,0c-5.1,0-9.7,1.1-13.7,3.4c-17,9.8-20.9,40.5-12.1,78.9
		C25.9,113.7,1.3,132.3,1.3,152c0,19.7,24.7,38.4,62.6,50c-8.7,38.6-4.9,69.3,12.3,79.1c3.9,2.3,8.6,3.4,13.7,3.4
		c16.7,0,38.5-11.9,60.6-32.5c22.1,20.5,43.9,32.3,60.6,32.3c5.1,0,9.7-1.1,13.7-3.4c17-9.8,20.9-40.5,12.1-78.9
		C274.4,190.3,299,171.7,299,152z M220,111.5c-2.2,7.8-5,15.9-8.2,24c-2.5-4.9-5.1-9.7-7.9-14.6c-2.8-4.9-5.8-9.6-8.7-14.2
		C203.7,108,212.1,109.6,220,111.5z M192.2,176.1c-4.7,8.2-9.6,16-14.6,23.2c-9,0.8-18.2,1.2-27.4,1.2c-9.2,0-18.3-0.4-27.3-1.2
		c-5-7.2-10-14.9-14.7-23.1c-4.6-7.9-8.8-16-12.6-24.1c3.8-8.1,8-16.3,12.6-24.2c4.7-8.2,9.6-16,14.6-23.2c9-0.8,18.2-1.2,27.4-1.2
		c9.2,0,18.3,0.4,27.3,1.2c5,7.2,10,14.9,14.7,23.1c4.6,7.9,8.8,16,12.6,24.1C200.9,160.1,196.8,168.2,192.2,176.1z M211.8,168.3
		c3.3,8.1,6.1,16.3,8.4,24.1c-7.9,1.9-16.3,3.6-25,4.9c3-4.7,5.9-9.5,8.7-14.4C206.7,178,209.3,173.1,211.8,168.3z M150.3,233
		c-5.6-5.8-11.3-12.3-16.9-19.4c5.5,0.2,11,0.4,16.7,0.4c5.7,0,11.3-0.1,16.9-0.4C161.5,220.7,155.9,227.2,150.3,233z M105.1,197.3
		c-8.6-1.3-16.9-2.9-24.9-4.8c2.2-7.8,5-15.9,8.2-24c2.5,4.9,5.1,9.7,7.9,14.6C99.3,187.9,102.2,192.6,105.1,197.3z M150,71
		c5.6,5.8,11.3,12.3,16.9,19.4c-5.5-0.2-11-0.4-16.7-0.4c-5.7,0-11.3,0.1-16.9,0.4C138.8,83.3,144.4,76.8,150,71z M105.1,106.7
		c-3,4.7-5.9,9.5-8.7,14.4c-2.8,4.9-5.4,9.7-7.9,14.6c-3.3-8.1-6.1-16.3-8.4-24.1C88,109.6,96.4,108,105.1,106.7z M50.2,182.7
		c-21.5-9.2-35.4-21.2-35.4-30.7s13.9-21.6,35.4-30.7c5.2-2.2,10.9-4.2,16.8-6.1c3.5,11.9,8,24.3,13.7,37
		c-5.6,12.6-10.1,24.9-13.5,36.8C61.2,187,55.4,184.9,50.2,182.7z M82.8,269.4c-8.3-4.7-11.8-22.8-9-45.9c0.7-5.7,1.8-11.7,3.1-17.8
		c11.9,2.9,24.9,5.2,38.5,6.6c8.2,11.2,16.7,21.4,25.2,30.3c-19.8,18.4-38.3,28.5-51,28.5C86.9,271,84.6,270.4,82.8,269.4z
		 M226.7,223.2c2.9,23.2-0.7,41.2-8.9,46c-1.8,1.1-4.2,1.6-7,1.6c-12.6,0-31.2-10-51-28.3c8.5-8.9,17-19.1,25.1-30.3
		c13.7-1.5,26.7-3.7,38.6-6.7C225,211.6,226.1,217.5,226.7,223.2z M250.1,182.7c-5.2,2.2-10.9,4.2-16.8,6.1
		c-3.5-11.9-8-24.3-13.7-37c5.6-12.6,10.1-24.9,13.5-36.8c6,1.9,11.7,3.9,17,6.2c21.5,9.2,35.4,21.2,35.4,30.7
		C285.5,161.5,271.6,173.6,250.1,182.7z"/>
	<path class="st0" d="M89.4,19.7L89.4,19.7L89.4,19.7z"/>
	<circle class="st0" cx="150.1" cy="152" r="27.7"/>
	<path class="st0" d="M210.5,19.5L210.5,19.5L210.5,19.5z"/>
</g>
</svg>
