<?xml version="1.0" encoding="utf-8"?>
<!-- Generator: Adobe Illustrator 24.0.3, SVG Export Plug-In . SVG Version: 6.00 Build 0)  -->
<svg version="1.1" id="svg2816" xmlnsSvg="http://www.w3.org/2000/svg"
	 xmlns="http://www.w3.org/2000/svg" xmlnsXlink="http://www.w3.org/1999/xlink" x="0px" y="0px" viewBox="0 0 200 200"
	 style="enable-background:new 0 0 200 200;" xmlSpace="preserve">
<style type="text/css">
	.st0{fill:url(#path12339_1_);}
	.st1{fill:url(#path12367_1_);}
	.st2{fill:#14559A;}
	.st3{fill:url(#path12459_1_);}
	.st4{fill:#3092C4;}
	.st5{fill:#1969BC;}
	.st6{fill:url(#path12553_1_);}
	.st7{fill:url(#path12581_1_);}
	.st8{fill:url(#path12651_1_);}
	.st9{fill:#2B74B1;}
	.st10{fill:#125A9E;}
	.st11{fill:url(#path12741_1_);}
	.st12{fill:url(#path12803_1_);}
	.st13{fill:#0D82CA;}
	.st14{fill:url(#path12831_1_);}
	.st15{fill:#127BCA;}
	.st16{fill:url(#path12923_1_);}
	.st17{fill:url(#path12949_1_);}
	.st18{fill:#05A1E6;}
	.st19{fill:url(#path12981_1_);}
	.st20{fill:url(#path13003_1_);}
	.st21{fill:url(#path13093_1_);}
	.st22{fill:#079AE1;}
	.st23{fill:#1E5CB3;}
	.st24{fill:#1D60B5;}
	.st25{fill:#175FAB;}
	.st26{fill:url(#path13139_1_);}
	.st27{fill:#7DCBEC;}
	.st28{fill:#5EC5ED;}
	.st29{fill:url(#path13245_1_);}
	.st30{fill:url(#path13255_1_);}
	.st31{fill:url(#path13333_1_);}
</style>
<g id="layer1" transform="translate(-937.60684,-1834.4815)">
	<path id="path12245" d="M1102.6,2018.5h-1.7v5.4h-0.7v-5.4h-1.7v-0.6h4.2V2018.5L1102.6,2018.5z"/>
	<path id="path12257" d="M1109.7,2023.9h-0.7v-4.1c0-0.3,0-0.7,0.1-1.2l0,0c-0.1,0.2-0.1,0.5-0.2,0.6l-2.1,4.7h-0.4l-2.1-4.6
		c-0.1-0.1-0.1-0.3-0.2-0.6l0,0c0,0.2,0.1,0.6,0.1,1.2v4.1h-0.7v-6.1h0.9l1.9,4.2c0.1,0.3,0.2,0.6,0.2,0.7l0,0
		c0.1-0.3,0.2-0.6,0.3-0.7l1.9-4.2h0.9L1109.7,2023.9L1109.7,2023.9z"/>
	
		<linearGradient id="path12339_1_" gradientUnits="userSpaceOnUse" x1="1847.8584" y1="-50.3702" x2="1848.4824" y2="-50.3702" gradientTransform="matrix(0 149.7346 -149.7346 0 -6516.6743 -274739.3438)">
		<stop  offset="0" style="stop-color:#0994DC"/>
		<stop  offset="0.35" style="stop-color:#66CEF5"/>
		<stop  offset="0.35" style="stop-color:#66CEF5"/>
		<stop  offset="0.8462" style="stop-color:#127BCA"/>
		<stop  offset="0.8462" style="stop-color:#127BCA"/>
		<stop  offset="1" style="stop-color:#127BCA"/>
	</linearGradient>
	<path id="path12339" class="st0" d="M1007.9,1963.7c7.1,21.6,9.7,60.1,30.4,60.1l0,0c1.6,0,3.2-0.1,4.7-0.4l0,0
		c-18.8-4.4-21-42.5-32.5-62.2l0,0C1009.7,1962,1008.9,1962.9,1007.9,1963.7"/>
	
		<linearGradient id="path12367_1_" gradientUnits="userSpaceOnUse" x1="1847.7977" y1="-50.3595" x2="1848.4219" y2="-50.3595" gradientTransform="matrix(0 153.5506 -153.5506 0 -6703.6929 -281783.8438)">
		<stop  offset="0" style="stop-color:#0E76BC"/>
		<stop  offset="0.36" style="stop-color:#36AEE8"/>
		<stop  offset="0.36" style="stop-color:#36AEE8"/>
		<stop  offset="0.8462" style="stop-color:#00ADEF"/>
		<stop  offset="0.8462" style="stop-color:#00ADEF"/>
		<stop  offset="1" style="stop-color:#00ADEF"/>
	</linearGradient>
	<path id="path12367" class="st1" d="M1010.6,1961.2c11.4,19.7,13.7,57.9,32.5,62.2l0,0c1.5-0.2,2.9-0.7,4.4-1.2l0,0
		c-16.9-8.2-21.5-45.2-34.5-63l0,0C1012.2,1959.8,1011.4,1960.5,1010.6,1961.2"/>
	<path id="path12379" class="st2" d="M1027.1,1949.4c-1.6,0-3.2,0.1-4.7,0.4c-4.2,0.8-8.4,2.6-12.7,5.3c1.2,1.1,2.3,2.5,3.3,3.9
		c4.4-3.6,8.7-6.3,13-7.9c1.6-0.6,3.2-1.1,4.9-1.4C1029.6,1949.6,1028.4,1949.4,1027.1,1949.4"/>
	
		<linearGradient id="path12459_1_" gradientUnits="userSpaceOnUse" x1="1841.9578" y1="-50.7715" x2="1842.5819" y2="-50.7715" gradientTransform="matrix(0 -122.178 122.178 0 7251.4814 227068.4531)">
		<stop  offset="0" style="stop-color:#1C63B7"/>
		<stop  offset="0.5" style="stop-color:#33BDF2"/>
		<stop  offset="1" style="stop-color:#33BDF2;stop-opacity:0.4196"/>
	</linearGradient>
	<path id="path12459" class="st3" d="M1060.7,2014.6c1.7-1.4,3.4-2.9,5.2-4.6c-7.2-21.5-9.7-60.5-30.5-60.5c-1.5,0-3,0.1-4.5,0.4
		C1049.7,1954.6,1052.2,1995.8,1060.7,2014.6"/>
	<path id="path12521" class="st4" d="M1030.8,1949.9c-1.2-0.3-2.4-0.4-3.7-0.4h8.2C1033.8,1949.5,1032.3,1949.6,1030.8,1949.9"/>
	<path id="path12525" class="st5" d="M1060.3,2019.2c-0.8-0.7-1.6-1.6-2.4-2.6c-3.5,2.5-7,4.4-10.4,5.6c1.2,0.6,2.5,1.1,3.9,1.3
		c1.1,0.2,2.2,0.3,3.3,0.3c3.9,0,6.9-0.4,9.5-1.7C1062.8,2021.3,1061.5,2020.3,1060.3,2019.2"/>
	
		<linearGradient id="path12553_1_" gradientUnits="userSpaceOnUse" x1="1847.7332" y1="-50.3115" x2="1848.3573" y2="-50.3115" gradientTransform="matrix(0 159.4252 -159.4252 0 -6977.6494 -292638.3438)">
		<stop  offset="0" style="stop-color:#166AB8"/>
		<stop  offset="0.4" style="stop-color:#36AEE8"/>
		<stop  offset="0.4" style="stop-color:#36AEE8"/>
		<stop  offset="0.8462" style="stop-color:#0798DD"/>
		<stop  offset="0.8462" style="stop-color:#0798DD"/>
		<stop  offset="1" style="stop-color:#0798DD"/>
	</linearGradient>
	<path id="path12553" class="st6" d="M1026,1951.3c17,8.9,18.4,49.1,32,65.3l0,0c0.9-0.6,1.8-1.3,2.7-2.1l0,0
		c-8.5-18.8-10.9-60-29.8-64.7l0,0C1029.2,1950.2,1027.6,1950.6,1026,1951.3"/>
	
		<linearGradient id="path12581_1_" gradientUnits="userSpaceOnUse" x1="1847.5712" y1="-50.3503" x2="1848.1952" y2="-50.3503" gradientTransform="matrix(0 169.5276 -169.5276 0 -7500.3296 -311276.875)">
		<stop  offset="0" style="stop-color:#124379"/>
		<stop  offset="0.39" style="stop-color:#1487CB"/>
		<stop  offset="0.39" style="stop-color:#1487CB"/>
		<stop  offset="0.7802" style="stop-color:#165197"/>
		<stop  offset="0.7802" style="stop-color:#165197"/>
		<stop  offset="1" style="stop-color:#165197"/>
	</linearGradient>
	<path id="path12581" class="st7" d="M1013,1959.1c13,17.8,17.7,54.8,34.5,63l0,0c3.4-1.2,6.9-3.1,10.4-5.6l0,0
		c-13.5-16.3-15-56.5-32-65.3l0,0C1021.6,1952.9,1017.3,1955.6,1013,1959.1"/>
	
		<linearGradient id="path12651_1_" gradientUnits="userSpaceOnUse" x1="2803.8357" y1="2119.6289" x2="2807.5398" y2="2119.6289" gradientTransform="matrix(4.0385 0 0 4.0385 -10330.335 -6590.1719)">
		<stop  offset="0" style="stop-color:#33BDF2;stop-opacity:0.698"/>
		<stop  offset="1" style="stop-color:#1DACD8"/>
	</linearGradient>
	<path id="path12651" class="st8" d="M999.6,1963.2c-2.1,4.6-4.1,10.7-6.6,18.6c5-7.1,10-13.1,15-18c-0.7-2.1-1.4-4.1-2.2-5.7
		C1003.7,1959.6,1001.7,1961.3,999.6,1963.2"/>
	<path id="path12655" class="st9" d="M1007.5,1956.7c-0.6,0.4-1.2,0.9-1.8,1.3c0.8,1.7,1.5,3.7,2.2,5.7c0.9-0.9,1.8-1.7,2.7-2.6
		C1009.7,1959.6,1008.7,1958,1007.5,1956.7"/>
	<path id="path12659" class="st10" d="M1009.7,1955.3c-0.7,0.4-1.4,0.9-2.1,1.4c1.1,1.4,2.1,2.9,3.1,4.6c0.8-0.7,1.6-1.4,2.4-2.1
		C1012,1957.7,1010.8,1956.4,1009.7,1955.3"/>
	
		<linearGradient id="path12741_1_" gradientUnits="userSpaceOnUse" x1="1841.866" y1="-51.0675" x2="1842.4901" y2="-51.0675" gradientTransform="matrix(0 -119.0183 119.0183 0 7183.2173 221235.5938)">
		<stop  offset="0" style="stop-color:#136AB4"/>
		<stop  offset="0.6" style="stop-color:#59CAF5;stop-opacity:0.549"/>
		<stop  offset="1" style="stop-color:#59CAF5;stop-opacity:0.2353"/>
	</linearGradient>
	<path id="path12741" class="st11" d="M1125.4,1947.8c-9.6,37-29.6,66.7-46.4,74.2h-0.1c-0.3,0.1-0.6,0.2-0.9,0.4
		c-0.1,0-0.1,0-0.1,0.1c-0.1,0.1-0.2,0.1-0.2,0.1c-0.1,0-0.1,0.1-0.1,0.1c-0.1,0.1-0.2,0.1-0.4,0.1c-0.1,0-0.1,0.1-0.2,0.1
		c-0.1,0-0.1,0.1-0.2,0.1c-0.1,0-0.1,0.1-0.2,0.1c-0.1,0-0.1,0.1-0.2,0.1c-0.1,0.1-0.2,0.1-0.4,0.1c-0.1,0-0.1,0-0.1,0.1
		c-0.1,0-0.2,0.1-0.2,0.1s-0.1,0.1-0.2,0.1c-0.1,0-0.2,0.1-0.2,0.1c-0.1,0-0.2,0.1-0.3,0.1c0.7,0.2,1.6,0.4,2.4,0.4
		c15.9,0,32-28.5,58.5-76L1125.4,1947.8L1125.4,1947.8z"/>
	
		<linearGradient id="path12803_1_" gradientUnits="userSpaceOnUse" x1="2790.6797" y1="2124.0103" x2="2804.4185" y2="2124.0103" gradientTransform="matrix(4.0385 0 0 4.0385 -10330.335 -6590.1719)">
		<stop  offset="0" style="stop-color:#05A1E6;stop-opacity:0.2471"/>
		<stop  offset="1" style="stop-color:#05A1E6"/>
	</linearGradient>
	<path id="path12803" class="st12" d="M989.5,1950.9C989.5,1950.9,989.6,1950.9,989.5,1950.9
		C989.6,1950.9,989.6,1950.9,989.5,1950.9L989.5,1950.9c0.1-0.1,0.2-0.1,0.3-0.2h0.1h0.1c0.1,0,0.2-0.1,0.2-0.1l0,0
		c0.2-0.1,0.4-0.1,0.6-0.2h0.1c0.1,0,0.2-0.1,0.2-0.1s0.1,0,0.1-0.1c0.1,0,0.2-0.1,0.2-0.1c0.1,0,0.1,0,0.1,0
		c0.3-0.1,0.6-0.2,0.9-0.2c0.1,0,0.1,0,0.1,0c0.1,0,0.2-0.1,0.2-0.1c0.1,0,0.1,0,0.1-0.1c0.1,0,0.2,0,0.2-0.1h0.1
		c0.2-0.1,0.4-0.1,0.6-0.1c0.1,0,0.1,0,0.1,0c0.1,0,0.2,0,0.2-0.1c0.1,0,0.1,0,0.1,0c0.1,0,0.2,0,0.2-0.1c0.1,0,0.1,0,0.1,0
		c0.2,0,0.4-0.1,0.6-0.1c-0.6-0.1-1.1-0.1-1.7-0.1c-17.9,0-42.6,33.3-53.8,76.4c0,0,0.8,0,2.1,0c3.6-6.4,6.7-12.4,9.7-18
		C959.5,1977.3,975.4,1956.5,989.5,1950.9"/>
	<path id="path12807" class="st13" d="M999.6,1963.2c2.1-1.9,4.1-3.7,6.1-5.2c-0.4-1-0.9-1.9-1.4-2.8
		C1002.6,1957.2,1001.1,1959.8,999.6,1963.2"/>
	<path id="path12811" class="st13" d="M1001.1,1951.2c1.2,1,2.2,2.3,3.2,3.9c0.3-0.4,0.6-0.7,0.9-1.1c-1.3-1.2-2.7-2.2-4.3-3.1
		C1000.9,1951.1,1001,1951.2,1001.1,1951.2C1001,1951.2,1001,1951.2,1001.1,1951.2"/>
	
		<linearGradient id="path12831_1_" gradientUnits="userSpaceOnUse" x1="1841.9493" y1="-50.3866" x2="1842.5735" y2="-50.3866" gradientTransform="matrix(0 -121.8652 121.8652 0 7110.9951 226491.1562)">
		<stop  offset="0" style="stop-color:#318ED5"/>
		<stop  offset="1" style="stop-color:#38A7E4"/>
	</linearGradient>
	<path id="path12831" class="st14" d="M951.7,2007.9c16.4-31.5,24.1-51.5,37.8-56.9l0,0C975.4,1956.5,959.5,1977.3,951.7,2007.9"/>
	<path id="path12843" class="st15" d="M1005.2,1954.1c-0.3,0.3-0.6,0.7-0.9,1.1c0.5,0.9,1,1.8,1.4,2.8c0.6-0.4,1.2-0.9,1.8-1.3
		C1006.8,1955.8,1006,1954.9,1005.2,1954.1"/>
	
		<linearGradient id="path12923_1_" gradientUnits="userSpaceOnUse" x1="1841.8617" y1="-50.4082" x2="1842.4858" y2="-50.4082" gradientTransform="matrix(0 -118.4596 118.4596 0 6946.6978 220208.125)">
		<stop  offset="0" style="stop-color:#05A1E6"/>
		<stop  offset="1" style="stop-color:#05A1E6;stop-opacity:0.549"/>
	</linearGradient>
	<path id="path12923" class="st16" d="M959.2,2025.7L959.2,2025.7c-0.1,0-0.2,0-0.3,0.1c-0.1,0-0.1,0-0.1,0c-0.1,0-0.2,0-0.2,0h-0.1
		c-0.2,0-0.4,0-0.6,0.1h-0.1c16.5-0.4,24.2-8.7,27.9-20.8c2.9-9.1,5.2-16.8,7.2-23.2c-6.9,9.7-13.9,21.4-20.9,34.5
		C968.7,2022.5,963.5,2025.2,959.2,2025.7"/>
	
		<linearGradient id="path12949_1_" gradientUnits="userSpaceOnUse" x1="1841.3004" y1="-50.4154" x2="1841.9252" y2="-50.4154" gradientTransform="matrix(0 -100.1002 100.1002 0 6025.9868 186340.25)">
		<stop  offset="0" style="stop-color:#1959A6"/>
		<stop  offset="0.5" style="stop-color:#05A1E6"/>
		<stop  offset="0.5" style="stop-color:#05A1E6"/>
		<stop  offset="0.9176" style="stop-color:#7EC5EA"/>
		<stop  offset="1" style="stop-color:#7EC5EA"/>
	</linearGradient>
	<path id="path12949" class="st17" d="M959.2,2025.7L959.2,2025.7c4.4-0.6,9.5-3.2,12.9-9.5l0,0c7-13,14-24.7,20.9-34.5l0,0
		c2.5-7.9,4.6-14,6.6-18.6l0,0C985.8,1976.3,972,1998.3,959.2,2025.7"/>
	<path id="path12961" class="st18" d="M951.7,2007.9c-2.9,5.6-6.1,11.7-9.7,18c1.6,0,3.7,0,6.2,0
		C949.1,2019.5,950.2,2013.5,951.7,2007.9"/>
	
		<linearGradient id="path12981_1_" gradientUnits="userSpaceOnUse" x1="1841.6632" y1="-51.0313" x2="1842.2878" y2="-51.0313" gradientTransform="matrix(-19.138 -108.5369 108.5369 -19.138 41766.3789 200933.5312)">
		<stop  offset="0" style="stop-color:#165096"/>
		<stop  offset="1" style="stop-color:#0D82CA"/>
	</linearGradient>
	<path id="path12981" class="st19" d="M994.8,1949.6c-0.1,0-0.1,0-0.1,0l0,0c-0.1,0-0.1,0-0.2,0.1l0,0c-0.1,0-0.1,0-0.1,0l0,0
		c-0.1,0-0.2,0-0.2,0.1l0,0c-0.1,0-0.1,0-0.1,0l0,0c-0.2,0-0.4,0.1-0.6,0.1l0,0h-0.1l0,0c-0.1,0-0.2,0.1-0.2,0.1l0,0
		c-0.1,0-0.1,0-0.1,0.1l0,0c-0.1,0-0.2,0.1-0.2,0.1l0,0c-0.1,0-0.1,0-0.1,0l0,0c-0.3,0.1-0.6,0.1-0.9,0.2l0,0c0,0-0.1,0-0.1,0l0,0
		c-0.1,0-0.2,0.1-0.2,0.1l0,0c-0.1,0-0.1,0-0.1,0.1l0,0c-0.1,0-0.2,0.1-0.2,0.1l0,0c-0.1,0-0.1,0-0.1,0l0,0
		c-0.2,0.1-0.4,0.1-0.6,0.2l0,0l0,0l0,0c-0.1,0-0.2,0.1-0.2,0.1l0,0c-0.1,0-0.1,0-0.1,0.1l0,0c-0.1,0-0.2,0.1-0.2,0.1l0,0
		c0,0-0.1,0-0.1,0.1l0,0c-13.7,5.4-21.4,25.3-37.8,56.9l0,0c-1.4,5.7-2.6,11.7-3.4,18l0,0h0.9c2.5,0,3.2,0,6,0l0,0h0.1h0.4h0.1h0.1
		h0.1h0.1h0.1h0.1h0.4h0.4h0.3h0.1c0.2,0,0.4,0,0.5,0l0,0c0.2,0,0.4,0,0.6-0.1l0,0h0.1l0,0c0.1,0,0.2,0,0.2,0l0,0c0.1,0,0.1,0,0.1,0
		l0,0c0.1,0,0.2,0,0.3-0.1l0,0l0,0c12.8-27.5,26.6-49.3,40.4-62.5l0,0c1.5-3.4,3-6.1,4.7-8.1l0,0c-0.9-1.6-2-3-3.2-3.9l0,0h-0.1l0,0
		c-0.1,0-0.1-0.1-0.2-0.1l0,0c-0.1-0.1-0.1-0.1-0.2-0.1l0,0c-0.1,0-0.1-0.1-0.2-0.1l0,0c-0.1,0-0.1-0.1-0.2-0.1l0,0
		c-0.1,0-0.1-0.1-0.2-0.1l0,0c-0.1-0.1-0.2-0.1-0.4-0.1l0,0c-0.1,0-0.1-0.1-0.1-0.1l0,0c-0.1,0-0.2-0.1-0.2-0.1l0,0
		c-0.1,0-0.1,0-0.1-0.1l0,0c-0.1-0.1-0.2-0.1-0.4-0.1l0,0c-0.1,0-0.1,0-0.1,0l0,0c-0.1-0.1-0.3-0.1-0.4-0.1l0,0c-0.1,0-0.1,0-0.1,0
		l0,0c-0.1-0.1-0.2-0.1-0.4-0.1l0,0c-0.1,0-0.1,0-0.1,0l0,0c-0.3-0.1-0.6-0.1-0.9-0.2l0,0c-0.1,0-0.1,0-0.1,0l0,0
		c-0.1,0-0.2-0.1-0.4-0.1l0,0c-0.1,0-0.1,0-0.1,0l0,0c-0.2,0-0.3-0.1-0.4-0.1l0,0c-0.1,0-0.1,0-0.1,0l0,0c-0.1,0-0.2,0-0.4-0.1l0,0
		C995.2,1949.6,995,1949.6,994.8,1949.6"/>
	
		<linearGradient id="path13003_1_" gradientUnits="userSpaceOnUse" x1="1837.9869" y1="-51.5538" x2="1838.6111" y2="-51.5538" gradientTransform="matrix(0 -56.7206 56.7206 0 4016.77 106235.1406)">
		<stop  offset="0" style="stop-color:#05A1E6"/>
		<stop  offset="0.8736" style="stop-color:#0495D6"/>
		<stop  offset="1" style="stop-color:#0495D6"/>
	</linearGradient>
	<path id="path13003" class="st20" d="M1087.9,1968.3c-3.1,10.1-5.7,18.4-7.9,25.2l0,0c8.6-11.9,17.2-26.8,25.2-44.1l0,0
		C1095.8,1952.4,1090.7,1959.2,1087.9,1968.3"/>
	
		<linearGradient id="path13093_1_" gradientUnits="userSpaceOnUse" x1="1848.2786" y1="-50.5367" x2="1848.9027" y2="-50.5367" gradientTransform="matrix(-23.0627 130.7947 -130.7947 -23.0627 37125.6016 -240965.75)">
		<stop  offset="0" style="stop-color:#38A7E4;stop-opacity:0.3294"/>
		<stop  offset="0.9615" style="stop-color:#0E88D3"/>
		<stop  offset="0.9615" style="stop-color:#0E88D3"/>
		<stop  offset="1" style="stop-color:#0E88D3"/>
	</linearGradient>
	<path id="path13093" class="st21" d="M1080.2,2021.4c-0.4,0.2-0.9,0.4-1.3,0.6c16.8-7.5,36.8-37.2,46.4-74.2h-1.9
		C1101.4,1987.2,1094.3,2013.5,1080.2,2021.4"/>
	<path id="path13097" class="st22" d="M1069.3,2018.1c3.7-4.4,6.6-12,10.7-24.5c-4.7,6.4-9.4,12-14.1,16.5c0,0,0,0,0,0.1
		C1066.8,2013.2,1068,2015.9,1069.3,2018.1"/>
	<path id="path13101" class="st5" d="M1069.3,2018.1c-1.2,1.5-2.6,2.7-4.1,3.6c-0.3,0.2-0.6,0.4-1,0.5c1.6,0.8,3.2,1.4,5.1,1.6l0,0
		l0,0c0.2,0,0.6,0.1,0.8,0.1h0.1c0.1,0,0.2,0,0.4,0h0.1c0.1,0,0.2,0,0.4,0c0.1,0,0.3,0,0.4,0c0.1,0,0.1,0,0.1,0c0.1,0,0.2,0,0.3,0
		c0.1,0,0.1,0,0.1,0c0.1,0,0.2,0,0.3,0c0,0,0,0,0.1,0c0.1,0,0.1,0,0.1,0c0.1,0,0.2,0,0.3-0.1l0,0c0.1,0,0.1,0,0.1,0
		c0.1,0,0.2-0.1,0.4-0.1c0.1,0,0.1,0,0.1,0c0.1,0,0.2-0.1,0.4-0.1l0,0c0,0,0,0,0.1,0c0.2-0.1,0.5-0.1,0.8-0.2
		C1072.6,2022.7,1070.8,2020.8,1069.3,2018.1"/>
	<path id="path13105" class="st23" d="M1038.3,2023.8c1.6,0,3.2-0.1,4.7-0.4c1.5-0.2,2.9-0.7,4.4-1.2c1.2,0.6,2.5,1.1,3.9,1.3
		c1.1,0.2,2.2,0.3,3.3,0.3H1038.3z"/>
	<path id="path13109" class="st23" d="M1054.7,2023.8c3.9,0,6.9-0.4,9.5-1.7c1.6,0.8,3.2,1.4,5.1,1.6l0,0l0,0c0.2,0,0.6,0.1,0.8,0.1
		h0.1c0.1,0,0.2,0,0.4,0h0.1c0.1,0,0.2,0,0.4,0H1054.7L1054.7,2023.8z"/>
	<path id="path13113" class="st24" d="M1071.2,2023.8c0.1,0,0.3,0,0.4,0c0.1,0,0.1,0,0.1,0c0.1,0,0.2,0,0.3,0c0.1,0,0.1,0,0.1,0
		c0.1,0,0.2,0,0.3,0c0,0,0,0,0.1,0s0.1,0,0.1,0c0.1,0,0.2,0,0.3-0.1l0,0c0.1,0,0.1,0,0.1,0c0.1,0,0.2-0.1,0.4-0.1c0.1,0,0.1,0,0.1,0
		c0.1,0,0.2-0.1,0.4-0.1l0,0c0,0,0,0,0.1,0c0.2-0.1,0.5-0.1,0.8-0.2l0,0c0.7,0.2,1.6,0.4,2.4,0.4L1071.2,2023.8L1071.2,2023.8z"/>
	<path id="path13117" class="st25" d="M1065.8,2010L1065.8,2010c-1.7,1.6-3.4,3.1-5.2,4.5c-0.9,0.7-1.8,1.4-2.7,2.1
		c0.7,0.9,1.6,1.7,2.4,2.6c1.2,1.2,2.6,2.2,4,3c0.3-0.2,0.7-0.3,1-0.5c1.5-0.9,2.8-2,4.1-3.6C1068,2015.9,1066.9,2013.2,1065.8,2010
		"/>
	
		<linearGradient id="path13139_1_" gradientUnits="userSpaceOnUse" x1="1848.4559" y1="-50.0005" x2="1849.0801" y2="-50.0005" gradientTransform="matrix(0 123.7424 -123.7424 0 -5090.7026 -226784.7969)">
		<stop  offset="0" style="stop-color:#168CD4"/>
		<stop  offset="0.5" style="stop-color:#1C87CC"/>
		<stop  offset="1" style="stop-color:#154B8D"/>
	</linearGradient>
	<path id="path13139" class="st26" d="M1117.3,1947.8h-8.2c-0.2,0-0.6,0-0.8,0l0,0c-0.2,0-0.5,0-0.7,0l0,0l0,0
		c-0.5,0-1.1,0.1-1.6,0.1l0,0c-0.2,0.5-0.5,1-0.7,1.6l0,0c-8.1,17.2-16.6,32.2-25.2,44.1l0,0c-4.1,12.5-7.1,20.1-10.7,24.5l0,0
		c1.6,2.7,3.4,4.6,5.6,5.3l0,0c0.1,0,0.1,0,0.2-0.1l0,0h0.1l0,0c0.1,0,0.1,0,0.1,0l0,0c0.1,0,0.2-0.1,0.2-0.1l0,0
		c0.1,0,0.1,0,0.2-0.1l0,0c0.1,0,0.2-0.1,0.2-0.1l0,0c0.1,0,0.1-0.1,0.1-0.1l0,0c0.1-0.1,0.2-0.1,0.4-0.1l0,0c0.1,0,0.1-0.1,0.2-0.1
		l0,0c0.1,0,0.1-0.1,0.2-0.1l0,0c0.1,0,0.1-0.1,0.2-0.1l0,0c0.1,0,0.1-0.1,0.2-0.1l0,0c0.1-0.1,0.2-0.1,0.4-0.1l0,0
		c0.1,0,0.1-0.1,0.1-0.1l0,0c0.1-0.1,0.2-0.1,0.2-0.1l0,0c0.1,0,0.1,0,0.1-0.1l0,0c0.3-0.1,0.6-0.2,0.9-0.4l0,0h0.1l0,0
		c0.4-0.2,0.9-0.4,1.3-0.6l0,0c14-7.9,21.2-34.2,43.2-73.6l0,0L1117.3,1947.8L1117.3,1947.8z"/>
	<path id="path13231" class="st27" d="M995.4,1949.6c0.1,0,0.1,0,0.1,0c0.1,0,0.2,0,0.2,0c0.1,0,0.1,0,0.1,0c0.1,0,0.3,0.1,0.4,0.1
		h0.1c0.1,0,0.2,0.1,0.4,0.1c0,0,0.1,0,0.1,0c0.3,0.1,0.6,0.1,0.9,0.2h0.1c0.1,0,0.2,0.1,0.4,0.1c0.1,0,0.1,0,0.1,0
		c0.1,0.1,0.3,0.1,0.4,0.1c0,0,0,0,0.1,0c0.1,0.1,0.2,0.1,0.4,0.1c0.1,0,0.1,0.1,0.1,0.1c0.1,0.1,0.2,0.1,0.2,0.1
		c0.1,0,0.1,0.1,0.1,0.1c0.1,0.1,0.2,0.1,0.4,0.1c0.1,0,0.1,0.1,0.2,0.1c0.1,0.1,0.1,0.1,0.2,0.1c0.1,0,0.1,0.1,0.2,0.1
		c0.1,0.1,0.1,0.1,0.2,0.1c1.6,0.7,3,1.8,4.3,3.1c0.5-0.5,1-1,1.6-1.4c-2.9-2.1-6.2-3.2-10-3.2
		C996.2,1949.5,995.8,1949.6,995.4,1949.6"/>
	<path id="path13235" class="st28" d="M1005.2,1954.1c0.8,0.7,1.6,1.6,2.3,2.5c0.7-0.5,1.4-1,2.1-1.4c-0.9-0.9-1.9-1.7-2.9-2.5
		C1006.2,1953.1,1005.7,1953.6,1005.2,1954.1"/>
	<g id="g13243" transform="matrix(5.0481458,0,0,-5.0481458,-9064.2597,2270.6096)">
		
			<linearGradient id="path13245_1_" gradientUnits="userSpaceOnUse" x1="2365.8123" y1="11.7198" x2="2366.4365" y2="11.7198" gradientTransform="matrix(143.8888 -59.6807 -59.6807 -143.8888 -337721.25 142943.9219)">
			<stop  offset="0" style="stop-color:#97D6EE"/>
			<stop  offset="0.7033" style="stop-color:#55C1EA"/>
			<stop  offset="1" style="stop-color:#55C1EA"/>
		</linearGradient>
		<path id="path13245" class="st29" d="M1992.7,63.6c0.1,0,0.2,0,0.2,0c0.7,0,1.4-0.2,2-0.6c0.6,0.5,1.4,0.6,2.4,0.6h-4.9
			C1992.5,63.6,1992.6,63.6,1992.7,63.6"/>
	</g>
	<g id="g13253" transform="matrix(5.0481458,0,0,-5.0481458,-9064.2597,2270.6096)">
		
			<linearGradient id="path13255_1_" gradientUnits="userSpaceOnUse" x1="2365.323" y1="11.8193" x2="2365.947" y2="11.8193" gradientTransform="matrix(113.6429 51.5183 51.5183 -113.6429 -267415.7188 -120451.7969)">
			<stop  offset="0" style="stop-color:#7ACCEC"/>
			<stop  offset="1" style="stop-color:#3FB7ED"/>
		</linearGradient>
		<path id="path13255" class="st30" d="M1997.4,63.6c-1,0-1.7-0.2-2.4-0.6c0.2-0.1,0.4-0.3,0.6-0.5c0.9,0.6,1.7,0.9,2.5,1.1
			c0.3,0.1,0.6,0.1,0.9,0.1L1997.4,63.6L1997.4,63.6z"/>
	</g>
	
		<linearGradient id="path13333_1_" gradientUnits="userSpaceOnUse" x1="1848.511" y1="-50.0404" x2="1849.1351" y2="-50.0404" gradientTransform="matrix(0 121.0325 -121.0325 0 -4970.5181 -221778.0312)">
		<stop  offset="0" style="stop-color:#1DA7E7"/>
		<stop  offset="1" style="stop-color:#37ABE7;stop-opacity:0"/>
	</linearGradient>
	<path id="path13333" class="st31" d="M1080,1993.6c2.2-6.9,4.7-15.2,7.9-25.3c2.9-9.1,7.9-15.9,17.4-18.8c0.2-0.5,0.5-1.1,0.7-1.6
		c-15.4,0.9-22.6,8.7-26.2,20.3c-6.4,20.3-10.2,33.4-13.9,41.8C1070.6,2005.6,1075.3,2000,1080,1993.6"/>
</g>
</svg>
