<?xml version="1.0" encoding="utf-8"?>
<!-- Generator: Adobe Illustrator 24.3.0, SVG Export Plug-In . SVG Version: 6.00 Build 0)  -->
<svg version="1.1" id="Layer_1" xmlns="http://www.w3.org/2000/svg" xmlns:xlink="http://www.w3.org/1999/xlink" x="0px" y="0px"
	 viewBox="0 0 286 337.1" style="enable-background:new 0 0 286 337.1;" xml:space="preserve">
<style type="text/css">
	.st0{fill:#A4C639;}
	.st1{fill:#FFFFFF;}
</style>
<g id="b">
	<ellipse class="st0" cx="143" cy="107.1" rx="91" ry="84"/>
	<path class="st0" d="M74,86.1h138c12.2,0,22,9.8,22,22v138c0,12.2-9.8,22-22,22H74c-12.2,0-22-9.8-22-22v-138
		C52,95.9,61.8,86.1,74,86.1z"/>
</g>
<g id="a">
	<path class="st0" d="M83.4,0.8L83.4,0.8c-3.1,1.7-4.3,5.7-2.5,8.8l35.4,63.8c1.7,3.1,5.7,4.3,8.8,2.5l0,0c3.1-1.7,4.3-5.7,2.5-8.8
		L92.2,3.3C90.5,0.2,86.5-0.9,83.4,0.8z"/>
	<path id="c" class="st0" d="M262,107.1L262,107.1c-13.3,0-24,10.7-24,24v85c0,13.3,10.7,24,24,24l0,0c13.3,0,24-10.7,24-24v-85
		C286,117.8,275.3,107.1,262,107.1z"/>
	<g>
		<path id="c_1_" class="st0" d="M177,204.1L177,204.1c-13.3,0-24,10.7-24,24v85c0,13.3,10.7,24,24,24l0,0c13.3,0,24-10.7,24-24v-85
			C201,214.8,190.3,204.1,177,204.1z"/>
	</g>
</g>
<path class="st0" d="M202.6,0.8L202.6,0.8c3.1,1.7,4.3,5.7,2.5,8.8l-35.4,63.8c-1.7,3.1-5.7,4.3-8.8,2.5l0,0
	c-3.1-1.7-4.3-5.7-2.5-8.8l35.4-63.8C195.5,0.2,199.5-0.9,202.6,0.8z"/>
<path id="c_2_" class="st0" d="M24,107.1L24,107.1c13.3,0,24,10.7,24,24v85c0,13.3-10.7,24-24,24l0,0c-13.3,0-24-10.7-24-24v-85
	C0,117.8,10.7,107.1,24,107.1z"/>
<g>
	<path id="c_3_" class="st0" d="M109,204.1L109,204.1c13.3,0,24,10.7,24,24v85c0,13.3-10.7,24-24,24l0,0c-13.3,0-24-10.7-24-24v-85
		C85,214.8,95.7,204.1,109,204.1z"/>
</g>
<ellipse class="st0" cx="143" cy="107.1" rx="91" ry="84"/>
<path class="st0" d="M74,86.1h138c12.2,0,22,9.8,22,22v138c0,12.2-9.8,22-22,22H74c-12.2,0-22-9.8-22-22v-138
	C52,95.9,61.8,86.1,74,86.1z"/>
<path class="st1" d="M48,110.6h190"/>
<circle class="st1" cx="101" cy="66.1" r="6"/>
<circle class="st1" cx="185" cy="66.1" r="6"/>
</svg>
