<?xml version="1.0" encoding="utf-8"?>
<!-- Generator: Adobe Illustrator 24.0.3, SVG Export Plug-In . SVG Version: 6.00 Build 0)  -->
<svg version="1.1" id="Layer_1" xmlns="http://www.w3.org/2000/svg" xmlns:xlink="http://www.w3.org/1999/xlink" x="0px" y="0px"
	 viewBox="0 0 500 500" style="enable-background:new 0 0 500 500;" xml:space="preserve">
<style type="text/css">
	.st0{fill:#5382A1;}
	.st1{fill:#E76F00;}
</style>
<path class="st0" d="M184.1,377.8c0,0-18.4,10.7,13.1,14.3c38.1,4.3,57.6,3.7,99.6-4.2c0,0,11,6.9,26.5,12.9
	C229.1,441.2,110.2,398.5,184.1,377.8 M172.6,325.2c0,0-20.6,15.3,10.9,18.5c40.7,4.2,72.8,4.5,128.5-6.2c0,0,7.7,7.8,19.8,12.1
	C218,382.9,91.2,352.2,172.6,325.2"/>
<path class="st1" d="M269.6,235.9c23.2,26.7-6.1,50.7-6.1,50.7s58.9-30.4,31.8-68.5c-25.3-35.5-44.6-53.1,60.2-114
	C355.6,104.2,191,145.3,269.6,235.9"/>
<path class="st0" d="M394.1,416.8c0,0,13.6,11.2-15,19.9c-54.3,16.5-226.1,21.4-273.9,0.7c-17.2-7.5,15-17.8,25.1-20
	c10.6-2.3,16.6-1.9,16.6-1.9C127.9,402,23.7,441.8,94,453.2C285.9,484.4,443.9,439.2,394.1,416.8 M193,270.7
	c0,0-87.4,20.8-30.9,28.3c23.8,3.2,71.3,2.5,115.6-1.2c36.2-3,72.5-9.5,72.5-9.5s-12.8,5.5-22,11.8
	c-88.7,23.3-260.2,12.5-210.8-11.4C159,268.4,193,270.7,193,270.7 M349.7,358.3c90.2-46.9,48.5-91.9,19.4-85.9
	c-7.1,1.5-10.3,2.8-10.3,2.8s2.6-4.1,7.7-5.9c57.6-20.2,101.9,59.7-18.6,91.4C347.9,360.6,349.3,359.4,349.7,358.3"/>
<path class="st1" d="M295.4,6c0,0,50,50-47.4,126.8c-78.1,61.6-17.8,96.8,0,137c-45.6-41.1-79-77.3-56.6-111
	C224.3,109.4,315.5,85.4,295.4,6"/>
<path class="st0" d="M201.8,485.3c86.6,5.5,219.6-3.1,222.7-44c0,0-6.1,15.5-71.6,27.9c-73.9,13.9-165.1,12.3-219.1,3.4
	C133.9,472.5,144.9,481.7,201.8,485.3"/>
</svg>
