<?xml version="1.0" encoding="utf-8"?>
<!-- Generator: Adobe Illustrator 24.0.3, SVG Export Plug-In . SVG Version: 6.00 Build 0)  -->
<svg version="1.1" id="Layer_1" xmlns="http://www.w3.org/2000/svg" xmlns:xlink="http://www.w3.org/1999/xlink" x="0px" y="0px"
	 viewBox="0 0 500 500" style="enable-background:new 0 0 500 500;" xml:space="preserve">
<style type="text/css">
	.st0{fill:#CC0000;}
</style>
<path class="st0" d="M433.5,454v22.6h40.8c8.4,0,22.7-6.1,23.2-23.2v-8.7c0-14.6-12-23.2-23.2-23.2h-20.4v-10.5h40.3v-22.7h-38.7
	c-10,0-23.4,8.2-23.4,23.6v7.9c0,15.4,13.2,23.2,23.4,23.2c28.1,0.1-6.7,0,19.2,0v11 M214.6,448.5c0,0,21.9-1.9,21.9-30.1
	c0-28.2-26.5-30.9-26.5-30.9h-47.7v89.1h24v-21.5l20.7,21.5h35.5L214.6,448.5L214.6,448.5z M205.4,430.3h-19.1v-20.4h19.2
	c0,0,5.4,2,5.4,10.1C210.9,428.2,205.4,430.3,205.4,430.3L205.4,430.3z M295.7,388.2h-24.4c-17.4,0-23.2,15.7-23.2,23.2v65.2h24.4
	V461h22.9v15.6h23.6v-65.2C318.9,392.4,301.7,388.2,295.7,388.2L295.7,388.2z M295.3,435.8h-23v-21.6c0,0,0-4.9,7.6-4.9h8.4
	c6.7,0,6.9,4.9,6.9,4.9v21.6L295.3,435.8L295.3,435.8z M330,388.2h25.4v88.4H330V388.2z M391,453.8v-65.6h-25.2v88.4h59.3v-22.9H391
	z"/>
<path class="st0" d="M11.7,476.6h98.7c0,0-18.9-86.1,43.6-120.9c13.6-6.6,57-31.4,127.9,21.1c2.2-1.9,4.4-3.4,4.4-3.4
	s-65-64.8-137.3-57.6c-36.4,3.2-81.1,36.4-107.3,80.1S11.7,476.6,11.7,476.6z"/>
<path class="st0" d="M11.7,476.6h98.7c0,0-18.9-86.1,43.6-120.9c13.6-6.6,57-31.4,127.9,21.1c2.2-1.9,4.4-3.4,4.4-3.4
	s-65-64.8-137.3-57.6c-36.4,3.2-81.1,36.4-107.3,80.1S11.7,476.6,11.7,476.6z"/>
<path class="st0" d="M11.7,476.6h98.7c0,0-18.9-86.1,43.6-120.9c13.6-6.6,57-31.4,127.9,21.1c2.2-1.9,4.4-3.4,4.4-3.4
	s-65-64.8-137.3-57.6c-36.5,3.2-81.2,36.4-107.4,80.1S11.7,476.6,11.7,476.6z M217.4,322.9l0.5-8.4c-1.1-0.6-4.2-2.1-12.1-4.4
	l-0.5,8.2C209.4,319.7,213.4,321.2,217.4,322.9z"/>
<path class="st0" d="M205.5,349.4l-0.5,7.9c4.1,0.1,8.2,0.6,12.4,1.5l0.5-7.7C213.6,350.1,209.5,349.6,205.5,349.4z M159.3,310.4
	h1.2l-2.5-7.6c-3.9,0-7.9,0.2-12,0.7l2.4,7.4C152,310.5,155.6,310.4,159.3,310.4z M165.3,356.3l2.9,8.6c3.6-1.7,7.2-3.2,10.9-4.4
	l-2.7-8.2C172,353.6,168.4,355,165.3,356.3L165.3,356.3z M108.6,323.5l-5.6-8.6c-3.1,1.6-6.4,3.4-9.7,5.4l5.7,8.7
	C102.2,327,105.3,325.1,108.6,323.5L108.6,323.5z M134.2,379.7l6,9c2.1-3.1,4.6-6,7.4-8.9l-5.6-8.5C139,374,136.4,376.8,134.2,379.7
	L134.2,379.7z M116,419.9l10.1,8c0.5-4.9,1.4-9.7,2.6-14.6l-9-7.1C118.2,410.8,117,415.4,116,419.9L116,419.9z M61.3,360.6l-8.9-7.7
	c-3.2,3.1-6.4,6.2-9.2,9.4l9.6,8.2C55.5,367.1,58.3,363.7,61.3,360.6L61.3,360.6z M23.6,416.4l-14.4-5.2c-2.4,5.4-5,11.6-6.2,15
	l14.4,5.2C19,427.2,21.6,421.1,23.6,416.4z M114.2,451.7c0.2,6.6,0.9,12,1.5,15.7l15,5.4c-1.1-4.9-2.2-10.4-3-16.2L114.2,451.7z"/>
</svg>
