<?xml version="1.0" encoding="utf-8"?>
<!-- Generator: Adobe Illustrator 24.2.0, SVG Export Plug-In . SVG Version: 6.00 Build 0)  -->
<svg version="1.1" id="Layer_1" xmlns="http://www.w3.org/2000/svg" xmlns:xlink="http://www.w3.org/1999/xlink" x="0px" y="0px"
	 viewBox="0 0 75.8 78.3" style="enable-background:new 0 0 75.8 78.3;" xml:space="preserve">
<path style="fill:#FFFFFF;" d="M10.2,0h43.7c3.6,0,6.9,1.5,9.2,3.8c2.4,2.4,3.8,5.6,3.8,9.2v40v1.4h-1.4H10.2H8.8V53V1.4V0H10.2
	L10.2,0z M53.9,2.8H11.6v49h52.6V13.1c0-2.8-1.2-5.4-3-7.3C59.3,3.9,56.7,2.8,53.9,2.8z"/>
<path style="fill:#FFFFFF;" d="M74.4,78.3h-73H0v-1.4V53.1v-1.4h1.4h73h1.4v1.4v23.8v1.4L74.4,78.3L74.4,78.3z M2.8,75.6H73V54.5
	H2.8V75.6z"/>
<rect x="18.6" y="16.7" style="fill:#FFFFFF;" width="38.6" height="2.8"/>
<rect x="18.6" y="26.4" style="fill:#FFFFFF;" width="38.6" height="2.8"/>
<rect x="18.6" y="36.1" style="fill:#FFFFFF;" width="38.6" height="2.8"/>
<path style="fill:#FFFFFF;" d="M14.8,57.9h4.9l2.5,4.4l2.5-4.4h4.8L25,64.8l4.9,7.4h-5l-2.8-4.6l-2.8,4.6h-4.9l4.9-7.5L14.8,57.9
	L14.8,57.9z M31.2,57.9H37l2.2,8.7l2.2-8.7h5.8v14.3h-3.6V61.3l-2.8,10.9h-3.3l-2.8-10.9v10.9h-3.6L31.2,57.9L31.2,57.9z M50.1,57.9
	h4.4v10.8h6.9v3.5H50.1V57.9z"/>
</svg>
