<?xml version="1.0" encoding="utf-8"?>
<!-- Generator: Adobe Illustrator 24.1.3, SVG Export Plug-In . SVG Version: 6.00 Build 0)  -->
<svg version="1.1" id="Layer_1" xmlns="http://www.w3.org/2000/svg" xmlns:xlink="http://www.w3.org/1999/xlink" x="0px" y="0px"
	 viewBox="0 0 405.7 173.3" style="enable-background:new 0 0 405.7 173.3;" xml:space="preserve">
<style type="text/css">
	.st0{enable-background:new    ;}
	.st1{fill:#01FFFF;}
	.st2{fill:#2D7EAB;}
	.st3{opacity:0.7;fill:#76CDD5;enable-background:new    ;}
	.st4{fill:#76CDD5;}
	.st5{opacity:0.2;fill:#76CDD5;enable-background:new    ;}
	.st6{opacity:0.5;fill:#76CDD5;enable-background:new    ;}
	.st7{fill:#67FBFB;}
	.st8{opacity:0.3;}
</style>
<g class="st0">
	<path class="st1" d="M103.3,145.2l-17.5-4l-6.3,27.3l-13.6-3.1l6.3-27.3L0,121.4l3-12.9L75.9,24l15,3.5L18,112l57.1,13.2l9.6-41.7
		l13.6,3.1l-9.6,41.7l17.5,4L103.3,145.2z"/>
</g>
<g class="st0">
	<path class="st1" d="M405.7,127.1l-17.5,4.4l6.8,27.2l-13.6,3.4l-6.8-27.2l-71.8,17.9l-3.2-12.8l26.6-108.4l14.9-3.7l-26.6,108.4
		l56.9-14.2l-10.4-41.5l13.6-3.4l10.4,41.5l17.5-4.4L405.7,127.1z"/>
</g>
<g id="img_dashboard_switch" transform="translate(146.000000, 36.000000)">
	<g id="Group" transform="translate(27.000000, 27.000000)">
		<path id="Shape" class="st2" d="M34.4,57.4v-2h0.8l0.1,2H34.4z M43.9,56.1l-0.5-1.9c0.9-0.3,1.8-0.5,2.7-0.9l0.7,1.9
			C45.8,55.4,44.8,55.8,43.9,56.1z M54.3,50.9l-1.2-1.7c0.8-0.5,1.5-1.1,2.2-1.8l1.3,1.6C56,49.7,55.1,50.4,54.3,50.9z M62.4,42.6
			l-1.7-1.1c0.5-0.8,1.1-1.6,1.5-2.4l1.8,1C63.5,40.8,63,41.7,62.4,42.6L62.4,42.6z M67.2,31.9l-2-0.5c0.3-0.9,0.4-1.8,0.6-2.8
			l2,0.4C67.7,30,67.5,30.9,67.2,31.9L67.2,31.9z"/>
		<path id="Path" class="st3" d="M32.7,54l0.2,4.6c-8.8-0.3-17-4-23.2-10.2C3.5,42.2,0,34.3-0.6,25.6L4,25.8
			C5.1,41,17.5,53.2,32.7,54L32.7,54z"/>
		<path id="Path_1_" class="st4" d="M33-13.2l-0.1,1.7L32.8-7l-0.1,1.7C18.2-4.4,6.5,7.3,5.7,21.9L4.1,22l-4.5,0.2l-1.7,0.1
			C-1.8,12.9,2,4.2,8.6-2.4C15.1-9,23.8-12.8,33-13.2L33-13.2z"/>
		<path id="Path_2_" class="st5" d="M68.2,22.2l-2-0.1c-0.2-4.4-1.3-8.5-3.1-12.2C58.3-0.3,48.3-7.5,36.4-8.2l-0.1-2
			c8.3,0.4,16.1,3.9,22,9.9c2.8,2.8,5,6,6.7,9.4C67,13.1,68,17.5,68.2,22.2L68.2,22.2z"/>
		<path id="Path_3_" class="st6" d="M66.3,8.4L65,9l-1.8,0.9l-1.3,0.6C57.1,0.6,47.3-6,36.5-6.7l-0.1-1.5l-0.1-2l-0.1-1.5
			c6.1,0.3,12.1,2.2,17.2,5.5C59-2.6,63.5,2.4,66.3,8.4L66.3,8.4z"/>
		<path id="Shape_1_" class="st7" d="M49.5,22.2c-0.6-7.1-6.1-12.8-13.1-13.7l-1.8-38.2L32.9,8.5C25.7,9.2,20.1,15,19.4,22.2
			L-19,23.9l38.5,1.8c1,6.8,6.5,12.2,13.4,12.9l1.8,38.9l1.8-39c6.7-0.9,12.2-6.1,13-12.9l38.8-1.8L49.5,22.2L49.5,22.2z M34.4,35
			C28.1,35,23,29.8,23,23.5S28.1,12,34.4,12s11.5,5.2,11.5,11.5C45.9,29.9,40.8,35,34.4,35z"/>
		<path id="Shape_2_" class="st7" d="M35.5,77.6h-1.8l-1.7-38.2c-3.2-0.5-6.3-2-8.7-4.3c-2.4-2.3-4-5.3-4.5-8.6l-37.8-1.7v-1.8
			l37.7-1.7c1-7,6.4-12.5,13.4-13.6l1.7-37.5h1.8l1.7,37.5c6.8,1.1,12.2,6.7,13.1,13.6l38,1.7v1.8l-38.2,1.7
			C49,33,43.8,38.1,37.2,39.2L35.5,77.6z M0.2,23.9l20.1,0.9l0.1,0.7C21.3,32,26.6,37,33,37.7l0.7,0.1l0.9,20.3l0.9-20.4l0.7-0.1
			c6.4-0.8,11.5-5.8,12.3-12.2l0.1-0.7l20.3-0.9L48.7,23l-0.1-0.8c-0.6-6.7-5.8-12-12.4-12.9l-0.7-0.1l-0.9-19.9L33.7,9.2L33,9.3
			C26.3,10,21,15.5,20.3,22.2L20.3,23L0.2,23.9L0.2,23.9z M34.4,35.8c-6.7,0-12.3-5.5-12.3-12.3c0-6.7,5.5-12.3,12.3-12.3
			c6.7,0,12.3,5.5,12.3,12.3S41.3,35.8,34.4,35.8z M34.4,13c-5.9,0-10.6,4.7-10.6,10.6c0,5.9,4.7,10.6,10.6,10.6S45,29.4,45,23.6
			C45,17.7,40.3,13,34.4,13z"/>
		<g id="Shape_3_" class="st8">
			<path class="st7" d="M34.8,82.7c-7.7,0-15.1-1.5-22.2-4.3C5.2,75.4-1.4,71-7,65.4s-10-12.2-13-19.5c-2.9-7.1-4.3-14.5-4.3-22.2
				s1.5-15.1,4.3-22.2c3-7.4,7.4-13.9,13-19.5S5.3-28,12.6-31c7.1-2.9,14.5-4.3,22.2-4.3S49.9-33.8,57-31c7.3,3,13.9,7.4,19.5,13
				s10,12.2,13,19.5c2.9,7.1,4.3,14.5,4.3,22.2s-1.5,15.1-4.3,22.2c-3,7.3-7.4,13.9-13,19.5s-12.2,10-19.5,13
				C49.9,81.2,42.5,82.7,34.8,82.7L34.8,82.7z M34.8-34.6c-14.9,0-29.8,5.7-41.2,17.1c-11,11-17.1,25.6-17.1,41.2s6,30.2,17.1,41.2
				s25.6,17.1,41.2,17.1S65,75.9,76,64.9s17.1-25.6,17.1-41.2S87-6.5,76-17.5C64.6-29,49.7-34.6,34.8-34.6L34.8-34.6z"/>
		</g>
	</g>
	<g id="Group_1_">
		<polygon id="Path_4_" class="st4" points="60,-18.4 62.4,-36 63.5,-18.3 		"/>
		<polygon id="Path_5_" class="st4" points="12.2,4 1.1,-9.6 14.6,1.5 		"/>
		<polygon id="Path_6_" class="st4" points="-6.9,52.4 -24.5,50 -6.7,48.9 		"/>
		<polygon id="Path_7_" class="st4" points="1.1,111.5 12.5,97.7 14.9,100.1 		"/>
		<polygon id="Path_8_" class="st4" points="63.5,119.7 61.2,137.3 60,119.6 		"/>
		<polygon id="Path_9_" class="st4" points="110.5,97.5 122.2,111.5 108.2,100 		"/>
		<polygon id="Path_10_" class="st4" points="130.8,48.9 148.4,51.3 130.6,52.4 		"/>
		<polygon id="Path_11_" class="st4" points="109.7,1.2 123.8,-9.6 112.1,3.8 		"/>
		<path id="Shape_4_" class="st4" d="M61.8,119.8c-9,0-17.7-1.7-26-5.1c-8.6-3.5-16.3-8.6-22.9-15.2C6.2,92.9,1.1,85.2-2.4,76.6
			c-3.3-8.3-5.1-17.1-5.1-26.1s1.7-17.7,5.1-26.1C1.1,15.9,6.2,8.2,12.8,1.6s14.3-11.7,22.9-15.2c8.3-3.3,17-5.1,26-5.1
			s17.7,1.7,26,5.1c8.6,3.5,16.3,8.6,22.9,15.2c6.6,6.6,11.7,14.3,15.2,22.9c3.3,8.3,5.1,17.1,5.1,26.1s-1.7,17.7-5.1,26.1
			c-3.5,8.6-8.6,16.3-15.2,22.9l-1-1l1,1c-6.6,6.6-14.3,11.7-22.9,15.2C79.5,118.2,70.8,119.8,61.8,119.8z M61.8-15.6
			c-17.6,0-34.3,6.9-46.8,19.4S-4.5,33-4.5,50.7S2.5,85,14.9,97.5c12.5,12.5,29.2,19.4,46.8,19.4s34.3-6.9,46.8-19.4
			C121.1,85,128,68.3,128,50.7s-6.9-34.4-19.4-46.9S79.4-15.6,61.8-15.6z"/>
	</g>
</g>
</svg>
