<?xml version="1.0" encoding="utf-8"?>
<!-- Generator: Adobe Illustrator 24.1.2, SVG Export Plug-In . SVG Version: 6.00 Build 0)  -->
<svg version="1.1" id="Layer_1" xmlns="http://www.w3.org/2000/svg" xmlns:xlink="http://www.w3.org/1999/xlink" x="0px" y="0px"
	 viewBox="0 0 54.4 54.4" style="enable-background:new 0 0 54.4 54.4;" xml:space="preserve">
<g>
	<g>
		<defs>
			<path id="SVGID_1_" d="M36.5,17.8c-1.2,0-2.1,1-2.1,2.1c0,1.2,0.9,2.1,2.1,2.1c1.2,0,2.1-0.9,2.1-2.1
				C38.7,18.8,37.7,17.8,36.5,17.8z M19.9,19.9c0-1.2-1-2.1-2.1-2.1s-2.1,1-2.1,2.1c0,1.2,0.9,2.1,2.1,2.1S19.9,21.1,19.9,19.9z
				 M27.2,36.5c6.2,0,9.3-2.1,9.3-2.1s-2.1,6.3-9.3,6.3c-7.3,0-9.4-6.3-9.4-6.3S20.9,36.5,27.2,36.5z M37.6,2.6H16.7
				c-3.9,0-7.4,1.6-10,4.2c-2.6,2.6-4.1,6-4.1,10v20.9c0,3.9,1.6,7.4,4.1,10c2.6,2.6,6.1,4.1,10,4.1h20.9c3.9,0,7.4-1.6,10-4.1
				c2.6-2.6,4.2-6.1,4.2-10V16.8c0-4-1.6-7.4-4.2-10C45.1,4.1,41.5,2.6,37.6,2.6z M16.7,0h20.9c4.6,0,8.8,1.9,11.8,5
				c3.1,3,5,7.2,5,11.8v20.9c0,4.5-1.9,8.8-5,11.8c-3,3-7.2,4.9-11.8,4.9H16.7c-4.5,0-8.8-1.9-11.8-4.9C1.9,46.5,0,42.2,0,37.7V16.8
				C0,12.2,1.9,7.9,4.9,5C7.9,1.9,12.2,0,16.7,0z"/>
		</defs>
		<clipPath id="SVGID_2_">
			<use xlink:href="#SVGID_1_"  style="overflow:visible;"/>
		</clipPath>
	</g>
	<g>
		<defs>
			<path id="SVGID_3_" d="M36.5,17.8c-1.2,0-2.1,1-2.1,2.1c0,1.2,0.9,2.1,2.1,2.1c1.2,0,2.1-0.9,2.1-2.1
				C38.7,18.8,37.7,17.8,36.5,17.8z M19.9,19.9c0-1.2-1-2.1-2.1-2.1s-2.1,1-2.1,2.1c0,1.2,0.9,2.1,2.1,2.1S19.9,21.1,19.9,19.9z
				 M27.2,36.5c6.2,0,9.3-2.1,9.3-2.1s-2.1,6.3-9.3,6.3c-7.3,0-9.4-6.3-9.4-6.3S20.9,36.5,27.2,36.5z M37.6,2.6H16.7
				c-3.9,0-7.4,1.6-10,4.2c-2.6,2.6-4.1,6-4.1,10v20.9c0,3.9,1.6,7.4,4.1,10c2.6,2.6,6.1,4.1,10,4.1h20.9c3.9,0,7.4-1.6,10-4.1
				c2.6-2.6,4.2-6.1,4.2-10V16.8c0-4-1.6-7.4-4.2-10C45.1,4.1,41.5,2.6,37.6,2.6z M16.7,0h20.9c4.6,0,8.8,1.9,11.8,5
				c3.1,3,5,7.2,5,11.8v20.9c0,4.5-1.9,8.8-5,11.8c-3,3-7.2,4.9-11.8,4.9H16.7c-4.5,0-8.8-1.9-11.8-4.9C1.9,46.5,0,42.2,0,37.7V16.8
				C0,12.2,1.9,7.9,4.9,5C7.9,1.9,12.2,0,16.7,0z"/>
		</defs>
		<use xlink:href="#SVGID_3_"  style="overflow:visible;fill-rule:evenodd;clip-rule:evenodd;fill:#FFC145;"/>
		<clipPath id="SVGID_4_">
			<use xlink:href="#SVGID_3_"  style="overflow:visible;"/>
		</clipPath>
		<rect x="-5" y="-5" style="clip-path:url(#SVGID_4_);fill:#FFC145;" width="64.4" height="64.4"/>
	</g>
	<g>
		<defs>
			<path id="SVGID_5_" d="M36.5,17.8c-1.2,0-2.1,1-2.1,2.1c0,1.2,0.9,2.1,2.1,2.1c1.2,0,2.1-0.9,2.1-2.1
				C38.7,18.8,37.7,17.8,36.5,17.8z M19.9,19.9c0-1.2-1-2.1-2.1-2.1s-2.1,1-2.1,2.1c0,1.2,0.9,2.1,2.1,2.1S19.9,21.1,19.9,19.9z
				 M27.2,36.5c6.2,0,9.3-2.1,9.3-2.1s-2.1,6.3-9.3,6.3c-7.3,0-9.4-6.3-9.4-6.3S20.9,36.5,27.2,36.5z M37.6,2.6H16.7
				c-3.9,0-7.4,1.6-10,4.2c-2.6,2.6-4.1,6-4.1,10v20.9c0,3.9,1.6,7.4,4.1,10c2.6,2.6,6.1,4.1,10,4.1h20.9c3.9,0,7.4-1.6,10-4.1
				c2.6-2.6,4.2-6.1,4.2-10V16.8c0-4-1.6-7.4-4.2-10C45.1,4.1,41.5,2.6,37.6,2.6z M16.7,0h20.9c4.6,0,8.8,1.9,11.8,5
				c3.1,3,5,7.2,5,11.8v20.9c0,4.5-1.9,8.8-5,11.8c-3,3-7.2,4.9-11.8,4.9H16.7c-4.5,0-8.8-1.9-11.8-4.9C1.9,46.5,0,42.2,0,37.7V16.8
				C0,12.2,1.9,7.9,4.9,5C7.9,1.9,12.2,0,16.7,0z"/>
		</defs>
		<clipPath id="SVGID_6_">
			<use xlink:href="#SVGID_5_"  style="overflow:visible;"/>
		</clipPath>
	</g>
</g>
</svg>
