<?xml version="1.0" encoding="utf-8"?>
<!-- Generator: Adobe Illustrator 24.1.2, SVG Export Plug-In . SVG Version: 6.00 Build 0)  -->
<svg version="1.1" id="Layer_1" xmlns="http://www.w3.org/2000/svg" xmlns:xlink="http://www.w3.org/1999/xlink" x="0px" y="0px"
	 viewBox="0 0 24 24" style="enable-background:new 0 0 24 24;" xml:space="preserve">
<g>
	<path style="fill:#FFFFFF;" d="M13.5,23.5c-1.2,0-2.4-0.2-3.5-0.6c-2.5-0.9-4.5-2.8-5.7-5.2C3.2,15.2,3.1,12.5,4,9.9l1,0.4
		c-0.9,2.3-0.8,4.8,0.2,7S8,21.2,10.3,22c4.7,1.7,10-0.7,11.7-5.3c1.7-4.7-0.6-10-5.3-11.7c-1-0.4-2-0.6-3.2-0.6
		c-0.5,0-1.2,0.1-1.8,0.2l-0.2-1c0.7-0.2,1.4-0.3,2-0.3c1.3,0,2.5,0.2,3.6,0.7c5.2,1.9,7.8,7.7,5.9,13C21.5,21,17.6,23.5,13.5,23.5z
		"/>
</g>
<g>
	<path style="fill:#FFFFFF;" d="M12.1,12.7L0.4,9.5L0.5,9c0.6-2.4,2.1-4.6,4.1-6.1c2-1.6,4.5-2.4,7-2.4h0.5V12.7z M1.6,8.8l9.5,2.6
		V1.5C9,1.6,6.9,2.3,5.2,3.7C3.5,4.9,2.3,6.8,1.6,8.8z"/>
</g>
</svg>
