<?xml version="1.0" encoding="utf-8"?>
<!-- Generator: Adobe Illustrator 24.2.1, SVG Export Plug-In . SVG Version: 6.00 Build 0)  -->
<svg version="1.1" id="Layer_1" xmlns="http://www.w3.org/2000/svg" xmlns:xlink="http://www.w3.org/1999/xlink" x="0px" y="0px"
	 viewBox="0 0 24.9 21.6" style="enable-background:new 0 0 24.9 21.6;" xml:space="preserve">
<style type="text/css">
	.st0{fill:#FFFFFF;}
</style>
<rect x="12" class="st0" width="1" height="11.2"/>
<rect x="12" y="16.2" class="st0" width="1" height="5.4"/>
<rect x="2.7" y="6" class="st0" width="1" height="15.6"/>
<g>
	<path class="st0" d="M3.2,6.6C1.4,6.6,0,5.2,0,3.5s1.4-3.1,3.2-3.1s3.2,1.4,3.2,3.1S4.9,6.6,3.2,6.6z M3.2,1.1
		c-1.3,0-2.3,1.1-2.3,2.4s1.1,2.4,2.3,2.4s2.3-1.1,2.3-2.4S4.4,1.1,3.2,1.1z"/>
</g>
<g>
	<path class="st0" d="M12.5,17c-1.7,0-3.2-1.4-3.2-3.1s1.4-3.1,3.2-3.1s3.2,1.4,3.2,3.1S14.2,17,12.5,17z M12.5,11.5
		c-1.3,0-2.3,1.1-2.3,2.4s1.1,2.4,2.3,2.4s2.3-1.1,2.3-2.4S13.7,11.5,12.5,11.5z"/>
</g>
<rect x="2.7" class="st0" width="1" height="0.4"/>
<rect x="21.3" y="6" class="st0" width="1" height="15.6"/>
<g>
	<path class="st0" d="M21.8,6.6c-1.7,0-3.2-1.4-3.2-3.1s1.4-3.1,3.2-3.1s3.2,1.4,3.2,3.1S23.5,6.6,21.8,6.6z M21.8,1.1
		c-1.3,0-2.3,1.1-2.3,2.4s1.1,2.4,2.3,2.4s2.3-1.1,2.3-2.4S23,1.1,21.8,1.1z"/>
</g>
<rect x="21.3" class="st0" width="1" height="0.4"/>
</svg>
